<svg width="22" height="32" viewBox="0 0 22 32" fill="none" xmlns="http://www.w3.org/2000/svg">
<path d="M9.65657 30.9956L0.546944 21.7061C-0.182315 20.9612 -0.182315 19.7538 0.546944 19.0089C1.27756 18.2653 2.48485 18.2653 3.21546 19.0089L9.1704 25.0604L9.1704 1.90622C9.1704 0.853015 10.0083 -9.09392e-05 11.0404 -9.09392e-05C12.0725 -9.09392e-05 12.9104 0.853015 12.9104 1.90622L12.9104 25.0604L18.8219 19.0089C19.5525 18.264 20.7245 18.264 21.4551 19.0089C22.1844 19.7538 22.1789 20.9612 21.4497 21.7061L12.3373 30.9956C11.9679 31.3715 11.4818 31.5567 10.9983 31.5527C10.5135 31.5567 10.026 31.3729 9.65657 30.9956Z" fill="white"/>
</svg>
