<svg width="34" height="48" viewBox="0 0 34 48" fill="none" xmlns="http://www.w3.org/2000/svg">
<path d="M14.9243 0.847458L0.845304 14.9792C-0.281768 16.1125 -0.281768 17.9492 0.845304 19.0824C1.97447 20.2136 3.84033 20.2136 4.9695 19.0824L14.1729 9.87649L14.1729 45.1C14.1729 46.7022 15.4678 48 17.063 48C18.6581 48 19.953 46.7022 19.953 45.1L19.953 9.87649L29.0893 19.0824C30.2184 20.2157 32.0297 20.2157 33.1589 19.0824C34.286 17.9492 34.2776 16.1125 33.1505 14.9792L19.0673 0.847458C18.4965 0.275688 17.7451 -0.006073 16.9979 9.53674e-05C16.2486 -0.006073 15.4951 0.273628 14.9243 0.847458Z" fill="white"/>
</svg>
