<svg width="32" height="22" viewBox="0 0 32 22" fill="none" xmlns="http://www.w3.org/2000/svg">
<path d="M0.556933 9.65706L9.84646 0.547433C10.5914 -0.181827 11.7987 -0.181827 12.5437 0.547433C13.2873 1.27805 13.2873 2.48533 12.5437 3.21595L6.49217 9.17089H29.6464C30.6996 9.17089 31.5527 10.0088 31.5527 11.0409C31.5527 12.073 30.6996 12.9109 29.6464 12.9109H6.49217L12.5437 18.8224C13.2886 19.553 13.2886 20.725 12.5437 21.4556C11.7987 22.1848 10.5914 22.1794 9.84646 21.4501L0.556933 12.3378C0.18108 11.9684 -0.00414291 11.4822 -8.69404e-05 10.9988C-0.00414291 10.514 0.179728 10.0264 0.556933 9.65706Z" fill="white"/>
</svg>
