<svg width="23" height="32" viewBox="0 0 23 32" fill="none" xmlns="http://www.w3.org/2000/svg">
<path d="M10.4334 0.780378L1.3238 10.0699C0.59454 10.8149 0.59454 12.0222 1.3238 12.7671C2.05442 13.5107 3.2617 13.5107 3.99232 12.7671L9.94725 6.71562L9.94726 29.8698C9.94726 30.923 10.7852 31.7761 11.8173 31.7761C12.8494 31.7761 13.6873 30.923 13.6873 29.8698L13.6873 6.71562L19.5987 12.7671C20.3294 13.5121 21.5013 13.5121 22.2319 12.7671C22.9612 12.0222 22.9558 10.8149 22.2265 10.0699L13.1142 0.780378C12.7448 0.404524 12.2586 0.219308 11.7752 0.223364C11.2903 0.219308 10.8028 0.403172 10.4334 0.780378Z" fill="white"/>
</svg>
