<svg width="32" height="22" viewBox="0 0 32 22" fill="none" xmlns="http://www.w3.org/2000/svg">
<path d="M30.9957 9.65657L21.7062 0.546944C20.9613 -0.182315 19.7539 -0.182315 19.009 0.546944C18.2654 1.27756 18.2654 2.48485 19.009 3.21546L25.0605 9.1704H1.90631C0.853106 9.1704 0 10.0083 0 11.0404C0 12.0725 0.853106 12.9104 1.90631 12.9104H25.0605L19.009 18.8219C18.264 19.5525 18.264 20.7245 19.009 21.4551C19.7539 22.1844 20.9613 22.1789 21.7062 21.4497L30.9957 12.3373C31.3716 11.9679 31.5568 11.4818 31.5528 10.9983C31.5568 10.5135 31.373 10.026 30.9957 9.65657Z" fill="white"/>
</svg>
