<svg width="206" height="246" viewBox="0 0 206 246" fill="none" xmlns="http://www.w3.org/2000/svg">
<g filter="url(#filter0_i_1987_2313)">
<path d="M206 67.2696V67.2365C205.997 65.1929 205.392 63.172 204.19 61.1737C201.888 57.3549 198.495 55.4454 194.007 55.4454H142.58C138.379 59.6336 133.965 63.8183 129.33 67.9978L121.802 74.8324C120.933 75.7017 119.917 76.3393 118.755 76.747C117.595 77.1547 116.447 77.3585 115.313 77.3585C114.179 77.3585 113.039 77.1547 111.895 76.747C110.75 76.3393 109.743 75.7017 108.874 74.8324L101.264 67.9159C96.6646 63.7225 92.3091 59.5657 88.1924 55.4454H41.6554L33.9323 39.177C33.0891 37.3756 31.8574 35.9801 30.2389 34.9888C28.6205 33.9975 26.8765 33.501 25.0054 33.501H8.23003C5.89552 33.501 3.93906 34.2884 2.36413 35.8651C0.789205 37.44 0 39.3965 0 41.731C0 44.0673 0.787463 46.022 2.36413 47.5969C3.93906 49.1719 5.89552 49.9593 8.23003 49.9593H20.8904L60.8141 133.986L45.1572 162.135C41.739 168.424 41.8679 174.722 45.5474 181.032C49.2269 187.34 54.7235 190.495 62.0388 190.495H179.364C181.698 190.495 183.655 189.708 185.23 188.131C186.805 186.556 187.592 184.602 187.592 182.265C187.592 179.931 186.805 177.974 185.23 176.399C183.655 174.825 181.698 174.037 179.364 174.037H62.0406C60.9848 174.037 60.1939 173.544 59.666 172.56C59.1381 171.574 59.1555 170.659 59.7183 169.816L72.4222 146.603H152.482C156.014 146.603 159.259 145.722 162.221 143.957C165.181 142.19 167.562 139.725 169.364 136.559L204.517 72.8759C205.502 70.9874 205.997 69.1198 206 67.2696ZM48.4394 212.555C44.7042 216.29 42.8366 220.823 42.8366 226.156C42.8366 231.487 44.7042 236.02 48.4394 239.755C52.1747 243.491 56.7078 245.357 62.0388 245.357C67.3699 245.357 71.903 243.491 75.6383 239.755C79.3735 236.02 81.2411 231.487 81.2411 226.156C81.2411 220.823 79.3735 216.29 75.6383 212.555C71.903 208.821 67.3699 206.954 62.0388 206.954C56.7078 206.954 52.1747 208.821 48.4394 212.555ZM154.79 212.555C151.055 216.29 149.188 220.823 149.188 226.156C149.188 231.487 151.055 236.02 154.79 239.755C158.526 243.491 163.059 245.357 168.39 245.357C173.723 245.357 178.256 243.491 181.991 239.755C185.725 236.02 187.592 231.487 187.592 226.156C187.592 220.823 185.725 216.29 181.991 212.555C178.256 208.821 173.723 206.954 168.39 206.954C163.059 206.954 158.526 208.821 154.79 212.555Z" fill="#C02020"/>
<path d="M133.541 0.0546875C130.283 0.0546875 127.066 0.805564 123.89 2.30732C120.712 3.80908 117.87 6.24812 115.363 9.62446C112.858 6.24812 110.015 3.80908 106.839 2.30732C103.661 0.805564 100.445 0.0546875 97.1873 0.0546875C91.4555 0.0546875 86.6558 1.98676 82.7899 5.85265C78.924 9.71854 76.9902 14.5182 76.9902 20.25C76.9902 27.4487 79.8038 34.1979 85.4293 40.4976C91.0566 46.7973 97.4503 53.212 104.612 59.7434L110.416 65.0169C111.078 65.6807 111.846 66.1668 112.719 66.4769C113.592 66.787 114.459 66.942 115.325 66.942C116.189 66.942 117.065 66.787 117.951 66.4769C118.836 66.1668 119.611 65.679 120.273 65.0169L126.013 59.8044C133.052 53.4559 139.432 47.0952 145.155 40.7223C150.876 34.3494 153.737 27.5253 153.737 20.25C153.737 14.5182 151.804 9.71854 147.939 5.85265C144.073 1.98676 139.273 0.0546875 133.541 0.0546875Z" fill="#C02020"/>
</g>
<defs>
<filter id="filter0_i_1987_2313" x="0" y="0.0546875" width="206" height="251.302" filterUnits="userSpaceOnUse" color-interpolation-filters="sRGB">
<feFlood flood-opacity="0" result="BackgroundImageFix"/>
<feBlend mode="normal" in="SourceGraphic" in2="BackgroundImageFix" result="shape"/>
<feColorMatrix in="SourceAlpha" type="matrix" values="0 0 0 0 0 0 0 0 0 0 0 0 0 0 0 0 0 0 127 0" result="hardAlpha"/>
<feOffset dy="6"/>
<feGaussianBlur stdDeviation="3"/>
<feComposite in2="hardAlpha" operator="arithmetic" k2="-1" k3="1"/>
<feColorMatrix type="matrix" values="0 0 0 0 0 0 0 0 0 0 0 0 0 0 0 0 0 0 0.25 0"/>
<feBlend mode="normal" in2="shape" result="effect1_innerShadow_1987_2313"/>
</filter>
</defs>
</svg>
