<svg width="21" height="108" viewBox="0 0 21 108" fill="none" xmlns="http://www.w3.org/2000/svg">
<rect width="21" height="108" transform="translate(21 108) rotate(-180)" fill="#2A6FEE"/>
<path d="M15 100.574C15 100.689 14.9107 100.765 14.7959 100.765L6.27671 100.765C6.16193 100.765 6.07266 100.689 6.07266 100.574L6.07266 98.7502C6.07266 98.6354 6.16193 98.5461 6.27671 98.5461L13.036 98.5461L13.036 96.0592C13.036 95.9444 13.1125 95.8679 13.2273 95.8679L14.8087 95.8679C14.9235 95.8679 15 95.9444 15 96.0592L15 100.574ZM15 94.4961C15 94.6109 14.9107 94.6874 14.7959 94.6874L6.27671 94.6874C6.16193 94.6874 6.07266 94.6109 6.07266 94.4961L6.07266 89.8284C6.07266 89.7136 6.16193 89.6371 6.27671 89.6371L7.83262 89.6371C7.9474 89.6371 8.03668 89.7136 8.03668 89.8284L8.03668 92.4683L9.52882 92.4683L9.52882 89.9942C9.52882 89.8794 9.61809 89.7901 9.73287 89.7901L11.3015 89.7901C11.4163 89.7901 11.4928 89.8794 11.4928 89.9942L11.4928 92.4683L13.036 92.4683L13.036 89.8412C13.036 89.7264 13.1253 89.6371 13.24 89.6371L14.7959 89.6371C14.9107 89.6371 15 89.7264 15 89.8412L15 94.4961ZM15 86.388C15 86.5028 14.9107 86.5793 14.7959 86.5793L8.03668 86.5793L8.03668 88.25C8.03668 88.3648 7.9474 88.4413 7.83262 88.4413L6.27671 88.4413C6.16193 88.4413 6.07266 88.3648 6.07266 88.25L6.07266 82.7023C6.07266 82.5875 6.16193 82.4982 6.27671 82.4982L7.83262 82.4982C7.9474 82.4982 8.03668 82.5875 8.03668 82.7023L8.03668 84.3602L14.7959 84.3602C14.9107 84.3602 15 84.4495 15 84.5643L15 86.388ZM15.153 78.7802C15.153 80.2086 14.4389 81.2544 13.7247 81.79C13.6481 81.8538 13.5461 81.8538 13.4441 81.7773L12.3601 80.8208C12.258 80.7315 12.2198 80.6422 12.309 80.5274C12.8702 79.9153 13.1253 79.4561 13.1253 78.8312C13.1253 78.2701 12.9467 77.8492 12.4366 77.8492C12.003 77.8492 11.8754 78.1681 11.6586 78.6654L11.1612 79.7495C10.7276 80.6932 10.0517 81.637 8.61058 81.637C6.88888 81.637 5.97063 80.3361 5.97064 78.7547C5.97064 77.6834 6.37874 76.8035 7.16945 76.0255C7.23322 75.949 7.348 75.9362 7.45002 76.0127L8.58507 76.9565C8.6871 77.0203 8.72536 77.1223 8.66159 77.2243C8.20247 77.7982 7.99842 78.2063 7.99842 78.6782C7.99842 79.2138 8.26624 79.4944 8.63608 79.4944C9.0952 79.4944 9.19723 79.1501 9.49056 78.5124L9.87316 77.6452C10.3068 76.7142 10.9062 75.6939 12.4493 75.6939C14.3751 75.6939 15.153 77.3008 15.153 78.7802ZM15 71.7543C15 71.8691 14.9107 71.9456 14.796 71.9456L6.27672 71.9456C6.16194 71.9456 6.07266 71.8691 6.07266 71.7543L6.07266 69.701C6.07266 69.599 6.11092 69.5097 6.2002 69.4715L12.4238 67.0866L6.2002 64.689C6.11092 64.6507 6.07266 64.5742 6.07266 64.4722L6.07266 62.4189C6.07266 62.3041 6.16194 62.2148 6.27672 62.2148L14.796 62.2148C14.9107 62.2148 15 62.3041 15 62.4189L15 64.2426C15 64.3574 14.9107 64.4339 14.796 64.4339L10.294 64.4339L14.8342 66.0663C14.9362 66.1046 15 66.1939 15 66.2959L15 67.8646C15 67.9666 14.9362 68.0686 14.8342 68.1069L10.294 69.7265L14.796 69.7265C14.9107 69.7265 15 69.8158 15 69.9306L15 71.7543ZM15.1658 56.3006C15.1658 58.8257 13.1508 60.9045 10.5746 60.9045C7.98567 60.9045 5.97064 58.8257 5.97064 56.3006C5.97064 53.7754 7.98567 51.6966 10.5746 51.6966C13.1508 51.6966 15.1658 53.7754 15.1658 56.3006ZM10.5746 58.6599C11.952 58.6599 12.985 57.6397 12.985 56.3006C12.985 54.9615 11.952 53.9539 10.5746 53.9539C9.18448 53.9539 8.15146 54.9615 8.15146 56.3006C8.15146 57.6397 9.18448 58.6599 10.5746 58.6599ZM15 48.2805C15 48.3825 14.949 48.4846 14.847 48.5228L6.28947 51.4561C6.16194 51.5071 6.07266 51.4306 6.07266 51.2903L6.07267 49.39C6.07267 49.288 6.11093 49.2115 6.22571 49.1732L12.1688 47.3112L6.22571 45.462C6.11093 45.4237 6.07267 45.3345 6.07267 45.2324L6.07267 43.3322C6.07267 43.1919 6.16194 43.1154 6.28947 43.1664L14.847 46.0997C14.949 46.1379 15 46.2527 15 46.3547L15 48.2805ZM15 41.9633C15 42.0781 14.9107 42.1546 14.796 42.1546L6.27672 42.1546C6.16194 42.1546 6.07267 42.0781 6.07267 41.9633L6.07267 37.2956C6.07267 37.1808 6.16194 37.1043 6.27672 37.1043L7.83263 37.1043C7.94741 37.1043 8.03668 37.1808 8.03668 37.2956L8.03668 39.9355L9.52882 39.9355L9.52882 37.4614C9.52882 37.3466 9.6181 37.2573 9.73288 37.2573L11.3015 37.2573C11.4163 37.2573 11.4928 37.3466 11.4928 37.4614L11.4928 39.9355L13.036 39.9355L13.036 37.3083C13.036 37.1936 13.1253 37.1043 13.24 37.1043L14.796 37.1043C14.9107 37.1043 15 37.1936 15 37.3083L15 41.9633Z" fill="white"/>
<line x1="1" y1="28.5" x2="20" y2="28.5" stroke="white"/>
<g clip-path="url(#clip0_1549_752)">
<mask id="mask0_1549_752" style="mask-type:luminance" maskUnits="userSpaceOnUse" x="5" y="8" width="10" height="12">
<path d="M14.4589 8H5V19.9951H14.4589V8Z" fill="white"/>
</mask>
<g mask="url(#mask0_1549_752)">
<path d="M4.9895 8.91075V19.0886C4.9895 19.3378 5.07911 19.5513 5.25902 19.7305C5.43822 19.9104 5.65174 20 5.90025 20H13.5523C13.8008 20 14.0144 19.9104 14.1943 19.7305C14.3735 19.5513 14.4631 19.3378 14.4631 19.0886V8.91075C14.4631 8.66223 14.3735 8.44872 14.1943 8.26951C14.0144 8.0896 13.8008 8 13.5523 8H5.90025C5.65174 8 5.43822 8.0896 5.25902 8.26951C5.07911 8.44872 4.9895 8.66223 4.9895 8.91075ZM9.73364 14C9.73364 14.0483 9.72594 14.0924 9.70984 14.1309C9.69444 14.1701 9.67554 14.2086 9.65454 14.2464L6.44207 19.1257C6.41057 19.1677 6.36577 19.1992 6.30837 19.2209C6.25026 19.2419 6.19356 19.2468 6.13826 19.2349C6.04655 19.2223 5.97725 19.1698 5.93245 19.0753C5.91285 19.0354 5.90305 18.9947 5.90305 18.9555C5.90305 18.903 5.91985 18.8512 5.95415 18.8001L9.06931 14L5.95415 9.19006C5.92195 9.14246 5.90585 9.09415 5.90585 9.04585C5.90585 9.00315 5.91845 8.95975 5.94295 8.91635C5.99545 8.82394 6.06826 8.77354 6.16066 8.76514C6.21526 8.75324 6.26847 8.75604 6.31887 8.77424C6.36927 8.79244 6.41057 8.82604 6.44207 8.87434L9.65454 13.7473C9.67554 13.7893 9.69444 13.8299 9.70984 13.8691C9.72594 13.9076 9.73364 13.9517 9.73364 14Z" fill="white"/>
</g>
</g>
<defs>
<clipPath id="clip0_1549_752">
<rect width="9.47357" height="12" fill="white" transform="translate(5 8)"/>
</clipPath>
</defs>
</svg>
