<?xml version="1.0" encoding="UTF-8"?>
<svg xmlns="http://www.w3.org/2000/svg" width="72" height="72" version="1.1" viewBox="0 0 72 72">
  <defs>
    <style>
      .cls-1 {
        fill: #fff;
      }
    </style>
  </defs>
  <!-- Generator: Adobe Illustrator 28.7.5, SVG Export Plug-In . SVG Version: 1.2.0 Build 176)  -->
  <g>
    <g id="Layer_1">
      <g>
        <path class="cls-1" d="M28.1,34.5c-.9,0-1.7.3-2.4.9-.7.6-1,1.4-1,2.3s.3,1.6,1,2.3c.7.6,1.5.9,2.4.9s1.7-.3,2.4-.9c.7-.6,1-1.4,1-2.3s-.3-1.6-1-2.3c-.7-.6-1.5-.9-2.4-.9Z"/>
        <path class="cls-1" d="M36,.8C16.4.8.4,16.7.4,36.3s15.9,35.6,35.6,35.6,35.6-15.9,35.6-35.6S55.6.8,36,.8ZM57.4,41.3c-1.1,2.8-2.6,5.3-4.7,7.5-2.1,2.1-4.5,3.8-7.4,5.1-2.9,1.3-6,1.9-9.3,1.9s-6.1-.6-8.8-1.7c-2.7-1.1-5.1-2.6-7.2-4.6-2-1.9-3.6-4.2-4.8-6.8-1.2-2.6-1.8-5.4-1.8-8.3s.7-5.9,2-8.8c1.4-2.8,3.2-5.3,5.7-7.4s5.3-3.6,8.6-4.5c3.3-1,7-1.1,10.9-.3-.3,1.6-.2,3.1.3,4.5.6,1.4,1.4,2.6,2.5,3.6,1.1,1,2.5,1.6,4,2,1.5.4,3.2.3,4.9-.3-1.2,2.5-1,4.6.6,6.3,1.6,1.7,3.4,2.7,5.4,2.7.3,3.2,0,6.2-1.1,9Z"/>
        <path class="cls-1" d="M32.6,23.8c-.9,0-1.7.3-2.4.9s-1,1.4-1,2.3.3,1.6,1,2.3,1.5.9,2.4.9,1.7-.3,2.4-.9c.7-.6,1-1.4,1-2.3s-.3-1.6-1-2.3c-.7-.6-1.5-.9-2.4-.9Z"/>
        <path class="cls-1" d="M42.8,38.7c-.6,0-1.2.2-1.6.6-.4.4-.6.9-.6,1.5s.2,1.1.6,1.5c.4.4,1,.6,1.6.6s1.2-.2,1.6-.6c.4-.4.6-.9.6-1.5s-.2-1.1-.6-1.5c-.4-.4-1-.6-1.6-.6Z"/>
      </g>
    </g>
  </g>
</svg>