<svg width="72" height="72" viewBox="0 0 72 72" fill="none" xmlns="http://www.w3.org/2000/svg">
<rect x="0.444458" y="0.777832" width="71.1111" height="71.1111" rx="35.5556" fill="#3B80FF"/>
<path d="M32.6136 30.1883C33.5543 30.1883 34.3538 29.8768 35.0122 29.2538C35.6707 28.6308 35.9999 27.8743 35.9999 26.9843C35.9999 26.0943 35.6707 25.3378 35.0122 24.7148C34.3538 24.0918 33.5543 23.7803 32.6136 23.7803C31.673 23.7803 30.8735 24.0918 30.215 24.7148C29.5566 25.3378 29.2274 26.0943 29.2274 26.9843C29.2274 27.8743 29.5566 28.6308 30.215 29.2538C30.8735 29.8768 31.673 30.1883 32.6136 30.1883ZM28.0986 40.8683C29.0393 40.8683 29.8388 40.5568 30.4972 39.9338C31.1557 39.3108 31.4849 38.5543 31.4849 37.6643C31.4849 36.7743 31.1557 36.0178 30.4972 35.3948C29.8388 34.7718 29.0393 34.4603 28.0986 34.4603C27.158 34.4603 26.3585 34.7718 25.7001 35.3948C25.0416 36.0178 24.7124 36.7743 24.7124 37.6643C24.7124 38.5543 25.0416 39.3108 25.7001 39.9338C26.3585 40.5568 27.158 40.8683 28.0986 40.8683ZM42.7724 43.0044C43.412 43.0044 43.9482 42.7997 44.3808 42.3903C44.8135 41.9809 45.0299 41.4735 45.0299 40.8683C45.0299 40.2631 44.8135 39.7558 44.3808 39.3464C43.9482 38.937 43.412 38.7323 42.7724 38.7323C42.1327 38.7323 41.5966 38.937 41.1639 39.3464C40.7312 39.7558 40.5149 40.2631 40.5149 40.8683C40.5149 41.4735 40.7312 41.9809 41.1639 42.3903C41.5966 42.7997 42.1327 43.0044 42.7724 43.0044ZM35.9999 55.8204C32.877 55.8204 29.9423 55.2597 27.1957 54.1383C24.449 53.0169 22.0598 51.495 20.0281 49.5726C17.9964 47.6502 16.3879 45.3896 15.2027 42.7908C14.0175 40.1919 13.4249 37.4151 13.4249 34.4603C13.4249 31.4699 14.1022 28.5507 15.4567 25.7027C16.8112 22.8547 18.7018 20.3983 21.1286 18.3335C23.5554 16.2687 26.4337 14.7557 29.7636 13.7945C33.0934 12.8333 36.7336 12.7443 40.6842 13.5275C40.3456 15.1295 40.4584 16.6336 41.0228 18.0398C41.5872 19.446 42.4337 20.6297 43.5625 21.5909C44.6912 22.5521 46.0269 23.2107 47.5695 23.5667C49.1122 23.9227 50.73 23.8337 52.4232 23.2997C51.2568 25.7561 51.4637 27.8565 53.044 29.6009C54.6242 31.3453 56.4302 32.2531 58.462 32.3243C58.8006 35.4927 58.4432 38.5009 57.3897 41.3489C56.3362 44.197 54.7841 46.689 52.7336 48.825C50.683 50.961 48.2186 52.6609 45.3403 53.9247C42.462 55.1885 39.3485 55.8204 35.9999 55.8204Z" fill="white"/>
</svg>
