<svg width="145" height="217" viewBox="0 0 145 217" fill="none" xmlns="http://www.w3.org/2000/svg">
<g filter="url(#filter0_i_1992_2353)">
<path d="M73.0215 34.7017C54.4713 34.7017 38.7437 41.1528 25.8414 54.0551C12.9391 66.9588 6.48792 82.6864 6.48792 101.237C6.48792 113.533 9.48277 124.915 15.4725 135.386C21.4635 145.856 29.8788 154.371 40.7223 160.929V193.42C40.7223 196.351 41.853 198.948 44.1155 201.21C46.3768 203.472 48.9746 204.604 51.9063 204.604H57.2519C57.7317 208.191 59.45 211.071 62.4067 213.239C65.3648 215.405 68.9026 216.488 73.0215 216.488C77.1404 216.488 80.6809 215.405 83.6376 213.239C86.5956 211.071 88.3139 208.191 88.7938 204.604H94.1406C97.0711 204.604 99.6689 203.472 101.93 201.21C104.193 198.948 105.323 196.351 105.323 193.42V160.929C116.166 154.371 124.582 145.856 130.572 135.386C136.563 124.915 139.559 113.533 139.559 101.237C139.559 82.6864 133.107 66.9588 120.204 54.0551C107.301 41.1528 91.5744 34.7017 73.0215 34.7017ZM73.0215 111.057L90.1216 93.9585C91.0813 92.9974 92.1081 92.5176 93.2006 92.5176C94.2931 92.5176 95.3212 92.9974 96.2809 93.9585C97.1789 94.9182 97.6535 95.9699 97.7034 97.1137C97.7534 98.2575 97.3314 99.2777 96.4334 100.176L77.6479 118.961V152.912H68.3978V118.961L49.7634 100.176C48.8668 99.2777 48.4185 98.2825 48.4185 97.19C48.4185 96.0975 48.8668 95.0707 49.7634 94.1097C50.7244 93.1499 51.767 92.6596 52.891 92.6412C52.9147 92.6412 52.9384 92.6412 52.962 92.6412C54.0585 92.6412 55.0458 93.0803 55.924 93.9598L73.0215 111.057ZM51.9063 164.096H94.1406V174.046H51.9063V164.096ZM51.9063 182.767H94.1406V193.42H51.9063V182.767Z" fill="#C02020"/>
<path d="M9.46305 47.4829L1.82342 39.8433C0.72434 38.7442 0.159024 37.4453 0.127472 35.9479C0.0959192 34.4504 0.661235 33.1213 1.82342 31.9578C2.98691 30.7956 4.30029 30.2145 5.76616 30.2145C7.23203 30.2145 8.54672 30.7956 9.7089 31.9578L17.3485 39.5974C18.4476 40.6965 18.9972 41.9954 18.9972 43.4928C18.9972 44.9903 18.4476 46.3207 17.3485 47.4829C16.1864 48.582 14.8717 49.1328 13.4058 49.1328C11.9399 49.1328 10.6252 48.582 9.46305 47.4829ZM127.639 39.5974L135.277 31.9578C136.378 30.8587 137.676 30.2934 139.173 30.2619C140.67 30.2303 142 30.7956 143.163 31.9578C144.325 33.12 144.909 34.4347 144.909 35.9005C144.909 37.3664 144.326 38.6811 143.163 39.8433L135.524 47.4829C134.424 48.582 133.126 49.1328 131.629 49.1328C130.131 49.1328 128.801 48.582 127.639 47.4829C126.538 46.3207 125.989 45.006 125.989 43.5402C125.989 42.0743 126.538 40.7596 127.639 39.5974ZM67.3 20.0349V6.48183C67.3 4.85162 67.8246 3.51196 68.8737 2.46284C69.9215 1.41372 71.2612 0.88916 72.8914 0.88916C74.5216 0.88916 75.8612 1.41372 76.9104 2.46284C77.9595 3.51196 78.484 4.85162 78.484 6.48183V20.0349C78.484 21.6651 77.9595 23.0048 76.9104 24.0539C75.8612 25.103 74.5216 25.6263 72.8914 25.6263C71.2612 25.6263 69.9215 25.103 68.8737 24.0539C67.8246 23.0048 67.3 21.6651 67.3 20.0349Z" fill="#C02020"/>
</g>
<defs>
<filter id="filter0_i_1992_2353" x="0.126221" y="0.88916" width="144.782" height="221.599" filterUnits="userSpaceOnUse" color-interpolation-filters="sRGB">
<feFlood flood-opacity="0" result="BackgroundImageFix"/>
<feBlend mode="normal" in="SourceGraphic" in2="BackgroundImageFix" result="shape"/>
<feColorMatrix in="SourceAlpha" type="matrix" values="0 0 0 0 0 0 0 0 0 0 0 0 0 0 0 0 0 0 127 0" result="hardAlpha"/>
<feOffset dy="6"/>
<feGaussianBlur stdDeviation="3"/>
<feComposite in2="hardAlpha" operator="arithmetic" k2="-1" k3="1"/>
<feColorMatrix type="matrix" values="0 0 0 0 0 0 0 0 0 0 0 0 0 0 0 0 0 0 0.25 0"/>
<feBlend mode="normal" in2="shape" result="effect1_innerShadow_1992_2353"/>
</filter>
</defs>
</svg>
