<svg width="208" height="208" viewBox="0 0 208 208" fill="none" xmlns="http://www.w3.org/2000/svg">
<g filter="url(#filter0_i_1971_1094)">
<path d="M207.954 29.6241C207.818 29.1086 207.343 28.7017 206.609 28.5117L187.825 23.425C186.399 23.0452 184.932 21.5666 184.539 20.1423L179.445 1.38233C179.242 0.6634 178.848 0.188635 178.332 0.0394233C177.815 -0.0962238 177.231 0.120812 176.702 0.649835L144.893 32.4184C143.82 33.49 143.059 35.579 143.195 37.0982L144.92 56.3058L136.689 64.5261C129.993 58.5847 122.428 53.8099 114.157 50.3238C104.024 46.0374 93.2675 43.867 82.1711 43.867C71.0746 43.867 60.3176 46.0374 50.1855 50.3238C40.4064 54.461 31.6189 60.3753 24.0673 67.9037C16.5293 75.4321 10.6075 84.2085 6.46503 93.9886C2.17312 104.108 0 114.851 0 125.933C0 137.002 2.17312 147.759 6.46503 157.878C10.6075 167.645 16.5293 176.421 24.0673 183.963C31.6053 191.492 40.3928 197.406 50.1855 201.543C60.3176 205.83 71.0746 208 82.1711 208C93.2675 208 104.024 205.83 114.157 201.543C123.936 197.406 132.723 191.492 140.275 183.963C147.826 176.435 153.735 167.659 157.877 157.878C162.169 147.759 164.342 137.016 164.342 125.933C164.342 114.851 162.169 104.108 157.877 93.9886C154.332 85.6192 149.483 77.9822 143.426 71.2406L151.643 63.0339L170.875 64.7567C170.997 64.7702 171.106 64.7702 171.228 64.7702C172.695 64.7702 174.556 64.0513 175.547 63.0611L207.356 31.2925C207.886 30.7228 208.103 30.1395 207.954 29.6241ZM145.993 98.9804C149.606 107.499 151.426 116.56 151.426 125.906C151.426 135.252 149.592 144.3 145.993 152.832C142.502 161.066 137.504 168.459 131.148 174.821C124.791 181.183 117.376 186.161 109.131 189.647C100.602 193.255 91.529 195.086 82.1711 195.086C72.8131 195.086 63.7539 193.255 55.2108 189.647C46.9665 186.161 39.5643 181.169 33.1944 174.821C26.8244 168.472 21.8398 161.066 18.3493 152.832C14.7365 144.314 12.9029 135.252 12.9029 125.906C12.9029 116.56 14.7365 107.513 18.3493 98.9804C21.8398 90.7466 26.838 83.3539 33.1944 76.992C39.5508 70.6437 46.9665 65.6519 55.2108 62.1658C63.7403 58.5576 72.8131 56.7263 82.1711 56.7263C91.529 56.7263 100.588 58.5576 109.131 62.1522C115.868 65.0008 122.034 68.8396 127.535 73.6144L116.045 85.0902C112.051 81.7804 107.624 79.081 102.829 77.0598C96.2827 74.2926 89.3288 72.8955 82.1711 72.8955C75.0133 72.8955 68.0594 74.3062 61.5128 77.0734C55.1972 79.7457 49.5199 83.5573 44.644 88.4271C39.7681 93.2968 35.9515 98.9533 33.2759 105.274C30.5187 111.813 29.1062 118.758 29.1062 125.906C29.1062 133.055 30.5052 140 33.2759 146.538C35.9515 152.846 39.7681 158.516 44.644 163.386C49.5199 168.255 55.1836 172.067 61.5128 174.739C68.0594 177.507 75.0133 178.904 82.1711 178.904C89.3288 178.904 96.2827 177.507 102.829 174.739C109.145 172.067 114.822 168.255 119.698 163.386C124.574 158.516 128.391 152.859 131.066 146.538C133.837 140 135.236 133.055 135.236 125.906C135.236 118.758 133.837 111.813 131.066 105.274C128.988 100.364 126.217 95.8605 122.795 91.8047L134.272 80.3425C139.161 85.904 143.1 92.1574 145.993 98.9804ZM95.8481 105.288C91.9229 102.684 87.2236 101.178 82.1711 101.178C68.494 101.178 57.4111 112.247 57.4111 125.906C57.4111 139.566 68.494 150.635 82.1711 150.635C95.8481 150.635 106.931 139.566 106.931 125.906C106.931 120.725 105.342 115.923 102.612 111.948L114.741 99.835C120.676 107.201 123.909 116.303 123.909 125.906C123.909 137.043 119.562 147.515 111.685 155.382C103.794 163.264 93.3219 167.591 82.1711 167.591C71.0202 167.591 60.5349 163.25 52.6574 155.382C44.7798 147.501 40.4336 137.043 40.4336 125.906C40.4336 114.77 44.7798 104.298 52.6574 96.4303C60.5349 88.5627 71.0202 84.222 82.1711 84.222C91.6649 84.222 100.67 87.369 108.004 93.1612L95.8481 105.288Z" fill="#C02020"/>
</g>
<defs>
<filter id="filter0_i_1971_1094" x="0" y="0" width="208" height="214" filterUnits="userSpaceOnUse" color-interpolation-filters="sRGB">
<feFlood flood-opacity="0" result="BackgroundImageFix"/>
<feBlend mode="normal" in="SourceGraphic" in2="BackgroundImageFix" result="shape"/>
<feColorMatrix in="SourceAlpha" type="matrix" values="0 0 0 0 0 0 0 0 0 0 0 0 0 0 0 0 0 0 127 0" result="hardAlpha"/>
<feOffset dy="6"/>
<feGaussianBlur stdDeviation="3"/>
<feComposite in2="hardAlpha" operator="arithmetic" k2="-1" k3="1"/>
<feColorMatrix type="matrix" values="0 0 0 0 0 0 0 0 0 0 0 0 0 0 0 0 0 0 0.25 0"/>
<feBlend mode="normal" in2="shape" result="effect1_innerShadow_1971_1094"/>
</filter>
</defs>
</svg>
