<svg width="172" height="172" viewBox="0 0 172 172" fill="none" xmlns="http://www.w3.org/2000/svg">
<g filter="url(#filter0_i_1971_1084)">
<path d="M165.416 88.048C163.713 88.048 162.255 88.5773 161.042 89.6389C159.829 90.6991 159.113 92.0857 158.894 93.7973C156.782 112.604 148.845 128.292 135.077 140.861C121.311 153.431 104.952 159.714 86.0014 159.714C72.0785 159.714 59.3522 156.082 47.8225 148.814C36.2928 141.547 27.5802 131.951 21.6847 120.022H38.7285C40.4634 120.022 41.9171 119.433 43.0869 118.258C44.2581 117.081 44.843 115.622 44.843 113.878C44.843 112.135 44.2581 110.676 43.0869 109.5C41.9157 108.325 40.4634 107.736 38.7285 107.736H7.36904C5.26824 107.736 3.51499 108.442 2.10928 109.854C0.703562 111.267 0 113.028 0 115.138V146.641C0 148.384 0.584889 149.843 1.75608 151.018C2.92727 152.196 4.37961 152.784 6.1145 152.784C7.84939 152.784 9.30314 152.196 10.4729 151.018C11.6427 149.843 12.229 148.384 12.229 146.641V128.353C19.598 141.637 29.7602 152.233 42.7167 160.139C55.6733 168.046 70.1006 172 86 172C97.1948 172 107.729 169.98 117.601 165.943C127.475 161.905 136.223 156.377 143.848 149.359C151.474 142.338 157.696 134.101 162.513 124.644C167.334 115.189 170.244 104.974 171.248 94.0016C171.467 92.3738 170.984 90.9744 169.797 89.8035C168.612 88.6327 167.151 88.048 165.416 88.048ZM86.0014 0C74.9634 0 64.5343 1.97983 54.714 5.93808C44.8938 9.89633 36.1713 15.3462 28.5452 22.2877C20.9204 29.2292 14.659 37.4394 9.76088 46.9228C4.86419 56.4047 1.86063 66.7367 0.753008 77.9203C0.534028 79.6007 1.00448 81.0256 2.16437 82.1964C3.32426 83.3673 4.7992 83.952 6.58637 83.952C8.29018 83.952 9.74816 83.4085 10.9603 82.3213C12.1725 81.2342 12.8888 79.8348 13.1077 78.1232C15.2721 59.0019 23.3023 43.2484 37.1984 30.8627C51.0959 18.477 67.3626 12.2849 86 12.2849C100.027 12.2849 112.819 15.9707 124.375 23.3422C135.93 30.7137 144.578 40.2595 150.317 51.9781H133.272C131.537 51.9781 130.084 52.5656 128.915 53.7422C127.743 54.9187 127.157 56.3777 127.157 58.1205C127.157 59.8634 127.743 61.3237 128.915 62.4989C130.084 63.6754 131.537 64.263 133.272 64.263H164.631C166.732 64.263 168.485 63.5576 169.892 62.1441C171.298 60.7319 172 58.9707 172 56.8602V25.3589C172 23.6161 171.415 22.1557 170.244 20.9806C169.073 19.804 167.62 19.2164 165.884 19.2164C164.151 19.2164 162.697 19.804 161.527 20.9806C160.356 22.1571 159.771 23.6161 159.771 25.3589V43.9608C152.559 30.5192 142.395 19.8324 129.283 11.8989C116.171 3.96676 101.743 0 86.0014 0Z" fill="#C02020"/>
</g>
<g filter="url(#filter1_i_1971_1084)">
<path d="M122.4 57.2617C122.4 51.896 126.75 47.5468 132.115 47.5468H138.151C136.01 44.4929 133.624 41.646 130.988 39.0117C125.138 33.1616 118.259 28.5308 110.352 25.1179C102.443 21.705 93.9927 20 85.0014 20C76.0102 20 67.5596 21.7065 59.651 25.1179C51.7425 28.5308 44.8632 33.1616 39.0131 39.0117C33.163 44.8618 28.5323 51.7411 25.1194 59.6496C21.7065 67.5582 20 76.0087 20 85C20 91.2711 20.8321 97.2774 22.4921 103.022H37.8558C43.2215 103.022 47.5707 107.371 47.5707 112.737C47.5707 118.103 43.2215 122.452 37.8558 122.452H31.8494C33.9895 125.506 36.376 128.353 39.0117 130.988C44.8618 136.837 51.7411 141.469 59.6496 144.881C67.5582 148.294 76.0073 150 85 150C93.9913 150 102.442 148.294 110.35 144.881C118.257 141.469 125.137 136.837 130.987 130.988C136.837 125.138 141.469 118.259 144.881 110.35C148.294 102.442 150 93.9912 150 85C150 78.7289 149.168 72.7226 147.508 66.9781H132.113C126.75 66.9767 122.4 62.6275 122.4 57.2617ZM114.219 68.5958C114.219 70.1488 113.652 71.4934 112.516 72.6296L79.7103 105.435C78.5755 106.57 77.2309 107.139 75.6765 107.139C74.1221 107.139 72.7789 106.57 71.6427 105.435L56.4043 90.1968C55.2695 89.062 54.7006 87.7174 54.7006 86.1644C54.7006 84.61 55.2681 83.2654 56.4043 82.1306C57.5391 80.9958 58.8837 80.4269 60.4381 80.4269C61.9911 80.4269 63.3357 80.9944 64.4719 82.1306L75.6765 93.3351L104.45 64.562C105.584 63.4272 106.929 62.8584 108.483 62.8584C110.036 62.8584 111.381 63.4258 112.516 64.562C113.652 65.6982 114.219 67.0414 114.219 68.5958Z" fill="#C02020"/>
</g>
<defs>
<filter id="filter0_i_1971_1084" x="0" y="0" width="172" height="178" filterUnits="userSpaceOnUse" color-interpolation-filters="sRGB">
<feFlood flood-opacity="0" result="BackgroundImageFix"/>
<feBlend mode="normal" in="SourceGraphic" in2="BackgroundImageFix" result="shape"/>
<feColorMatrix in="SourceAlpha" type="matrix" values="0 0 0 0 0 0 0 0 0 0 0 0 0 0 0 0 0 0 127 0" result="hardAlpha"/>
<feOffset dy="6"/>
<feGaussianBlur stdDeviation="3"/>
<feComposite in2="hardAlpha" operator="arithmetic" k2="-1" k3="1"/>
<feColorMatrix type="matrix" values="0 0 0 0 0 0 0 0 0 0 0 0 0 0 0 0 0 0 0.25 0"/>
<feBlend mode="normal" in2="shape" result="effect1_innerShadow_1971_1084"/>
</filter>
<filter id="filter1_i_1971_1084" x="20" y="20" width="130" height="136" filterUnits="userSpaceOnUse" color-interpolation-filters="sRGB">
<feFlood flood-opacity="0" result="BackgroundImageFix"/>
<feBlend mode="normal" in="SourceGraphic" in2="BackgroundImageFix" result="shape"/>
<feColorMatrix in="SourceAlpha" type="matrix" values="0 0 0 0 0 0 0 0 0 0 0 0 0 0 0 0 0 0 127 0" result="hardAlpha"/>
<feOffset dy="6"/>
<feGaussianBlur stdDeviation="3"/>
<feComposite in2="hardAlpha" operator="arithmetic" k2="-1" k3="1"/>
<feColorMatrix type="matrix" values="0 0 0 0 0 0 0 0 0 0 0 0 0 0 0 0 0 0 0.25 0"/>
<feBlend mode="normal" in2="shape" result="effect1_innerShadow_1971_1084"/>
</filter>
</defs>
</svg>
