<svg width="166" height="166" viewBox="0 0 166 166" fill="none" xmlns="http://www.w3.org/2000/svg">
<g filter="url(#filter0_i_1991_2323)">
<path d="M22.4937 129.482V36.5208H29.4405C31.4082 36.5208 33.0589 35.8598 34.3903 34.5365C35.7217 33.2144 36.3874 31.5611 36.3874 29.578V22.5773H129.007V29.5497C129.007 31.5246 129.667 33.1814 130.984 34.5176C132.302 35.8539 133.949 36.522 135.925 36.522H142.901V129.482H135.954C133.986 129.482 132.337 130.143 131.005 131.465C129.674 132.787 129.007 134.44 129.007 136.424V143.425H36.3862V136.453C36.3862 134.478 35.7276 132.822 34.4103 131.486C33.093 130.15 31.4458 129.482 29.4687 129.482H22.4937ZM158.447 0.00117861H135.953C133.985 0.00117861 132.336 0.662238 131.004 1.98553C129.673 3.30765 129.006 4.96089 129.006 6.94406V13.9447H36.3862V6.97234C36.3862 4.99742 35.7205 3.34065 34.3891 2.00439C33.0578 0.66813 31.4071 0 29.4393 0H6.94686C4.97915 0 3.32844 0.66813 1.99706 2.00439C0.665688 3.34065 0 4.99624 0 6.97234V29.5485C0 31.5234 0.658644 33.1802 1.9771 34.5165C3.29439 35.8527 4.94158 36.5208 6.91751 36.5208H13.8937V129.48H6.94686C4.97915 129.48 3.32844 130.148 1.99706 131.485C0.665688 132.821 0 134.477 0 136.452V159.028C0 161.003 0.665688 162.659 1.99706 163.996C3.32844 165.332 4.97798 166 6.94686 166H29.4405C31.4082 166 33.0589 165.339 34.3903 164.016C35.7217 162.694 36.3874 161.04 36.3874 159.057V152.055H129.007V159.028C129.007 161.003 129.674 162.659 131.005 163.996C132.337 165.332 133.986 166 135.954 166H158.448C160.415 166 162.066 165.332 163.397 163.996C164.729 162.659 165.395 161.003 165.395 159.028V136.452C165.395 134.477 164.735 132.821 163.417 131.485C162.1 130.148 160.453 129.48 158.477 129.48H151.501V36.5208H158.448C160.415 36.5208 162.066 35.8527 163.397 34.5165C164.729 33.1802 165.395 31.5246 165.395 29.5485V6.97352C165.395 4.9986 164.729 3.34182 163.397 2.00557C162.065 0.669308 160.414 0.00117861 158.447 0.00117861Z" fill="#C02020"/>
<path d="M55.7991 114.345H66.328C67.0418 114.345 67.5772 114.077 67.8449 113.271L70.8786 104.047H94.4348L97.4685 113.271C97.7362 114.077 98.2716 114.345 98.9854 114.345H109.514C110.496 114.345 111.031 113.718 110.674 112.823L89.7961 52.7314C89.5284 52.015 88.8146 51.6567 88.1008 51.6567H77.3042C76.5904 51.6567 75.8766 52.015 75.6089 52.7314L54.7295 112.823C54.3715 113.718 54.8176 114.345 55.7991 114.345ZM74.537 92.673L82.6567 67.7767L90.7765 92.673H74.537Z" fill="#C02020"/>
</g>
<defs>
<filter id="filter0_i_1991_2323" x="0" y="0" width="165.395" height="172" filterUnits="userSpaceOnUse" color-interpolation-filters="sRGB">
<feFlood flood-opacity="0" result="BackgroundImageFix"/>
<feBlend mode="normal" in="SourceGraphic" in2="BackgroundImageFix" result="shape"/>
<feColorMatrix in="SourceAlpha" type="matrix" values="0 0 0 0 0 0 0 0 0 0 0 0 0 0 0 0 0 0 127 0" result="hardAlpha"/>
<feOffset dy="6"/>
<feGaussianBlur stdDeviation="3"/>
<feComposite in2="hardAlpha" operator="arithmetic" k2="-1" k3="1"/>
<feColorMatrix type="matrix" values="0 0 0 0 0 0 0 0 0 0 0 0 0 0 0 0 0 0 0.25 0"/>
<feBlend mode="normal" in2="shape" result="effect1_innerShadow_1991_2323"/>
</filter>
</defs>
</svg>
