<svg width="532" height="412" viewBox="0 0 532 412" fill="none" xmlns="http://www.w3.org/2000/svg">
<g filter="url(#filter0_i_648_2426)">
<path d="M39.163 118.35C37.8348 118.35 37.1707 118.018 36.5066 116.358L1.30846 4.95236C0.81037 3.29208 1.47449 2.12987 3.3008 2.12987H4.46301C5.79124 2.12987 6.62138 2.62796 7.2855 4.12222L40.6573 110.713L76.6856 4.12222C77.1837 2.62796 78.0138 2.12987 79.342 2.12987H82.4966C83.8248 2.12987 84.655 2.62796 85.1531 4.12222L121.181 110.713L154.553 4.12222C155.217 2.62796 156.047 2.12987 157.376 2.12987H158.538C160.364 2.12987 161.028 3.29208 160.53 4.95236L125.332 116.358C124.668 118.018 124.004 118.35 122.676 118.35H119.687C118.359 118.35 117.695 118.018 117.031 116.358L81.0023 9.43515L44.808 116.358C44.1439 118.018 43.4798 118.35 42.1516 118.35H39.163ZM186.977 118.35C185.482 118.35 184.818 117.686 184.818 116.192V4.28825C184.818 2.79399 185.482 2.12987 186.977 2.12987H240.77C242.264 2.12987 242.928 2.79399 242.928 4.28825V5.45045C242.928 6.94472 242.264 7.77486 240.77 7.77486H190.795V54.9271H238.28C239.774 54.9271 240.438 55.5912 240.438 57.0854V58.2476C240.438 59.7419 239.774 60.572 238.28 60.572H190.795V112.705H240.936C242.43 112.705 243.261 113.535 243.261 115.03V116.192C243.261 117.686 242.43 118.35 240.936 118.35H186.977ZM270.195 118.35C268.701 118.35 267.704 117.188 267.704 115.694V4.78634C267.704 3.29208 268.701 2.12987 270.195 2.12987H296.925C298.254 2.12987 299.416 2.62796 299.914 3.79016L330.961 84.8123L362.175 3.79016C362.673 2.62796 363.669 2.12987 364.997 2.12987H391.728C393.222 2.12987 394.384 3.29208 394.384 4.78634V115.694C394.384 117.188 393.222 118.35 391.728 118.35H367.986C366.492 118.35 365.495 117.188 365.495 115.694V57.0854L344.244 116.192C343.746 117.52 342.583 118.35 341.255 118.35H320.834C319.505 118.35 318.177 117.52 317.679 116.192L296.593 57.0854V115.694C296.593 117.188 295.431 118.35 293.937 118.35H270.195ZM471.379 120.508C438.505 120.508 411.443 94.2759 411.443 60.7381C411.443 27.0342 438.505 0.801646 471.379 0.801646C504.253 0.801646 531.315 27.0342 531.315 60.7381C531.315 94.2759 504.253 120.508 471.379 120.508ZM440.664 60.7381C440.664 78.6692 453.946 92.1175 471.379 92.1175C488.812 92.1175 501.928 78.6692 501.928 60.7381C501.928 42.6409 488.812 29.1926 471.379 29.1926C453.946 29.1926 440.664 42.6409 440.664 60.7381ZM112.236 264.35C110.908 264.35 109.58 263.686 109.082 262.358L70.8953 150.952C70.2312 149.292 71.2274 148.13 73.0537 148.13H97.792C99.1202 148.13 100.116 148.628 100.614 150.122L124.855 227.492L148.929 150.122C149.427 148.628 150.589 148.13 151.917 148.13H176.656C178.482 148.13 179.478 149.292 178.814 150.952L140.627 262.358C140.129 263.686 138.635 264.35 137.307 264.35H112.236ZM194.477 264.35C192.982 264.35 191.986 263.188 191.986 261.694V150.786C191.986 149.292 192.982 148.13 194.477 148.13H255.243C256.737 148.13 257.734 149.292 257.734 150.786V171.042C257.734 172.536 256.737 173.698 255.243 173.698H220.875V193.124H253.085C254.579 193.124 255.741 194.286 255.741 195.78V216.202C255.741 217.696 254.579 218.692 253.085 218.692H220.875V238.782H255.077C256.571 238.782 257.734 239.944 257.734 241.438V261.694C257.734 263.188 256.571 264.35 255.077 264.35H194.477ZM309.994 266.342C293.723 266.342 283.429 259.203 277.286 249.574C276.456 248.245 276.456 247.249 277.618 245.921L278.116 245.423C279.61 243.929 281.271 244.759 281.935 245.921C287.248 254.222 295.881 260.697 310.326 260.697C328.257 260.697 338.219 250.57 338.219 236.125C338.219 220.851 326.929 214.043 313.148 207.236L299.036 200.263C286.75 194.452 280.109 185.652 280.109 173.698C280.109 157.594 293.225 146.802 310.326 146.802C323.276 146.802 333.072 152.613 339.381 161.246C341.041 163.239 340.543 164.069 339.215 165.397C337.555 166.891 336.226 166.393 334.898 164.899C328.921 157.095 321.45 152.447 310.326 152.447C297.21 152.447 286.086 159.254 286.086 173.366C286.086 182.996 291.066 189.969 302.19 195.448L316.801 202.753C331.079 209.893 344.196 218.028 344.196 235.959C344.196 253.558 331.412 266.342 309.994 266.342ZM363.408 264.35C361.582 264.35 361.084 263.188 361.748 261.528L402.757 150.122C403.255 148.794 404.418 148.13 405.746 148.13H408.568C409.896 148.13 410.893 148.794 411.391 150.122L452.566 261.528C453.23 263.188 452.566 264.35 450.74 264.35H448.913C447.585 264.35 446.921 263.852 446.423 262.358L436.129 234.299H378.019L367.891 262.358C367.393 263.852 366.563 264.35 365.069 264.35H363.408ZM380.011 228.82H434.137L407.074 154.605L380.011 228.82ZM153.82 409.35C152.325 409.35 151.661 408.686 151.661 407.192V295.288C151.661 293.794 152.325 293.13 153.82 293.13H155.48C156.974 293.13 157.638 293.794 157.638 295.288V403.705H203.628C205.123 403.705 206.119 404.701 206.119 406.196V406.86C206.119 408.354 205.123 409.35 203.628 409.35H153.82ZM234.888 409.35C233.394 409.35 232.73 408.686 232.73 407.192V295.288C232.73 293.794 233.394 293.13 234.888 293.13H288.682C290.176 293.13 290.84 293.794 290.84 295.288V296.45C290.84 297.945 290.176 298.775 288.682 298.775H238.707V345.927H286.191C287.686 345.927 288.35 346.591 288.35 348.085V349.248C288.35 350.742 287.686 351.572 286.191 351.572H238.707V403.705H288.848C290.342 403.705 291.172 404.535 291.172 406.03V407.192C291.172 408.686 290.342 409.35 288.848 409.35H234.888ZM348.988 411.342C332.717 411.342 322.423 404.203 316.28 394.574C315.45 393.245 315.45 392.249 316.612 390.921L317.11 390.423C318.605 388.929 320.265 389.759 320.929 390.921C326.242 399.222 334.875 405.697 349.32 405.697C367.251 405.697 377.213 395.57 377.213 381.125C377.213 365.851 365.923 359.043 352.142 352.236L338.03 345.263C325.744 339.452 319.103 330.652 319.103 318.698C319.103 302.594 332.219 291.802 349.32 291.802C362.27 291.802 372.066 297.613 378.375 306.246C380.035 308.239 379.537 309.069 378.209 310.397C376.549 311.891 375.22 311.393 373.892 309.899C367.915 302.095 360.444 297.447 349.32 297.447C336.204 297.447 325.08 304.254 325.08 318.366C325.08 327.996 330.061 334.969 341.185 340.448L355.795 347.753C370.074 354.893 383.19 363.028 383.19 380.959C383.19 398.558 370.406 411.342 348.988 411.342Z" fill="#C02020"/>
</g>
<defs>
<filter id="filter0_i_648_2426" x="0.810364" y="0.801758" width="530.505" height="413.541" filterUnits="userSpaceOnUse" color-interpolation-filters="sRGB">
<feFlood flood-opacity="0" result="BackgroundImageFix"/>
<feBlend mode="normal" in="SourceGraphic" in2="BackgroundImageFix" result="shape"/>
<feColorMatrix in="SourceAlpha" type="matrix" values="0 0 0 0 0 0 0 0 0 0 0 0 0 0 0 0 0 0 127 0" result="hardAlpha"/>
<feOffset dy="3"/>
<feGaussianBlur stdDeviation="1.5"/>
<feComposite in2="hardAlpha" operator="arithmetic" k2="-1" k3="1"/>
<feColorMatrix type="matrix" values="0 0 0 0 0 0 0 0 0 0 0 0 0 0 0 0 0 0 0.25 0"/>
<feBlend mode="normal" in2="shape" result="effect1_innerShadow_648_2426"/>
</filter>
</defs>
</svg>
