<svg width="2640" height="1520" viewBox="0 0 2640 1520" fill="none" xmlns="http://www.w3.org/2000/svg">
<rect x="40" y="40" width="2560" height="1440" fill="#595959"/>
<rect x="40" y="874" width="2560" height="606" fill="#D9D9D9"/>
<mask id="mask0_215_687" style="mask-type:luminance" maskUnits="userSpaceOnUse" x="1270" y="1378" width="100" height="22">
<path d="M1370 1378H1270V1400H1370V1378Z" fill="white"/>
</mask>
<g mask="url(#mask0_215_687)">
<path d="M1369.44 1387.66L1360.15 1378.55C1359.41 1377.82 1358.2 1377.82 1357.46 1378.55C1356.71 1379.28 1356.71 1380.49 1357.46 1381.22L1363.51 1387.17H1340.35C1339.3 1387.17 1338.45 1388.01 1338.45 1389.04C1338.45 1390.07 1339.3 1390.91 1340.35 1390.91H1363.51L1357.46 1396.82C1356.71 1397.55 1356.71 1398.72 1357.46 1399.46C1358.2 1400.18 1359.41 1400.18 1360.15 1399.45L1369.44 1390.34C1369.82 1389.97 1370 1389.48 1370 1389C1370 1388.51 1369.82 1388.03 1369.44 1387.66Z" fill="#4D4D4D"/>
<path d="M1270.56 1387.66L1279.85 1378.55C1280.59 1377.82 1281.8 1377.82 1282.54 1378.55C1283.29 1379.28 1283.29 1380.49 1282.54 1381.22L1276.49 1387.17H1299.65C1300.7 1387.17 1301.55 1388.01 1301.55 1389.04C1301.55 1390.07 1300.7 1390.91 1299.65 1390.91H1276.49L1282.54 1396.82C1283.29 1397.55 1283.29 1398.72 1282.54 1399.46C1281.8 1400.18 1280.59 1400.18 1279.85 1399.45L1270.56 1390.34C1270.18 1389.97 1270 1389.48 1270 1389C1270 1388.51 1270.18 1388.03 1270.56 1387.66Z" fill="#4D4D4D"/>
</g>
<path d="M258.332 874C255.488 874 253.592 871.788 253.592 868.944V657.856C253.592 655.012 255.488 652.8 258.332 652.8H303.52C306.364 652.8 308.576 655.012 308.576 657.856V825.336H370.196C373.04 825.336 374.936 827.232 374.936 830.076V869.26C374.936 872.104 373.04 874 370.196 874H258.332ZM408.926 874C406.082 874 404.186 871.788 404.186 868.944V657.856C404.186 655.012 406.082 652.8 408.926 652.8H524.582C527.426 652.8 529.322 655.012 529.322 657.856V696.408C529.322 699.252 527.426 701.464 524.582 701.464H459.17V738.436H520.474C523.318 738.436 525.53 740.648 525.53 743.492V782.36C525.53 785.204 523.318 787.1 520.474 787.1H459.17V825.336H524.266C527.11 825.336 529.322 827.548 529.322 830.392V868.944C529.322 871.788 527.11 874 524.266 874H408.926ZM570.012 874C567.168 874 565.272 871.788 565.272 868.944V657.856C565.272 655.012 567.168 652.8 570.012 652.8H615.2C618.044 652.8 620.256 655.012 620.256 657.856V868.944C620.256 871.788 618.044 874 615.2 874H570.012ZM664.133 874C661.289 874 659.393 871.788 659.393 868.944V657.856C659.393 655.012 661.289 652.8 664.133 652.8H736.813C809.493 652.8 849.625 701.78 849.625 763.4C849.625 825.02 809.493 874 736.813 874H664.133ZM714.377 825.336H735.865C773.469 825.336 794.009 804.164 794.009 763.4C794.009 722.636 773.469 701.464 735.865 701.464H714.377V825.336ZM885.703 874C882.859 874 880.963 871.788 880.963 868.944V657.856C880.963 655.012 882.859 652.8 885.703 652.8H1001.36C1004.2 652.8 1006.1 655.012 1006.1 657.856V696.408C1006.1 699.252 1004.2 701.464 1001.36 701.464H935.947V738.436H997.251C1000.1 738.436 1002.31 740.648 1002.31 743.492V782.36C1002.31 785.204 1000.1 787.1 997.251 787.1H935.947V825.336H1001.04C1003.89 825.336 1006.1 827.548 1006.1 830.392V868.944C1006.1 871.788 1003.89 874 1001.04 874H885.703ZM1170.35 874C1167.82 874 1165.92 873.052 1164.66 870.84L1097.03 743.808V868.944C1097.03 871.788 1094.82 874 1091.98 874H1046.79C1043.95 874 1042.05 871.788 1042.05 868.944V657.856C1042.05 655.012 1043.95 652.8 1046.79 652.8H1098.93C1101.46 652.8 1103.35 653.748 1104.62 655.96L1172.56 783.624V657.856C1172.56 655.012 1174.45 652.8 1177.3 652.8H1222.49C1225.33 652.8 1227.54 655.012 1227.54 657.856V868.944C1227.54 871.788 1225.33 874 1222.49 874H1170.35ZM1335.28 877.792C1299.89 877.792 1273.98 860.096 1260.71 842.4C1259.13 840.504 1259.13 837.976 1261.02 835.448L1284.72 808.588C1286.94 806.06 1289.15 805.112 1291.99 807.324C1307.16 821.228 1318.54 827.548 1334.02 827.548C1347.92 827.548 1358.35 823.124 1358.35 810.484C1358.35 799.74 1350.45 796.58 1338.13 791.208L1311.27 778.884C1287.88 768.14 1264.5 751.392 1264.5 715.684C1264.5 673.024 1296.73 650.272 1335.92 650.272C1362.46 650.272 1384.26 660.384 1403.54 679.976C1405.44 681.556 1405.75 684.4 1403.86 686.928L1380.47 715.052C1378.89 717.58 1376.36 718.528 1373.84 716.948C1359.62 705.572 1349.5 700.516 1337.81 700.516C1324.54 700.516 1317.59 707.152 1317.59 716.316C1317.59 727.692 1326.12 730.22 1341.92 737.488L1363.41 746.968C1386.48 757.712 1411.76 772.564 1411.76 810.8C1411.76 858.516 1371.94 877.792 1335.28 877.792ZM1552.23 878.108C1489.97 878.108 1437.52 829.76 1437.52 764.348C1437.52 698.936 1489.97 650.272 1552.23 650.272C1584.14 650.272 1611.32 663.228 1630.91 683.768C1633.12 685.98 1631.86 688.192 1630.28 690.088L1602.15 720.108C1600.57 722.32 1597.73 722.32 1595.83 720.74C1584.14 710.628 1569.61 704.308 1552.23 704.308C1518.73 704.308 1493.13 729.588 1493.13 764.348C1493.13 799.108 1518.73 824.072 1552.23 824.072C1569.61 824.072 1584.14 817.752 1595.83 807.64C1597.73 806.06 1600.57 806.06 1602.47 808.272L1630.28 838.292C1631.86 839.872 1633.12 842.084 1630.91 844.296C1611.32 865.152 1584.14 878.108 1552.23 878.108ZM1667.99 874C1665.14 874 1663.25 871.788 1663.25 868.944V657.856C1663.25 655.012 1665.14 652.8 1667.99 652.8H1713.18C1716.02 652.8 1718.23 655.012 1718.23 657.856V741.596H1788.7V657.856C1788.7 655.012 1790.91 652.8 1793.76 652.8H1838.94C1841.79 652.8 1843.68 655.012 1843.68 657.856V868.944C1843.68 871.788 1841.79 874 1838.94 874H1793.76C1790.91 874 1788.7 871.788 1788.7 868.944V789.944H1718.23V868.944C1718.23 871.788 1716.02 874 1713.18 874H1667.99ZM1874.47 874C1871 874 1869.1 871.788 1870.36 868.628L1943.04 656.592C1943.99 654.064 1946.52 652.8 1949.05 652.8H1996.76C1999.29 652.8 2002.14 654.064 2003.08 656.592L2075.76 868.628C2077.03 871.788 2075.13 874 2071.66 874H2024.57C2022.04 874 2019.83 873.052 2018.88 870.208L2010.67 843.664H1935.14L1926.93 870.208C1925.98 873.052 1924.08 874 1921.56 874H1874.47ZM1950.31 795H1995.5L1973.06 722.636L1950.31 795ZM2107.12 874C2104.27 874 2102.38 871.788 2102.38 868.944V657.856C2102.38 655.012 2104.27 652.8 2107.12 652.8H2221.83C2224.67 652.8 2226.88 655.012 2226.88 657.856V696.408C2226.88 699.252 2224.67 701.464 2221.83 701.464H2157.36V737.172H2217.72C2220.56 737.172 2222.77 739.384 2222.77 742.228V780.78C2222.77 783.624 2220.56 785.836 2217.72 785.836H2157.36V868.944C2157.36 871.788 2155.15 874 2152.31 874H2107.12ZM2305.55 874C2302.71 874 2300.81 871.788 2300.81 868.944V701.464H2259.41C2256.57 701.464 2254.67 699.252 2254.67 696.408V657.856C2254.67 655.012 2256.57 652.8 2259.41 652.8H2396.87C2399.72 652.8 2401.93 655.012 2401.93 657.856V696.408C2401.93 699.252 2399.72 701.464 2396.87 701.464H2355.79V868.944C2355.79 871.788 2353.58 874 2350.74 874H2305.55Z" fill="url(#paint0_linear_215_687)"/>
<rect x="43" y="43" width="49.4141" height="30" rx="3" fill="#444444"/>
<rect x="43.5" y="43.5" width="48.4141" height="29" rx="2.5" stroke="white" stroke-opacity="0.0980392"/>
<path d="M49.9688 61V53H50.9375V56.5625H55.2031V53H56.1719V61H55.2031V57.4219H50.9375V61H49.9688ZM57.9863 61V55H58.9082V61H57.9863ZM58.4551 54C58.2754 54 58.1204 53.9388 57.9902 53.8164C57.8626 53.694 57.7988 53.5469 57.7988 53.375C57.7988 53.2031 57.8626 53.056 57.9902 52.9336C58.1204 52.8112 58.2754 52.75 58.4551 52.75C58.6348 52.75 58.7884 52.8112 58.916 52.9336C59.0462 53.056 59.1113 53.2031 59.1113 53.375C59.1113 53.5469 59.0462 53.694 58.916 53.8164C58.7884 53.9388 58.6348 54 58.4551 54ZM64.8467 56.3437L64.0186 56.5781C63.9665 56.4401 63.8896 56.306 63.7881 56.1758C63.6891 56.043 63.5537 55.9336 63.3818 55.8477C63.21 55.7617 62.9899 55.7187 62.7217 55.7187C62.3545 55.7187 62.0485 55.8034 61.8037 55.9727C61.5615 56.1393 61.4404 56.3516 61.4404 56.6094C61.4404 56.8385 61.5238 57.0195 61.6904 57.1523C61.8571 57.2852 62.1175 57.3958 62.4717 57.4844L63.3623 57.7031C63.8988 57.8333 64.2985 58.0326 64.5615 58.3008C64.8245 58.5664 64.9561 58.9089 64.9561 59.3281C64.9561 59.6719 64.8571 59.9792 64.6592 60.25C64.4639 60.5208 64.1904 60.7344 63.8389 60.8906C63.4873 61.0469 63.0785 61.125 62.6123 61.125C62.0003 61.125 61.4938 60.9922 61.0928 60.7266C60.6917 60.4609 60.4378 60.0729 60.3311 59.5625L61.2061 59.3437C61.2894 59.6667 61.4469 59.9089 61.6787 60.0703C61.9131 60.2318 62.2191 60.3125 62.5967 60.3125C63.0264 60.3125 63.3675 60.2214 63.6201 60.0391C63.8753 59.8542 64.0029 59.6328 64.0029 59.375C64.0029 59.1667 63.93 58.9922 63.7842 58.8516C63.6383 58.7083 63.4144 58.6016 63.1123 58.5312L62.1123 58.2969C61.5628 58.1667 61.1592 57.9648 60.9014 57.6914C60.6462 57.4154 60.5186 57.0703 60.5186 56.6562C60.5186 56.3177 60.6136 56.0182 60.8037 55.7578C60.9964 55.4974 61.2581 55.293 61.5889 55.1445C61.9222 54.9961 62.2998 54.9219 62.7217 54.9219C63.3154 54.9219 63.7816 55.0521 64.1201 55.3125C64.4613 55.5729 64.7035 55.9167 64.8467 56.3437ZM68.9531 55V55.7812H65.8438V55H68.9531ZM66.75 53.5625H67.6719V59.2812C67.6719 59.5417 67.7096 59.737 67.7852 59.8672C67.8633 59.9948 67.9622 60.0807 68.082 60.125C68.2044 60.1667 68.3333 60.1875 68.4688 60.1875C68.5703 60.1875 68.6536 60.1823 68.7188 60.1719C68.7839 60.1589 68.8359 60.1484 68.875 60.1406L69.0625 60.9687C69 60.9922 68.9128 61.0156 68.8008 61.0391C68.6888 61.0651 68.5469 61.0781 68.375 61.0781C68.1146 61.0781 67.8594 61.0221 67.6094 60.9102C67.362 60.7982 67.1563 60.6276 66.9922 60.3984C66.8307 60.1693 66.75 59.8802 66.75 59.5312V53.5625ZM72.7129 61.125C72.1712 61.125 71.696 60.9961 71.2871 60.7383C70.8809 60.4805 70.5632 60.1198 70.334 59.6562C70.1074 59.1927 69.9941 58.651 69.9941 58.0312C69.9941 57.4062 70.1074 56.8607 70.334 56.3945C70.5632 55.9284 70.8809 55.5664 71.2871 55.3086C71.696 55.0508 72.1712 54.9219 72.7129 54.9219C73.2546 54.9219 73.7285 55.0508 74.1348 55.3086C74.5436 55.5664 74.8613 55.9284 75.0879 56.3945C75.3171 56.8607 75.4316 57.4062 75.4316 58.0312C75.4316 58.651 75.3171 59.1927 75.0879 59.6562C74.8613 60.1198 74.5436 60.4805 74.1348 60.7383C73.7285 60.9961 73.2546 61.125 72.7129 61.125ZM72.7129 60.2969C73.1243 60.2969 73.4629 60.1914 73.7285 59.9805C73.9941 59.7695 74.1908 59.4922 74.3184 59.1484C74.446 58.8047 74.5098 58.4323 74.5098 58.0312C74.5098 57.6302 74.446 57.2565 74.3184 56.9102C74.1908 56.5638 73.9941 56.2839 73.7285 56.0703C73.4629 55.8568 73.1243 55.75 72.7129 55.75C72.3014 55.75 71.9629 55.8568 71.6973 56.0703C71.4316 56.2839 71.235 56.5638 71.1074 56.9102C70.9798 57.2565 70.916 57.6302 70.916 58.0312C70.916 58.4323 70.9798 58.8047 71.1074 59.1484C71.235 59.4922 71.4316 59.7695 71.6973 59.9805C71.9629 60.1914 72.3014 60.2969 72.7129 60.2969ZM76.8389 61V55H77.7295V55.9062H77.792C77.9014 55.6094 78.0993 55.3685 78.3857 55.1836C78.6722 54.9987 78.9951 54.9062 79.3545 54.9062C79.4222 54.9062 79.5068 54.9076 79.6084 54.9102C79.71 54.9128 79.7868 54.9167 79.8389 54.9219V55.8594C79.8076 55.8516 79.736 55.8398 79.624 55.8242C79.5146 55.806 79.3988 55.7969 79.2764 55.7969C78.9847 55.7969 78.7243 55.8581 78.4951 55.9805C78.2686 56.1003 78.0889 56.2669 77.9561 56.4805C77.8258 56.6914 77.7607 56.9323 77.7607 57.2031V61H76.8389ZM81.708 63.25C81.5518 63.25 81.4124 63.237 81.29 63.2109C81.1676 63.1875 81.083 63.1641 81.0361 63.1406L81.2705 62.3281C81.4945 62.3854 81.6924 62.4063 81.8643 62.3906C82.0361 62.375 82.1885 62.2982 82.3213 62.1602C82.4567 62.0247 82.5804 61.8047 82.6924 61.5L82.8643 61.0313L80.6455 55H81.6455L83.3018 59.7812H83.3643L85.0205 55H86.0205L83.4736 61.875C83.359 62.1849 83.2171 62.4414 83.0479 62.6445C82.8786 62.8503 82.682 63.0026 82.458 63.1016C82.2367 63.2005 81.9867 63.25 81.708 63.25Z" fill="white"/>
<defs>
<linearGradient id="paint0_linear_215_687" x1="1396" y1="670" x2="1396" y2="886" gradientUnits="userSpaceOnUse">
<stop stop-color="white"/>
<stop offset="1" stop-color="#D9D9D9"/>
</linearGradient>
</defs>
</svg>
