<svg width="256" height="120" viewBox="0 0 256 120" fill="none" xmlns="http://www.w3.org/2000/svg">
<path d="M0 10C0 4.47715 4.47715 0 10 0H256V120H10C4.47715 120 0 115.523 0 110V10Z" fill="#3B80FF"/>
<path d="M82.04 53.312C78.152 53.312 75.368 50.936 75.368 46.232V36.584C75.368 36.368 75.512 36.2 75.728 36.2H79.16C79.376 36.2 79.544 36.368 79.544 36.584V46.208C79.544 48.104 80.384 49.208 82.04 49.208C83.696 49.208 84.536 48.104 84.536 46.208V36.584C84.536 36.368 84.704 36.2 84.92 36.2H88.352C88.568 36.2 88.736 36.368 88.736 36.584V46.232C88.736 50.936 85.928 53.312 82.04 53.312ZM101.31 53C101.118 53 100.974 52.928 100.878 52.76L95.7421 43.112V52.616C95.7421 52.832 95.5741 53 95.3581 53H91.9261C91.7101 53 91.5661 52.832 91.5661 52.616V36.584C91.5661 36.368 91.7101 36.2 91.9261 36.2H95.8861C96.0781 36.2 96.2221 36.272 96.3181 36.44L101.478 46.136V36.584C101.478 36.368 101.622 36.2 101.838 36.2H105.27C105.486 36.2 105.654 36.368 105.654 36.584V52.616C105.654 52.832 105.486 53 105.27 53H101.31ZM113.837 53.288C111.149 53.288 109.181 51.944 108.173 50.6C108.053 50.456 108.053 50.264 108.197 50.072L109.997 48.032C110.165 47.84 110.333 47.768 110.549 47.936C111.701 48.992 112.565 49.472 113.741 49.472C114.797 49.472 115.589 49.136 115.589 48.176C115.589 47.36 114.989 47.12 114.053 46.712L112.013 45.776C110.237 44.96 108.461 43.688 108.461 40.976C108.461 37.736 110.909 36.008 113.885 36.008C115.901 36.008 117.557 36.776 119.021 38.264C119.165 38.384 119.189 38.6 119.045 38.792L117.269 40.928C117.149 41.12 116.957 41.192 116.765 41.072C115.685 40.208 114.917 39.824 114.029 39.824C113.021 39.824 112.493 40.328 112.493 41.024C112.493 41.888 113.141 42.08 114.341 42.632L115.973 43.352C117.725 44.168 119.645 45.296 119.645 48.2C119.645 51.824 116.621 53.288 113.837 53.288ZM122.442 53C122.226 53 122.082 52.832 122.082 52.616V36.584C122.082 36.368 122.226 36.2 122.442 36.2H131.226C131.442 36.2 131.586 36.368 131.586 36.584V39.512C131.586 39.728 131.442 39.896 131.226 39.896H126.258V42.704H130.914C131.13 42.704 131.298 42.872 131.298 43.088V46.04C131.298 46.256 131.13 46.4 130.914 46.4H126.258V49.304H131.202C131.418 49.304 131.586 49.472 131.586 49.688V52.616C131.586 52.832 131.418 53 131.202 53H122.442ZM142.764 53C142.572 53 142.428 52.928 142.332 52.76L139.02 47.336H138.492V52.616C138.492 52.832 138.324 53 138.108 53H134.676C134.46 53 134.316 52.832 134.316 52.616V36.584C134.316 36.368 134.46 36.2 134.676 36.2H139.956C144.084 36.2 146.028 38.456 146.028 41.768C146.028 44.096 145.068 45.92 143.028 46.784L146.652 52.568C146.82 52.832 146.7 53 146.412 53H142.764ZM138.492 43.64H139.86C140.964 43.64 142.044 43.352 142.044 41.768C142.044 40.184 140.964 39.896 139.86 39.896H138.492V43.64ZM149.348 53C149.132 53 148.988 52.832 148.988 52.616V36.584C148.988 36.368 149.132 36.2 149.348 36.2H158.132C158.348 36.2 158.492 36.368 158.492 36.584V39.512C158.492 39.728 158.348 39.896 158.132 39.896H153.164V42.704H157.82C158.036 42.704 158.204 42.872 158.204 43.088V46.04C158.204 46.256 158.036 46.4 157.82 46.4H153.164V49.304H158.108C158.324 49.304 158.492 49.472 158.492 49.688V52.616C158.492 52.832 158.324 53 158.108 53H149.348ZM83.768 81.312C78.968 81.312 75.008 77.64 75.008 72.672C75.008 67.704 78.968 64.008 83.672 64.008C86.144 64.008 88.16 64.944 89.576 66.456C89.792 66.648 89.792 66.888 89.552 67.152L87.56 69.264C87.368 69.48 87.152 69.48 86.984 69.312C86.12 68.592 85.064 68.112 83.696 68.112C81.152 68.112 79.232 70.032 79.232 72.672C79.232 75.312 81.152 77.208 83.912 77.208C86.144 77.208 87.32 76.032 87.44 74.76H83.816C83.6 74.76 83.456 74.616 83.456 74.4V71.448C83.456 71.232 83.6 71.088 83.816 71.088H91.112C91.328 71.088 91.472 71.232 91.472 71.448V73.344C91.472 77.712 88.592 81.312 83.768 81.312ZM94.0824 81C93.8664 81 93.7224 80.832 93.7224 80.616V64.584C93.7224 64.368 93.8664 64.2 94.0824 64.2H102.866C103.082 64.2 103.226 64.368 103.226 64.584V67.512C103.226 67.728 103.082 67.896 102.866 67.896H97.8984V70.704H102.554C102.77 70.704 102.938 70.872 102.938 71.088V74.04C102.938 74.256 102.77 74.4 102.554 74.4H97.8984V77.304H102.842C103.058 77.304 103.226 77.472 103.226 77.688V80.616C103.226 80.832 103.058 81 102.842 81H94.0824ZM111.189 81.288C108.501 81.288 106.533 79.944 105.525 78.6C105.405 78.456 105.405 78.264 105.549 78.072L107.349 76.032C107.517 75.84 107.685 75.768 107.901 75.936C109.053 76.992 109.917 77.472 111.093 77.472C112.149 77.472 112.941 77.136 112.941 76.176C112.941 75.36 112.341 75.12 111.405 74.712L109.365 73.776C107.589 72.96 105.813 71.688 105.813 68.976C105.813 65.736 108.261 64.008 111.237 64.008C113.253 64.008 114.909 64.776 116.373 66.264C116.517 66.384 116.541 66.6 116.397 66.792L114.621 68.928C114.501 69.12 114.309 69.192 114.117 69.072C113.037 68.208 112.269 67.824 111.381 67.824C110.373 67.824 109.845 68.328 109.845 69.024C109.845 69.888 110.493 70.08 111.693 70.632L113.325 71.352C115.077 72.168 116.997 73.296 116.997 76.2C116.997 79.824 113.973 81.288 111.189 81.288ZM127.665 81.312C122.937 81.312 118.953 77.64 118.953 72.672C118.953 67.704 122.937 64.008 127.665 64.008C130.089 64.008 132.153 64.992 133.641 66.552C133.809 66.72 133.713 66.888 133.593 67.032L131.457 69.312C131.337 69.48 131.121 69.48 130.977 69.36C130.089 68.592 128.985 68.112 127.665 68.112C125.121 68.112 123.177 70.032 123.177 72.672C123.177 75.312 125.121 77.208 127.665 77.208C128.985 77.208 130.089 76.728 130.977 75.96C131.121 75.84 131.337 75.84 131.481 76.008L133.593 78.288C133.713 78.408 133.809 78.576 133.641 78.744C132.153 80.328 130.089 81.312 127.665 81.312ZM136.457 81C136.241 81 136.097 80.832 136.097 80.616V64.584C136.097 64.368 136.241 64.2 136.457 64.2H139.889C140.105 64.2 140.273 64.368 140.273 64.584V70.944H145.625V64.584C145.625 64.368 145.793 64.2 146.009 64.2H149.441C149.657 64.2 149.801 64.368 149.801 64.584V80.616C149.801 80.832 149.657 81 149.441 81H146.009C145.793 81 145.625 80.832 145.625 80.616V74.616H140.273V80.616C140.273 80.832 140.105 81 139.889 81H136.457ZM153.145 81C152.929 81 152.785 80.832 152.785 80.616V64.584C152.785 64.368 152.929 64.2 153.145 64.2H156.577C156.793 64.2 156.961 64.368 156.961 64.584V80.616C156.961 80.832 156.793 81 156.577 81H153.145ZM168.165 81.312C163.437 81.312 159.453 77.64 159.453 72.672C159.453 67.704 163.437 64.008 168.165 64.008C170.589 64.008 172.653 64.992 174.141 66.552C174.309 66.72 174.213 66.888 174.093 67.032L171.957 69.312C171.837 69.48 171.621 69.48 171.477 69.36C170.589 68.592 169.485 68.112 168.165 68.112C165.621 68.112 163.677 70.032 163.677 72.672C163.677 75.312 165.621 77.208 168.165 77.208C169.485 77.208 170.589 76.728 171.477 75.96C171.621 75.84 171.837 75.84 171.981 76.008L174.093 78.288C174.213 78.408 174.309 78.576 174.141 78.744C172.653 80.328 170.589 81.312 168.165 81.312ZM176.957 81C176.741 81 176.597 80.832 176.597 80.616V64.584C176.597 64.368 176.741 64.2 176.957 64.2H180.389C180.605 64.2 180.773 64.368 180.773 64.584V70.944H186.125V64.584C186.125 64.368 186.293 64.2 186.509 64.2H189.941C190.157 64.2 190.301 64.368 190.301 64.584V80.616C190.301 80.832 190.157 81 189.941 81H186.509C186.293 81 186.125 80.832 186.125 80.616V74.616H180.773V80.616C180.773 80.832 180.605 81 180.389 81H176.957ZM196.669 81C196.453 81 196.309 80.832 196.309 80.616V67.896H193.165C192.949 67.896 192.805 67.728 192.805 67.512V64.584C192.805 64.368 192.949 64.2 193.165 64.2H203.605C203.821 64.2 203.989 64.368 203.989 64.584V67.512C203.989 67.728 203.821 67.896 203.605 67.896H200.485V80.616C200.485 80.832 200.317 81 200.101 81H196.669ZM206.84 81C206.624 81 206.48 80.832 206.48 80.616V64.584C206.48 64.368 206.624 64.2 206.84 64.2H215.624C215.84 64.2 215.984 64.368 215.984 64.584V67.512C215.984 67.728 215.84 67.896 215.624 67.896H210.656V70.704H215.312C215.528 70.704 215.696 70.872 215.696 71.088V74.04C215.696 74.256 215.528 74.4 215.312 74.4H210.656V77.304H215.6C215.816 77.304 215.984 77.472 215.984 77.688V80.616C215.984 80.832 215.816 81 215.6 81H206.84Z" fill="white"/>
<path d="M59 60H31M39 51L29 60L39 70" stroke="white" stroke-width="4" stroke-linecap="round" stroke-linejoin="round"/>
</svg>
