<svg width="1919" height="1080" viewBox="0 0 1919 1080" fill="none" xmlns="http://www.w3.org/2000/svg">
<rect y="0.450684" width="1919" height="1079.44" fill="#595959"/>
<path d="M163.663 625.704C161.532 625.704 160.11 624.046 160.11 621.914V463.681C160.11 461.549 161.532 459.891 163.663 459.891H197.537C199.669 459.891 201.327 461.549 201.327 463.681V589.225H247.518C249.649 589.225 251.071 590.646 251.071 592.778V622.151C251.071 624.283 249.649 625.704 247.518 625.704H163.663ZM276.55 625.704C274.418 625.704 272.997 624.046 272.997 621.914V463.681C272.997 461.549 274.418 459.891 276.55 459.891H363.246C365.378 459.891 366.8 461.549 366.8 463.681V492.579C366.8 494.711 365.378 496.369 363.246 496.369H314.213V524.084H360.167C362.299 524.084 363.957 525.742 363.957 527.874V557.01C363.957 559.142 362.299 560.563 360.167 560.563H314.213V589.225H363.01C365.141 589.225 366.8 590.883 366.8 593.015V621.914C366.8 624.046 365.141 625.704 363.01 625.704H276.55ZM397.301 625.704C395.169 625.704 393.748 624.046 393.748 621.914V463.681C393.748 461.549 395.169 459.891 397.301 459.891H431.174C433.306 459.891 434.964 461.549 434.964 463.681V621.914C434.964 624.046 433.306 625.704 431.174 625.704H397.301ZM467.855 625.704C465.723 625.704 464.302 624.046 464.302 621.914V463.681C464.302 461.549 465.723 459.891 467.855 459.891H522.337C576.818 459.891 606.901 496.606 606.901 542.797C606.901 588.988 576.818 625.704 522.337 625.704H467.855ZM505.518 589.225H521.626C549.814 589.225 565.211 573.354 565.211 542.797C565.211 512.24 549.814 496.369 521.626 496.369H505.518V589.225ZM633.946 625.704C631.814 625.704 630.393 624.046 630.393 621.914V463.681C630.393 461.549 631.814 459.891 633.946 459.891H720.643C722.774 459.891 724.196 461.549 724.196 463.681V492.579C724.196 494.711 722.774 496.369 720.643 496.369H671.609V524.084H717.563C719.695 524.084 721.353 525.742 721.353 527.874V557.01C721.353 559.142 719.695 560.563 717.563 560.563H671.609V589.225H720.406C722.538 589.225 724.196 590.883 724.196 593.015V621.914C724.196 624.046 722.538 625.704 720.406 625.704H633.946ZM847.316 625.704C845.421 625.704 844 624.993 843.052 623.335L792.361 528.111V621.914C792.361 624.046 790.702 625.704 788.571 625.704H754.697C752.565 625.704 751.144 624.046 751.144 621.914V463.681C751.144 461.549 752.565 459.891 754.697 459.891H793.782C795.677 459.891 797.098 460.601 798.046 462.259L848.974 557.957V463.681C848.974 461.549 850.395 459.891 852.527 459.891H886.4C888.532 459.891 890.19 461.549 890.19 463.681V621.914C890.19 624.046 888.532 625.704 886.4 625.704H847.316ZM970.956 628.546C944.426 628.546 925.002 615.281 915.053 602.016C913.869 600.595 913.869 598.7 915.29 596.805L933.056 576.67C934.714 574.775 936.372 574.065 938.504 575.723C949.874 586.146 958.402 590.883 970.008 590.883C980.431 590.883 988.248 587.567 988.248 578.092C988.248 570.038 982.326 567.669 973.088 563.642L952.953 554.404C935.425 546.35 917.896 533.796 917.896 507.029C917.896 475.051 942.057 457.996 971.43 457.996C991.327 457.996 1007.67 465.576 1022.12 480.262C1023.54 481.446 1023.78 483.578 1022.36 485.473L1004.83 506.555C1003.64 508.45 1001.75 509.161 999.855 507.976C989.195 499.449 981.615 495.659 972.851 495.659C962.902 495.659 957.691 500.633 957.691 507.503C957.691 516.03 964.087 517.925 975.93 523.373L992.038 530.48C1009.33 538.533 1028.28 549.667 1028.28 578.329C1028.28 614.097 998.434 628.546 970.956 628.546ZM1133.58 628.783C1086.91 628.783 1047.59 592.541 1047.59 543.508C1047.59 494.474 1086.91 457.996 1133.58 457.996C1157.5 457.996 1177.87 467.707 1192.56 483.104C1194.22 484.763 1193.27 486.421 1192.09 487.842L1171 510.345C1169.82 512.003 1167.69 512.003 1166.27 510.819C1157.5 503.239 1146.61 498.501 1133.58 498.501C1108.47 498.501 1089.28 517.451 1089.28 543.508C1089.28 569.564 1108.47 588.277 1133.58 588.277C1146.61 588.277 1157.5 583.54 1166.27 575.96C1167.69 574.775 1169.82 574.775 1171.24 576.434L1192.09 598.937C1193.27 600.121 1194.22 601.779 1192.56 603.437C1177.87 619.071 1157.5 628.783 1133.58 628.783ZM1220.35 625.704C1218.22 625.704 1216.8 624.046 1216.8 621.914V463.681C1216.8 461.549 1218.22 459.891 1220.35 459.891H1254.23C1256.36 459.891 1258.02 461.549 1258.02 463.681V526.453H1310.84V463.681C1310.84 461.549 1312.5 459.891 1314.63 459.891H1348.5C1350.64 459.891 1352.06 461.549 1352.06 463.681V621.914C1352.06 624.046 1350.64 625.704 1348.5 625.704H1314.63C1312.5 625.704 1310.84 624.046 1310.84 621.914V562.695H1258.02V621.914C1258.02 624.046 1256.36 625.704 1254.23 625.704H1220.35ZM1375.14 625.704C1372.53 625.704 1371.11 624.046 1372.06 621.677L1426.54 462.733C1427.25 460.838 1429.14 459.891 1431.04 459.891H1466.81C1468.7 459.891 1470.83 460.838 1471.54 462.733L1526.03 621.677C1526.97 624.046 1525.55 625.704 1522.95 625.704H1487.65C1485.76 625.704 1484.1 624.993 1483.39 622.861L1477.23 602.964H1420.62L1414.46 622.861C1413.75 624.993 1412.32 625.704 1410.43 625.704H1375.14ZM1431.99 566.485H1465.86L1449.04 512.24L1431.99 566.485ZM1549.53 625.704C1547.4 625.704 1545.97 624.046 1545.97 621.914V463.681C1545.97 461.549 1547.4 459.891 1549.53 459.891H1635.51C1637.65 459.891 1639.3 461.549 1639.3 463.681V492.579C1639.3 494.711 1637.65 496.369 1635.51 496.369H1587.19V523.136H1632.43C1634.57 523.136 1636.22 524.795 1636.22 526.926V555.825C1636.22 557.957 1634.57 559.615 1632.43 559.615H1587.19V621.914C1587.19 624.046 1585.53 625.704 1583.4 625.704H1549.53ZM1698.27 625.704C1696.14 625.704 1694.72 624.046 1694.72 621.914V496.369H1663.69C1661.56 496.369 1660.14 494.711 1660.14 492.579V463.681C1660.14 461.549 1661.56 459.891 1663.69 459.891H1766.73C1768.86 459.891 1770.52 461.549 1770.52 463.681V492.579C1770.52 494.711 1768.86 496.369 1766.73 496.369H1735.94V621.914C1735.94 624.046 1734.28 625.704 1732.15 625.704H1698.27Z" fill="url(#paint0_linear_2259_357)"/>
<rect y="625.624" width="1919" height="454.263" fill="#D9D9D9"/>
<defs>
<linearGradient id="paint0_linear_2259_357" x1="1016.47" y1="472.704" x2="1016.47" y2="634.619" gradientUnits="userSpaceOnUse">
<stop stop-color="white"/>
<stop offset="1" stop-color="#D9D9D9"/>
</linearGradient>
</defs>
</svg>
