<?xml version="1.0" encoding="UTF-8"?>
<svg width="24px" height="24px" viewBox="0 0 24 24" version="1.1" xmlns="http://www.w3.org/2000/svg">
  <g stroke="none" stroke-width="1" fill="none" fill-rule="evenodd">
    <path d="M12,2 C14.717,2 15.056,2.01 16.122,2.06 C17.187,2.11 17.912,2.277 18.55,2.525 C19.21,2.779 19.766,3.123 20.322,3.678 C20.8305,4.1779 21.224,4.78259 21.475,5.45 C21.722,6.087 21.89,6.813 21.94,7.878 C21.987,8.944 22,9.283 22,12 C22,14.717 21.99,15.056 21.94,16.122 C21.89,17.187 21.722,17.912 21.475,18.55 C21.2247,19.2178 20.8311,19.8226 20.322,20.322 C19.822,20.8303 19.2173,21.2238 18.55,21.475 C17.913,21.722 17.187,21.89 16.122,21.94 C15.056,21.987 14.717,22 12,22 C9.283,22 8.944,21.99 7.878,21.94 C6.813,21.89 6.088,21.722 5.45,21.475 C4.78233,21.2245 4.17753,20.8309 3.678,20.322 C3.16941,19.8222 2.77593,19.2175 2.525,18.55 C2.277,17.913 2.11,17.187 2.06,16.122 C2.013,15.056 2,14.717 2,12 C2,9.283 2.01,8.944 2.06,7.878 C2.11,6.812 2.277,6.088 2.525,5.45 C2.77524,4.78218 3.1688,4.17732 3.678,3.678 C4.17767,3.16923 4.78243,2.77573 5.45,2.525 C6.088,2.277 6.812,2.11 7.878,2.06 C8.944,2.013 9.283,2 12,2 Z M12,4 C9.284,4 8.944,4.012 7.877,4.06 C6.985,4.103 6.458,4.264 6.108,4.397 C5.64,4.57 5.305,4.778 4.955,5.13 C4.609,5.476 4.321,5.904 4.168,6.38 C4.036,6.73 3.874,7.257 3.832,8.148 C3.784,9.215 3.772,9.556 3.772,12.272 C3.772,14.988 3.784,15.329 3.832,16.396 C3.875,17.288 4.036,17.815 4.168,18.165 C4.32,18.634 4.608,19.062 4.955,19.407 C5.3,19.755 5.729,20.043 6.108,20.195 C6.458,20.327 6.985,20.489 7.877,20.532 C8.944,20.58 9.284,20.592 12,20.592 C14.716,20.592 15.057,20.58 16.124,20.532 C17.015,20.489 17.542,20.327 17.892,20.195 C18.36,20.022 18.695,19.814 19.045,19.462 C19.392,19.115 19.68,18.686 19.833,18.21 C19.965,17.86 20.127,17.333 20.169,16.442 C20.217,15.375 20.229,15.034 20.229,12.317 C20.229,9.6 20.217,9.26 20.169,8.193 C20.126,7.301 19.965,6.774 19.833,6.424 C19.66,5.955 19.452,5.621 19.1,5.271 C18.755,4.924 18.326,4.636 17.85,4.483 C17.5,4.351 16.973,4.189 16.082,4.147 C15.026,4.099 14.685,4.088 11.957,4.088 L12,4 Z" fill="#FFFFFF" fill-rule="nonzero"></path>
    <path d="M12,7 C9.23857625,7 7,9.23857625 7,12 C7,14.7614237 9.23857625,17 12,17 C14.7614237,17 17,14.7614237 17,12 C17,9.23857625 14.7614237,7 12,7 Z M12,15 C10.3431458,15 9,13.6568542 9,12 C9,10.3431458 10.3431458,9 12,9 C13.6568542,9 15,10.3431458 15,12 C15,13.6568542 13.6568542,15 12,15 Z" fill="#FFFFFF" fill-rule="nonzero"></path>
    <circle fill="#FFFFFF" cx="17.5" cy="6.5" r="1.5"></circle>
  </g>
</svg>
