<svg width="2121" height="275" viewBox="0 0 2121 275" fill="none" xmlns="http://www.w3.org/2000/svg">
<path d="M6.3293 270C2.9012 270 0.615801 267.334 0.615801 263.906V9.4644C0.615801 6.0363 2.9012 3.36999 6.3293 3.36999H60.798C64.2261 3.36999 66.8924 6.0363 66.8924 9.4644V211.341H141.168C144.596 211.341 146.881 213.627 146.881 217.055V264.286C146.881 267.715 144.596 270 141.168 270H6.3293ZM187.852 270C184.424 270 182.138 267.334 182.138 263.906V9.4644C182.138 6.0363 184.424 3.36999 187.852 3.36999H327.261C330.689 3.36999 332.975 6.0363 332.975 9.4644V55.9342C332.975 59.3623 330.689 62.0286 327.261 62.0286H248.415V106.594H322.31C325.738 106.594 328.404 109.26 328.404 112.688V159.539C328.404 162.967 325.738 165.252 322.31 165.252H248.415V211.341H326.88C330.309 211.341 332.975 214.008 332.975 217.436V263.906C332.975 267.334 330.309 270 326.88 270H187.852ZM430.015 270C426.587 270 424.302 267.334 424.302 263.906V62.0286H374.404C370.976 62.0286 368.69 59.3623 368.69 55.9342V9.4644C368.69 6.0363 370.976 3.36999 374.404 3.36999H540.095C543.523 3.36999 546.19 6.0363 546.19 9.4644V55.9342C546.19 59.3623 543.523 62.0286 540.095 62.0286H490.578V263.906C490.578 267.334 487.912 270 484.484 270H430.015ZM607.44 57.8387C604.012 57.8387 602.488 56.696 599.822 53.2679L569.35 10.2262C566.684 6.79809 568.969 3.36999 573.159 3.36999H611.249C614.677 3.36999 616.201 4.51269 618.867 7.9408L648.958 50.9825C651.624 54.4106 649.72 57.8387 645.53 57.8387H607.44ZM762.874 274.571C720.213 274.571 688.979 253.24 672.982 231.91C671.077 229.625 671.077 226.577 673.363 223.53L701.93 191.154C704.596 188.106 707.263 186.964 710.691 189.63C728.974 206.39 742.686 214.008 761.35 214.008C778.11 214.008 790.68 208.675 790.68 193.439C790.68 180.488 781.157 176.679 766.302 170.204L733.926 155.349C705.739 142.398 677.552 122.211 677.552 79.1691C677.552 27.7476 716.404 0.322803 763.636 0.322803C795.631 0.322803 821.914 12.5116 845.148 36.1274C847.434 38.0319 847.815 41.46 845.529 44.5072L817.343 78.4073C815.438 81.4545 812.391 82.5972 809.344 80.6927C792.203 66.9803 780.015 60.8859 765.921 60.8859C749.923 60.8859 741.544 68.8848 741.544 79.9309C741.544 93.6433 751.828 96.6905 770.873 105.451L796.774 116.878C824.58 129.829 855.052 147.731 855.052 193.82C855.052 251.336 807.058 274.571 762.874 274.571ZM972.714 270C969.286 270 967.001 267.334 967.001 263.906V9.4644C967.001 6.0363 969.286 3.36999 972.714 3.36999H1034.04C1037.09 3.36999 1039.75 4.51269 1040.9 7.17898L1112.12 193.058L1183.73 7.17898C1184.88 4.51269 1187.16 3.36999 1190.21 3.36999H1251.53C1254.96 3.36999 1257.63 6.0363 1257.63 9.4644V263.906C1257.63 267.334 1254.96 270 1251.53 270H1197.06C1193.64 270 1191.35 267.334 1191.35 263.906V129.448L1142.6 265.048C1141.45 268.095 1138.79 270 1135.74 270H1088.89C1085.84 270 1082.79 268.095 1081.65 265.048L1033.28 129.448V263.906C1033.28 267.334 1030.61 270 1027.18 270H972.714ZM1434.27 274.952C1358.85 274.952 1296.76 214.769 1296.76 137.828C1296.76 60.505 1358.85 0.322803 1434.27 0.322803C1509.69 0.322803 1571.77 60.505 1571.77 137.828C1571.77 214.769 1509.69 274.952 1434.27 274.952ZM1363.8 137.828C1363.8 178.965 1394.27 209.818 1434.27 209.818C1474.26 209.818 1504.35 178.965 1504.35 137.828C1504.35 96.3096 1474.26 65.4567 1434.27 65.4567C1394.27 65.4567 1363.8 96.3096 1363.8 137.828ZM1673.8 270C1670.75 270 1667.71 268.476 1666.56 265.429L1578.96 9.84529C1577.43 6.0363 1579.72 3.36999 1583.91 3.36999H1640.66C1643.71 3.36999 1645.99 4.51269 1647.14 7.9408L1702.75 185.44L1757.98 7.9408C1759.12 4.51269 1761.79 3.36999 1764.83 3.36999H1821.59C1825.78 3.36999 1828.06 6.0363 1826.54 9.84529L1738.93 265.429C1737.79 268.476 1734.36 270 1731.32 270H1673.8ZM1862.47 270C1859.04 270 1856.76 267.334 1856.76 263.906V9.4644C1856.76 6.0363 1859.04 3.36999 1862.47 3.36999H2001.88C2005.31 3.36999 2007.6 6.0363 2007.6 9.4644V55.9342C2007.6 59.3623 2005.31 62.0286 2001.88 62.0286H1923.04V106.594H1996.93C2000.36 106.594 2003.02 109.26 2003.02 112.688V159.539C2003.02 162.967 2000.36 165.252 1996.93 165.252H1923.04V211.341H2001.5C2004.93 211.341 2007.6 214.008 2007.6 217.436V263.906C2007.6 267.334 2004.93 270 2001.5 270H1862.47ZM2064.64 183.155C2061.21 183.155 2058.17 180.869 2058.17 177.441L2051.31 9.4644C2051.31 6.0363 2053.98 3.36999 2057.4 3.36999H2110.35C2113.78 3.36999 2116.44 6.0363 2116.44 9.4644L2109.21 177.441C2109.21 180.869 2107.68 183.155 2103.11 183.155H2064.64ZM2047.12 238.385C2047.12 217.817 2063.5 201.057 2084.07 201.057C2104.26 201.057 2120.63 217.817 2120.63 238.385C2120.63 258.573 2104.26 274.952 2084.07 274.952C2063.5 274.952 2047.12 258.573 2047.12 238.385Z" fill="white"/>
</svg>
