<?xml version="1.0" encoding="UTF-8"?>
<svg width="24px" height="24px" viewBox="0 0 24 24" version="1.1" xmlns="http://www.w3.org/2000/svg">
  <g stroke="none" stroke-width="1" fill="none" fill-rule="evenodd">
    <path d="M19,3 L5,3 C3.895,3 3,3.895 3,5 L3,19 C3,20.105 3.895,21 5,21 L19,21 C20.105,21 21,20.105 21,19 L21,5 C21,3.895 20.105,3 19,3 Z M9,17 L7,17 L7,10 L9,10 L9,17 Z M8,8.85 C7.339,8.85 6.8,8.311 6.8,7.65 C6.8,6.989 7.339,6.45 8,6.45 C8.661,6.45 9.2,6.989 9.2,7.65 C9.2,8.311 8.661,8.85 8,8.85 Z M18,17 L16,17 L16,13.501 C16,10.501 13,10.701 13,13.501 L13,17 L11,17 L11,10 L13,10 L13,11.501 C14.381,9.101 18,8.951 18,13.001 L18,17 Z" fill="#FFFFFF"></path>
  </g>
</svg>
