<svg width="175" height="20" viewBox="0 0 175 20" fill="none" xmlns="http://www.w3.org/2000/svg">
<path d="M2.93171 20H13.4683V17.9296H11.6799C11.2266 17.9296 10.9755 17.7686 10.706 17.4386C10.4753 17.1529 10.4753 16.8028 10.4753 16.2917V6.47887H11.3042C12.0759 6.47887 12.7211 6.62374 13.1988 7.01207C13.6969 7.44266 13.946 8.32193 13.946 8.97787V11.1509H16.3775V4.49095H0V11.1509H2.45194V8.97787C2.45194 8.32193 2.68059 7.44266 3.18282 7.01207C3.65647 6.62374 4.32202 6.47887 5.09374 6.47887H5.92262V16.2917C5.92262 16.8028 5.9022 17.1529 5.6715 17.4386C5.42243 17.7686 5.15498 17.9296 4.69767 17.9296H2.93171V20ZM39.2391 17.9296V20H47.8873V17.9296H47.0788C46.6399 17.9296 46.3275 17.7686 46.0988 17.4588C45.8722 17.1932 45.8498 16.7626 45.8498 16.2917V15.002L48.2404 12.9738L50.7353 16.5775C50.9415 16.9054 51.1293 17.2555 50.9415 17.6016C50.7965 17.8692 50.527 17.9718 50.1942 17.9718H49.5899V20H58.4034V17.9517H58.0543C57.5929 17.9517 57.303 17.8893 56.9274 17.6237C56.5783 17.3984 56.2414 17.0302 55.9127 16.5775L51.3804 10.2274L54.747 7.44266C55.0552 7.17505 55.3717 6.96982 55.6616 6.80684C55.9515 6.66398 56.2414 6.58149 56.617 6.58149H57.6358V4.49095H49.9635V6.58149H50.5883C50.821 6.58149 51.0252 6.76459 51.0905 6.95171C51.2538 7.27767 50.9639 7.58551 50.7148 7.79074L45.8498 12.1328V8.20121C45.8498 7.74849 45.8498 7.29779 46.0764 7.03219C46.3071 6.72435 46.6399 6.56137 47.0788 6.56137H47.8873V4.49095H39.2391V6.56137H40.1538C40.5886 6.56137 40.901 6.74447 41.1296 7.05433C41.3583 7.31992 41.3787 7.74849 41.3787 8.20121V16.2917C41.3787 16.7425 41.3583 17.1529 41.1296 17.4386C40.901 17.7465 40.5886 17.9296 40.1538 17.9296H39.2391ZM64.6547 17.9296V20H75.1913V17.9296H73.4029C72.9497 17.9296 72.6986 17.7686 72.4291 17.4386C72.1984 17.1529 72.1984 16.8028 72.1984 16.2917V6.47887H73.0272C73.799 6.47887 74.4441 6.62374 74.9218 7.01207C75.42 7.44266 75.6691 8.32193 75.6691 8.97787V11.1509H78.1006V4.49095H61.723V11.1509H64.1729V8.97787C64.1729 8.32193 64.4036 7.44266 64.9038 7.01207C65.3795 6.62374 66.0451 6.47887 66.8147 6.47887H67.6456V16.2917C67.6456 16.8028 67.6252 17.1529 67.3945 17.4386C67.1455 17.7686 66.8739 17.9296 66.4207 17.9296H64.6547ZM82.0959 17.1308V20H97.1036V13.8753H94.5434V15.0644C94.5434 15.7183 94.423 16.5372 93.8003 17.1308C93.1143 17.7686 92.2814 17.9296 91.6383 17.9296H87.3571L97.0607 7.25754V4.49095H82.198V10.6801H84.6336V9.42857C84.6336 8.77263 84.8807 7.97585 85.5258 7.4004C86.0648 6.88934 87.3142 6.56137 87.9573 6.56137H91.7404L82.0959 17.1308ZM101.021 17.9296V20H116.858V13.6901H114.408V15.6358C114.408 16.332 114.032 16.9477 113.597 17.2958C113.201 17.6439 112.493 17.9296 111.725 17.9296H108.814C108.379 17.9296 108.042 17.8089 107.795 17.501C107.569 17.2334 107.589 16.7626 107.589 16.2917V13.1569H108.939C109.398 13.1569 109.625 13.2998 109.894 13.5875C110.145 13.8551 110.164 14.1831 110.164 14.5714V15.5533H112.16V8.81489H110.164V9.79879C110.164 10.2495 110.082 10.5976 109.855 10.8431C109.586 11.0885 109.373 11.1911 108.979 11.1911H107.589V8.20121C107.589 7.74849 107.607 7.31992 107.838 7.05433C108.067 6.74447 108.379 6.56137 108.814 6.56137H111.476C112.326 6.56137 113.095 6.8672 113.555 7.29779C114.071 7.77062 114.365 8.42455 114.365 9.40845V10.5775H116.858V4.49095H101.021V6.56137H101.936C102.371 6.56137 102.681 6.74447 102.912 7.05433C103.143 7.31992 103.161 7.74849 103.161 8.20121V16.2917C103.161 16.7425 103.143 17.1529 102.912 17.4386C102.681 17.7465 102.371 17.9296 101.936 17.9296H101.021ZM120.396 17.9296V20H129.25V17.9296H128.334C127.88 17.9296 127.609 17.7686 127.36 17.4386C127.129 17.1529 127.109 16.8028 127.109 16.2917V8.20121C127.109 7.666 127.129 7.31992 127.36 7.05433C127.609 6.72435 127.88 6.56137 128.334 6.56137H129.25V4.49095H120.396V6.56137H121.311C121.766 6.56137 122.035 6.72435 122.286 7.05433C122.517 7.31992 122.538 7.666 122.538 8.20121V16.2917C122.538 16.8028 122.517 17.1529 122.286 17.4386C122.035 17.7686 121.766 17.9296 121.311 17.9296H120.396ZM135.459 17.9296V20H145.997V17.9296H144.211C143.754 17.9296 143.503 17.7686 143.233 17.4386C143.006 17.1529 143.006 16.8028 143.006 16.2917V6.47887H143.835C144.607 6.47887 145.248 6.62374 145.726 7.01207C146.228 7.44266 146.477 8.32193 146.477 8.97787V11.1509H148.909V4.49095H132.531V11.1509H134.981V8.97787C134.981 8.32193 135.212 7.44266 135.71 7.01207C136.188 6.62374 136.853 6.47887 137.623 6.47887H138.454V16.2917C138.454 16.8028 138.433 17.1529 138.203 17.4386C137.954 17.7686 137.682 17.9296 137.229 17.9296H135.459ZM168.685 0.00402414L160.45 6.60966H165.537L171.109 2.13883H175V0.00402414H168.685ZM158.177 6.60765L166.419 0H161.334L155.756 4.47284H151.867V6.60765H158.177ZM33.9474 16.5775L29.2517 4.49095H24.5541L19.7911 16.8652C19.691 17.1932 19.5012 17.4588 19.25 17.664C19.0459 17.829 18.8581 17.9296 18.4007 17.9296H17.8209V20H24.699V17.9296H23.6374C23.2617 17.9296 22.9535 17.8893 22.7452 17.6016C22.537 17.2958 22.5962 16.9678 22.7023 16.6398L23.0984 15.6358H28.8945L29.3334 16.7626C29.4579 17.1308 29.3334 17.501 29.021 17.7465C28.8353 17.9115 28.6046 17.9296 28.3351 17.9296H27.2551V20H36.089V17.9296H35.5684C35.1539 17.9296 34.864 17.7867 34.5517 17.5211C34.2189 17.2757 34.0331 16.8249 33.9474 16.5775ZM23.8681 13.5252L26.0301 7.833L28.1513 13.5252H23.8681Z" fill="white"/>
</svg>
