<svg width="46" height="31" viewBox="0 0 46 31" fill="none" xmlns="http://www.w3.org/2000/svg">
<path d="M1.28183 27.1426C8.99788 27.4305 14.1758 18.9846 10.5208 18.8886C5.44444 18.8886 0.977247 14.7616 0.977247 9.67491C0.977248 4.68415 5.34291 0.557177 10.8254 0.557177C16.0033 0.557178 21.4857 4.01232 21.4857 12.4582C21.4857 25.415 8.6933 31.0776 1.28183 30.5017L1.28183 27.1426ZM45.9537 12.4582C45.9537 25.415 33.1613 31.0776 25.7498 30.5017L25.7498 27.1426C33.4659 27.4305 38.6438 18.9846 34.9888 18.8886C29.9125 18.8886 25.4453 14.7616 25.4453 9.67491C25.4453 4.68415 29.8109 0.557179 35.2934 0.557179C40.4713 0.55718 45.9537 4.01232 45.9537 12.4582Z" fill="#595959"/>
</svg>
