<svg width="166" height="153" viewBox="0 0 166 153" fill="none" xmlns="http://www.w3.org/2000/svg">
<g filter="url(#filter0_i_1991_2327)">
<path d="M52.2604 0.25293C48.1778 0.25293 44.5589 0.990783 41.4037 2.46774C38.2485 3.94469 35.4761 5.87983 33.0851 8.27567L7.79381 33.5924C5.38536 36.0044 3.48428 38.9246 2.09057 42.3517C0.696856 45.7788 0 49.5579 0 53.6879C0 57.5482 0.689376 61.1151 2.06688 64.3886C3.44439 67.6634 5.32054 70.455 7.69284 72.7647L17.743 82.8299L65.8448 34.7709L86.8128 55.683C88.2177 57.0888 89.7036 58.1625 91.2719 58.9041C92.8401 59.6457 94.6938 60.0165 96.833 60.0165C99.7139 60.0165 102.307 58.8629 104.609 56.5569C106.913 54.251 108.064 51.6541 108.064 48.7689C108.064 47.1683 107.677 45.5653 106.903 43.961C106.129 42.3567 104.972 40.7824 103.433 39.2417L72.5902 8.5803C69.6581 5.71254 66.6214 3.6076 63.4787 2.26548C60.336 0.924612 56.5962 0.25293 52.2604 0.25293ZM108.444 0.25293C104.267 0.25293 100.555 0.940843 97.3117 2.31542C94.0668 3.69125 91.1771 5.61391 88.6415 8.08465L85.8616 10.9836L108.804 33.9619C111.087 36.3153 112.803 38.5651 113.953 40.7087C115.103 42.8536 115.678 45.5353 115.678 48.7527C115.678 54.0837 113.86 58.5595 110.223 62.1813C106.587 65.8032 102.127 67.6135 96.8455 67.6135C93.5058 67.6135 90.59 67.0417 88.098 65.8993C85.6048 64.7557 83.2088 63.0328 80.9088 60.7293L65.6154 45.4267L27.3394 83.8762C26.3671 84.85 25.5992 85.9848 25.0369 87.2808C24.4747 88.5767 24.193 89.8851 24.193 91.206C24.193 93.3034 24.9746 95.135 26.5366 96.6993C28.0999 98.2649 29.9274 99.0477 32.023 99.0477C33.4005 99.0477 34.6957 98.808 35.9086 98.3298C37.1216 97.8517 38.1126 97.2274 38.8831 96.4571L68.414 66.7807L73.772 72.1604L44.2547 101.837C43.2911 102.801 42.6017 103.856 42.1878 104.998C41.7739 106.142 41.567 107.339 41.567 108.592C41.567 110.699 42.3274 112.533 43.8471 114.093C45.3667 115.654 47.1792 116.434 49.2823 116.434C50.7358 116.434 52.0697 116.158 53.2827 115.609C54.4956 115.058 55.4493 114.436 56.1424 113.742L85.5437 84.3968L90.9154 89.7765L60.7112 120.026C59.7301 121.008 59.0345 122.055 58.6244 123.163C58.2143 124.272 58.0098 125.483 58.0098 126.795C58.0098 128.893 58.7914 130.724 60.3534 132.289C61.9167 133.854 63.7442 134.637 65.8398 134.637C67.0914 134.637 68.3043 134.451 69.4799 134.079C70.6554 133.707 71.7288 133.034 72.7011 132.06L103.034 101.696L108.392 107.177L78.0728 137.426C77.1004 138.4 76.3375 139.491 75.784 140.702C75.2305 141.913 74.9537 143.149 74.9537 144.411C74.9537 146.644 75.7204 148.509 77.2537 150.007C78.7871 151.504 80.6682 152.252 82.8984 152.252C84.15 152.252 85.4053 152.061 86.6657 151.675C87.926 151.289 89.0342 150.619 89.9879 149.662L155.486 83.9648C158.588 80.8573 161.117 77.2655 163.069 73.1892C165.023 69.1116 166 64.7894 166 60.2237C166 55.5843 165.161 51.2534 163.481 47.232C161.803 43.2107 159.442 39.6762 156.399 36.6287L128.076 8.27692C125.559 5.75623 122.576 3.78863 119.129 2.3741C115.681 0.95957 112.119 0.25293 108.444 0.25293Z" fill="#C02020"/>
</g>
<defs>
<filter id="filter0_i_1991_2327" x="0" y="0.25293" width="166" height="157.999" filterUnits="userSpaceOnUse" color-interpolation-filters="sRGB">
<feFlood flood-opacity="0" result="BackgroundImageFix"/>
<feBlend mode="normal" in="SourceGraphic" in2="BackgroundImageFix" result="shape"/>
<feColorMatrix in="SourceAlpha" type="matrix" values="0 0 0 0 0 0 0 0 0 0 0 0 0 0 0 0 0 0 127 0" result="hardAlpha"/>
<feOffset dy="6"/>
<feGaussianBlur stdDeviation="3"/>
<feComposite in2="hardAlpha" operator="arithmetic" k2="-1" k3="1"/>
<feColorMatrix type="matrix" values="0 0 0 0 0 0 0 0 0 0 0 0 0 0 0 0 0 0 0.25 0"/>
<feBlend mode="normal" in2="shape" result="effect1_innerShadow_1991_2327"/>
</filter>
</defs>
</svg>
