<svg width="32" height="58" viewBox="0 0 32 58" fill="none" xmlns="http://www.w3.org/2000/svg">
<g clip-path="url(#clip0_648_2392)">
<path d="M15.6315 56.1968V57.1558C7.00062 57.1558 0 50.1552 0 41.5242V15.6315C0 7.00062 7.00062 0 15.6315 0C24.2624 0 31.2631 7.00062 31.2631 15.6315V41.5242C31.2631 50.1552 24.2624 57.1558 15.6315 57.1558V55.2378C19.4195 55.2378 22.8431 53.7034 25.3269 51.2196C27.8107 48.7359 29.3451 45.3123 29.3451 41.5242V15.6315C29.3451 11.8435 27.8107 8.41993 25.3269 5.93615C22.8431 3.45236 19.4195 1.91798 15.6315 1.91798C11.8435 1.91798 8.41993 3.45236 5.93615 5.93615C3.45236 8.41993 1.91798 11.8435 1.91798 15.6315V41.5242C1.91798 45.3123 3.45236 48.7359 5.93615 51.2196C8.41993 53.7034 11.8435 55.2378 15.6315 55.2378V56.1968Z" fill="#F0EFEF"/>
<path d="M15.6316 39.2031C17.2619 39.2031 18.5757 40.4978 18.5757 42.0897C18.5757 43.6816 17.2619 44.9762 15.6316 44.9762C14.0013 44.9762 12.6875 43.6816 12.6875 42.0897C12.6875 40.4978 14.0013 39.2031 15.6316 39.2031Z" fill="#F0EFEF"/>
</g>
<defs>
<clipPath id="clip0_648_2392">
<rect width="31.2631" height="57.1558" fill="white"/>
</clipPath>
</defs>
</svg>
