<svg width="206" height="235" viewBox="0 0 206 235" fill="none" xmlns="http://www.w3.org/2000/svg">
<g filter="url(#filter0_i_1971_1088)">
<path d="M57.1741 114.562L40.2318 96.5231C39.5201 95.7662 38.6809 95.3877 37.7142 95.3877C37.6742 95.3877 37.6327 95.3877 37.5927 95.3892C36.5737 95.4215 35.6946 95.8323 34.9537 96.6216C34.2744 97.4109 33.9193 98.3294 33.8886 99.3817C33.8578 100.433 34.2129 101.354 34.9537 102.142L45.5068 113.379H4.21991C3.17014 113.379 2.29098 113.758 1.58089 114.513C0.870795 115.269 0.515747 116.206 0.515747 117.322C0.515747 118.439 0.870795 119.376 1.58089 120.132C2.29098 120.887 3.17014 121.266 4.21991 121.266H45.5083L34.9553 132.505C34.2144 133.292 33.8594 134.212 33.8901 135.265C33.9209 136.316 34.2759 137.236 34.9553 138.025C35.6961 138.813 36.5753 139.223 37.5943 139.257C37.6327 139.257 37.6711 139.259 37.708 139.259H37.7234C38.6871 139.257 39.5232 138.879 40.2333 138.123L57.1741 120.083C57.5445 119.689 57.8073 119.261 57.961 118.801C58.1147 118.341 58.1931 117.849 58.1931 117.322C58.1931 116.796 58.1163 116.304 57.961 115.844C57.8073 115.384 57.5445 114.956 57.1741 114.562Z" fill="#C02020"/>
<path d="M75.4029 31.3527V203.295C75.4029 209.497 80.4427 214.544 86.6384 214.544H104.312V200.951H88.9807V33.6974H104.312V20.1045H86.6384C80.4427 20.1045 75.4029 25.1509 75.4029 31.3527Z" fill="#C02020"/>
<path d="M194.407 21.7952L121.711 0.802006C115.721 -0.927299 110.866 3.02672 110.866 9.63623V225.013C110.866 231.623 115.721 235.577 121.711 233.847L194.407 212.854C200.396 211.123 205.252 204.363 205.252 197.755V36.8928C205.252 30.2848 200.396 23.5245 194.407 21.7952ZM129.581 127.975C125.507 127.975 122.208 123.206 122.208 117.324C122.208 111.442 125.507 106.673 129.581 106.673C133.654 106.673 136.955 111.441 136.955 117.324C136.955 123.206 133.654 127.975 129.581 127.975Z" fill="#C02020"/>
</g>
<defs>
<filter id="filter0_i_1971_1088" x="0.515747" y="0.395996" width="204.736" height="239.857" filterUnits="userSpaceOnUse" color-interpolation-filters="sRGB">
<feFlood flood-opacity="0" result="BackgroundImageFix"/>
<feBlend mode="normal" in="SourceGraphic" in2="BackgroundImageFix" result="shape"/>
<feColorMatrix in="SourceAlpha" type="matrix" values="0 0 0 0 0 0 0 0 0 0 0 0 0 0 0 0 0 0 127 0" result="hardAlpha"/>
<feOffset dy="6"/>
<feGaussianBlur stdDeviation="3"/>
<feComposite in2="hardAlpha" operator="arithmetic" k2="-1" k3="1"/>
<feColorMatrix type="matrix" values="0 0 0 0 0 0 0 0 0 0 0 0 0 0 0 0 0 0 0.25 0"/>
<feBlend mode="normal" in2="shape" result="effect1_innerShadow_1971_1088"/>
</filter>
</defs>
</svg>
