<svg width="192" height="208" viewBox="0 0 192 208" fill="none" xmlns="http://www.w3.org/2000/svg">
<g filter="url(#filter0_i_1971_1079)">
<path d="M191.715 131.95L181.008 81.6492C180.52 79.4181 179.38 77.5856 177.592 76.1517C175.802 74.7177 173.769 74 171.493 74H20.5071C18.2309 74 16.1969 74.7163 14.4082 76.1517C12.6196 77.5856 11.4814 79.4181 10.9924 81.6492L0.284786 131.95C-0.429248 135.001 0.199679 137.719 2.16868 140.103C4.13913 142.487 6.64763 143.68 9.69562 143.68H13.0105V198.31C13.0105 201.056 13.938 203.356 15.793 205.213C17.6481 207.07 19.9474 208 22.6882 208H105.059C107.801 208 110.1 207.07 111.955 205.213C113.81 203.356 114.738 201.056 114.738 198.31V143.68H162.926V199.958C162.926 202.238 163.693 204.147 165.231 205.688C166.769 207.229 168.676 208 170.952 208C173.23 208 175.138 207.229 176.677 205.688C178.218 204.147 178.988 202.238 178.988 199.958V143.68H182.303C185.35 143.68 187.859 142.487 189.83 140.103C191.8 137.719 192.429 135.001 191.715 131.95ZM98.6773 191.919H29.0741V143.68H98.6773V191.919Z" fill="#C02020"/>
</g>
<g filter="url(#filter1_i_1971_1079)">
<path d="M156 60.483V5.51559C156 2.46995 153.502 0 150.419 0H39.5811C36.4993 0 34 2.46995 34 5.51559V60.4844C34 63.5301 36.4978 66 39.5811 66H150.419C153.502 65.9986 156 63.5286 156 60.483ZM122.12 32.9993C122.12 33.4878 122.048 33.945 121.902 34.3721C121.758 34.7992 121.51 35.1964 121.162 35.5621L105.23 52.3132C104.563 53.0146 103.776 53.366 102.869 53.3674H102.856C102.82 53.3674 102.784 53.3674 102.749 53.366C101.791 53.336 100.964 52.9546 100.267 52.2217C99.6285 51.4889 99.2946 50.6346 99.2657 49.6589C99.2368 48.6832 99.5707 47.8275 100.267 47.0961L110.192 36.6621H71.3632C70.3759 36.6621 69.5491 36.3106 68.8827 35.6092C68.2149 34.9078 67.881 34.0378 67.881 33.0007C67.881 31.9636 68.2149 31.0936 68.8827 30.3922C69.5506 29.6908 70.3774 29.3394 71.3632 29.3394H110.194L100.269 18.9053C99.5721 18.1725 99.2382 17.3182 99.2671 16.3425C99.296 15.3654 99.6299 14.5111 100.269 13.7797C100.966 13.0469 101.792 12.6654 102.751 12.6354C102.788 12.634 102.826 12.634 102.865 12.634C103.774 12.634 104.563 12.9854 105.231 13.6883L121.162 30.4365C121.51 30.8022 121.758 31.1993 121.902 31.6265C122.048 32.0536 122.12 32.5107 122.12 32.9993Z" fill="#C02020"/>
</g>
<defs>
<filter id="filter0_i_1971_1079" x="0" y="74" width="192" height="140" filterUnits="userSpaceOnUse" color-interpolation-filters="sRGB">
<feFlood flood-opacity="0" result="BackgroundImageFix"/>
<feBlend mode="normal" in="SourceGraphic" in2="BackgroundImageFix" result="shape"/>
<feColorMatrix in="SourceAlpha" type="matrix" values="0 0 0 0 0 0 0 0 0 0 0 0 0 0 0 0 0 0 127 0" result="hardAlpha"/>
<feOffset dy="6"/>
<feGaussianBlur stdDeviation="3"/>
<feComposite in2="hardAlpha" operator="arithmetic" k2="-1" k3="1"/>
<feColorMatrix type="matrix" values="0 0 0 0 0 0 0 0 0 0 0 0 0 0 0 0 0 0 0.25 0"/>
<feBlend mode="normal" in2="shape" result="effect1_innerShadow_1971_1079"/>
</filter>
<filter id="filter1_i_1971_1079" x="34" y="0" width="122" height="72" filterUnits="userSpaceOnUse" color-interpolation-filters="sRGB">
<feFlood flood-opacity="0" result="BackgroundImageFix"/>
<feBlend mode="normal" in="SourceGraphic" in2="BackgroundImageFix" result="shape"/>
<feColorMatrix in="SourceAlpha" type="matrix" values="0 0 0 0 0 0 0 0 0 0 0 0 0 0 0 0 0 0 127 0" result="hardAlpha"/>
<feOffset dy="6"/>
<feGaussianBlur stdDeviation="3"/>
<feComposite in2="hardAlpha" operator="arithmetic" k2="-1" k3="1"/>
<feColorMatrix type="matrix" values="0 0 0 0 0 0 0 0 0 0 0 0 0 0 0 0 0 0 0.25 0"/>
<feBlend mode="normal" in2="shape" result="effect1_innerShadow_1971_1079"/>
</filter>
</defs>
</svg>
