<svg width="274" height="205" viewBox="0 0 274 205" fill="none" xmlns="http://www.w3.org/2000/svg">
<g filter="url(#filter0_i_1978_258)">
<path d="M148.564 157.512L107.686 61.4865C106.198 58.0122 103.923 55.2974 100.862 53.3406C97.8011 51.3839 94.4328 50.4062 90.7602 50.4062H40.8574C38.2729 50.4062 36.1057 51.2786 34.3576 53.0248C32.6094 54.7695 31.7353 56.9323 31.7353 59.5117V108.327H19.2148C16.6302 108.327 14.4631 109.199 12.7149 110.945C10.9668 112.69 10.0927 114.851 10.0927 117.432V154.916C6.79375 157.575 4.28603 160.765 2.57102 164.485C0.856002 168.204 0 172.15 0 176.322C0 184.016 2.69911 190.556 8.09583 195.943C13.4926 201.329 20.0467 204.023 27.7567 204.023C33.9552 204.023 39.5162 202.16 44.4397 198.434C49.3632 194.707 52.6591 189.857 54.3289 183.877H88.4906C90.9621 190.022 94.9543 194.919 100.467 198.559C105.98 202.202 112.088 204.023 118.79 204.023C127.9 204.023 135.644 200.839 142.022 194.473C148.403 188.107 151.592 180.375 151.592 171.285C151.592 168.857 151.324 166.509 150.787 164.243C150.249 161.976 149.509 159.734 148.564 157.512ZM36.6935 185.244C34.2415 187.689 31.2621 188.912 27.7552 188.912C24.2483 188.912 21.2689 187.689 18.8169 185.244C16.365 182.795 15.1382 179.82 15.1382 176.322C15.1382 172.822 16.365 169.848 18.8169 167.401C21.2689 164.953 24.2483 163.73 27.7552 163.73C31.2621 163.73 34.2415 164.953 36.6935 167.401C39.1454 169.848 40.3722 172.822 40.3722 176.322C40.3722 179.82 39.1454 182.795 36.6935 185.244ZM76.3965 138.548L46.8736 108.327V65.5159H90.8566C91.5031 65.5159 92.0698 65.6768 92.555 66.0002C93.0403 66.3235 93.4126 66.7748 93.6718 67.3568L124.572 139.709C123.796 139.322 123.003 139.032 122.194 138.838C121.385 138.644 120.56 138.548 119.719 138.548H76.3965ZM131.26 183.732C127.799 187.187 123.641 188.912 118.79 188.912C113.937 188.912 109.781 187.187 106.319 183.732C102.857 180.277 101.127 176.128 101.127 171.285C101.127 166.442 102.859 162.293 106.319 158.839C109.781 155.384 113.938 153.656 118.79 153.656C123.642 153.656 127.799 155.384 131.26 158.839C134.722 162.293 136.452 166.442 136.452 171.285C136.452 176.128 134.722 180.277 131.26 183.732Z" fill="#C02020"/>
<path d="M266.992 190.036H243.482C249.34 188.235 253.599 182.791 253.599 176.355V135.204C253.599 127.299 247.178 120.89 239.258 120.89H198.025C190.104 120.89 183.683 127.299 183.683 135.204V176.355C183.683 182.791 187.942 188.235 193.8 190.036H172.285V6.9938C172.285 3.13142 169.147 0 165.277 0C161.407 0 158.27 3.13142 158.27 6.9938V191.501C158.27 198.406 163.898 204.023 170.817 204.023H266.992C270.862 204.023 274 200.892 274 197.03C274 193.167 270.862 190.036 266.992 190.036Z" fill="#C02020"/>
<path d="M193.997 87.5554H234.481L224.133 98.5424C223.407 99.3125 223.059 100.212 223.089 101.241C223.119 102.268 223.467 103.167 224.133 103.939C224.86 104.709 225.722 105.111 226.72 105.144C226.757 105.144 226.795 105.145 226.831 105.145H226.846C227.791 105.144 228.611 104.774 229.307 104.035L245.918 86.3988C246.281 86.0137 246.539 85.5956 246.689 85.1459C246.84 84.6962 246.915 84.2149 246.915 83.7005C246.915 83.1861 246.84 82.7048 246.689 82.2551C246.539 81.8054 246.281 81.3873 245.918 81.0022L229.307 63.3658C228.609 62.6258 227.787 62.2559 226.839 62.2559C226.799 62.2559 226.76 62.2559 226.72 62.2574C225.722 62.2889 224.86 62.6905 224.133 63.4621C223.467 64.2337 223.119 65.1316 223.089 66.1603C223.059 67.1876 223.407 68.0885 224.133 68.8586L234.481 79.8441H193.997C192.969 79.8441 192.106 80.2141 191.411 80.9526C190.715 81.6911 190.367 82.6071 190.367 83.699C190.367 84.7909 190.715 85.7069 191.411 86.4454C192.106 87.1854 192.969 87.5554 193.997 87.5554Z" fill="#C02020"/>
</g>
<defs>
<filter id="filter0_i_1978_258" x="0" y="0" width="274" height="210.023" filterUnits="userSpaceOnUse" color-interpolation-filters="sRGB">
<feFlood flood-opacity="0" result="BackgroundImageFix"/>
<feBlend mode="normal" in="SourceGraphic" in2="BackgroundImageFix" result="shape"/>
<feColorMatrix in="SourceAlpha" type="matrix" values="0 0 0 0 0 0 0 0 0 0 0 0 0 0 0 0 0 0 127 0" result="hardAlpha"/>
<feOffset dy="6"/>
<feGaussianBlur stdDeviation="3"/>
<feComposite in2="hardAlpha" operator="arithmetic" k2="-1" k3="1"/>
<feColorMatrix type="matrix" values="0 0 0 0 0 0 0 0 0 0 0 0 0 0 0 0 0 0 0.25 0"/>
<feBlend mode="normal" in2="shape" result="effect1_innerShadow_1978_258"/>
</filter>
</defs>
</svg>
