<svg width="184" height="168" viewBox="0 0 184 168" fill="none" xmlns="http://www.w3.org/2000/svg">
<g filter="url(#filter0_i_1987_2274)">
<path d="M64.3997 84.0513C61.7935 84.0513 59.6077 84.9372 57.8435 86.7102C56.0807 88.4819 55.1993 90.6787 55.1993 93.2979C55.1993 95.9171 56.0807 98.1139 57.8435 99.8856C59.6077 101.657 61.7922 102.544 64.3997 102.544C67.0071 102.544 69.1916 101.657 70.9544 99.8856C72.7172 98.1139 73.5986 95.9171 73.5986 93.2979C73.5986 90.6787 72.7172 88.4819 70.9544 86.7102C69.1916 84.9372 67.0071 84.0513 64.3997 84.0513ZM119.6 84.0513C116.993 84.0513 114.807 84.9372 113.044 86.7102C111.281 88.4819 110.4 90.6787 110.4 93.2979C110.4 95.9171 111.281 98.1139 113.044 99.8856C114.807 101.657 116.993 102.544 119.6 102.544C122.206 102.544 124.391 101.657 126.155 99.8856C127.918 98.1139 128.799 95.9171 128.799 93.2979C128.799 90.6787 127.918 88.4819 126.155 86.7102C124.391 84.9372 122.206 84.0513 119.6 84.0513ZM92.4591 28.5747C85.5602 28.5747 78.6599 29.9623 71.7597 32.736C64.8594 35.5097 58.7644 39.4781 53.4746 44.64C48.1848 49.8033 43.9682 56.082 40.8248 63.479C37.6814 70.876 36.4164 79.1205 37.0299 88.2126C48.5303 83.5893 58.2285 76.4616 66.1244 66.8309C74.0203 57.1989 79.1958 46.1424 81.6496 33.6601C87.629 45.8348 96.4458 55.7348 108.099 63.3642C119.753 70.9922 132.786 74.8841 147.199 75.0372C145.052 61.7852 138.881 50.7274 128.684 41.8663C118.488 33.0053 106.413 28.5747 92.4591 28.5747ZM91.9993 0.836426C82.0318 0.836426 72.4112 2.56981 63.1347 6.03796C53.8582 9.50473 45.5011 14.3987 38.065 20.7157C30.6288 27.0341 24.4182 34.7387 19.4344 43.8307C14.4507 52.9228 11.2692 63.0935 9.88996 74.3427L9.20034 86.594C6.44051 88.2891 4.2166 90.4846 2.52996 93.1817C0.843319 95.8789 0 98.9998 0 102.544V121.036C0 126.122 1.80225 130.476 5.4054 134.097C9.00855 137.718 13.3408 139.528 18.4007 139.528H27.601V83.1272C27.601 74.1896 29.2877 65.7906 32.6609 57.9316C36.0342 50.0726 40.6344 43.2142 46.4614 37.3592C52.2885 31.5029 59.1112 26.8796 66.931 23.4894C74.7507 20.0992 83.1077 18.4041 92.0007 18.4041C100.894 18.4041 109.251 20.0992 117.07 23.4894C124.89 26.8796 131.714 31.5029 137.541 37.3592C143.367 43.2156 147.967 50.0726 151.34 57.9316C154.714 65.7906 156.4 74.1896 156.4 83.1272V148.775H82.8003V167.266H156.4C161.46 167.266 165.792 165.456 169.396 161.835C172.999 158.214 174.801 153.86 174.801 148.775V137.449C177.559 136.061 179.783 134.059 181.47 131.438C183.157 128.819 184 125.814 184 122.422V101.157C184 97.9212 183.157 94.9547 181.47 92.2576C179.783 89.5605 177.559 87.5181 174.801 86.132L174.11 74.1117C172.731 63.0169 169.549 52.9611 164.566 43.9456C159.582 34.93 153.411 27.2255 146.051 20.8305C138.691 14.4356 130.373 9.50473 121.097 6.03659C111.817 2.56981 102.119 0.836426 91.9993 0.836426Z" fill="#C02020"/>
</g>
<defs>
<filter id="filter0_i_1987_2274" x="0" y="0.836426" width="184" height="172.43" filterUnits="userSpaceOnUse" color-interpolation-filters="sRGB">
<feFlood flood-opacity="0" result="BackgroundImageFix"/>
<feBlend mode="normal" in="SourceGraphic" in2="BackgroundImageFix" result="shape"/>
<feColorMatrix in="SourceAlpha" type="matrix" values="0 0 0 0 0 0 0 0 0 0 0 0 0 0 0 0 0 0 127 0" result="hardAlpha"/>
<feOffset dy="6"/>
<feGaussianBlur stdDeviation="3"/>
<feComposite in2="hardAlpha" operator="arithmetic" k2="-1" k3="1"/>
<feColorMatrix type="matrix" values="0 0 0 0 0 0 0 0 0 0 0 0 0 0 0 0 0 0 0.25 0"/>
<feBlend mode="normal" in2="shape" result="effect1_innerShadow_1987_2274"/>
</filter>
</defs>
</svg>
