<svg width="216" height="42" viewBox="0 0 216 42" fill="none" xmlns="http://www.w3.org/2000/svg">
<rect width="42" height="216" transform="translate(0 42) rotate(-90)" fill="#2A6FEE"/>
<path d="M14.8522 31C14.6227 31 14.4696 30.8215 14.4696 30.5919L14.4696 13.5534C14.4696 13.3239 14.6227 13.1453 14.8522 13.1453L18.4997 13.1453C18.7292 13.1453 18.9078 13.3239 18.9078 13.5534L18.9078 27.072L23.8816 27.072C24.1111 27.072 24.2642 27.225 24.2642 27.4546L24.2642 30.6174C24.2642 30.847 24.1111 31 23.8816 31L14.8522 31ZM27.0077 31C26.7782 31 26.6251 30.8215 26.6251 30.5919L26.6251 13.5534C26.6251 13.3239 26.7782 13.1453 27.0077 13.1453L36.3432 13.1453C36.5728 13.1453 36.7258 13.3239 36.7258 13.5534L36.7258 16.6652C36.7258 16.8948 36.5728 17.0733 36.3432 17.0733L31.0633 17.0733L31.0633 20.0576L36.0116 20.0576C36.2412 20.0576 36.4197 20.2362 36.4197 20.4657L36.4197 23.6031C36.4197 23.8326 36.2412 23.9857 36.0116 23.9857L31.0633 23.9857L31.0633 27.072L36.3177 27.072C36.5472 27.072 36.7258 27.2505 36.7258 27.4801L36.7258 30.5919C36.7258 30.8215 36.5472 31 36.3177 31L27.0077 31ZM43.224 31C42.9945 31 42.8414 30.8215 42.8414 30.5919L42.8414 17.0733L39.5 17.0733C39.2705 17.0733 39.1174 16.8948 39.1174 16.6652L39.1174 13.5534C39.1174 13.3239 39.2705 13.1453 39.5 13.1453L50.5955 13.1453C50.825 13.1453 51.0036 13.3239 51.0036 13.5534L51.0036 16.6652C51.0036 16.8948 50.825 17.0733 50.5955 17.0733L47.2796 17.0733L47.2796 30.5919C47.2796 30.8215 47.101 31 46.8715 31L43.224 31ZM58.4396 31.3061C55.5828 31.3061 53.4913 29.8777 52.42 28.4493C52.2924 28.2963 52.2924 28.0922 52.4455 27.8882L54.3585 25.7201C54.537 25.5161 54.7156 25.4395 54.9451 25.6181C56.1695 26.7404 57.0877 27.2505 58.3375 27.2505C59.4598 27.2505 60.3015 26.8934 60.3015 25.8732C60.3015 25.0059 59.6639 24.7509 58.6691 24.3172L56.501 23.3225C54.6136 22.4553 52.7261 21.1034 52.7261 18.2211C52.7261 14.7777 55.3277 12.9413 58.4906 12.9413C60.6331 12.9413 62.3931 13.7575 63.949 15.3389C64.102 15.4664 64.1275 15.696 63.9745 15.9L62.087 18.1701C61.9595 18.3742 61.7554 18.4507 61.5514 18.3232C60.4036 17.4049 59.5874 16.9968 58.6436 16.9968C57.5723 16.9968 57.0112 17.5325 57.0112 18.2722C57.0112 19.1904 57.6999 19.3945 58.9752 19.9811L60.7097 20.7463C62.5716 21.6135 64.6122 22.8124 64.6122 25.8987C64.6122 29.7502 61.3983 31.3061 58.4396 31.3061ZM72.4914 31C72.2618 31 72.1088 30.8215 72.1088 30.5919L72.1088 13.5534C72.1088 13.3239 72.2618 13.1453 72.4914 13.1453L76.5979 13.1453C76.802 13.1453 76.9805 13.2218 77.0571 13.4004L81.8268 25.8476L86.6221 13.4004C86.6986 13.2218 86.8516 13.1453 87.0557 13.1453L91.1623 13.1453C91.3918 13.1453 91.5704 13.3239 91.5704 13.5534L91.5704 30.5919C91.5704 30.8215 91.3918 31 91.1623 31L87.5148 31C87.2852 31 87.1322 30.8215 87.1322 30.5919L87.1322 21.588L83.8673 30.6684C83.7908 30.8725 83.6123 31 83.4082 31L80.2709 31C80.0668 31 79.8628 30.8725 79.7863 30.6684L76.5469 21.588L76.5469 30.5919C76.5469 30.8215 76.3684 31 76.1388 31L72.4914 31ZM103.399 31.3316C98.3486 31.3316 94.191 27.3015 94.191 22.1492C94.191 16.9713 98.3486 12.9413 103.399 12.9413C108.449 12.9413 112.607 16.9713 112.607 22.1492C112.607 27.3015 108.449 31.3316 103.399 31.3316ZM98.6801 22.1492C98.6801 24.9039 100.721 26.9699 103.399 26.9699C106.077 26.9699 108.092 24.9039 108.092 22.1492C108.092 19.3689 106.077 17.3029 103.399 17.3029C100.721 17.3029 98.6801 19.3689 98.6801 22.1492ZM119.439 31C119.235 31 119.031 30.898 118.954 30.6939L113.088 13.5789C112.986 13.3239 113.139 13.1453 113.419 13.1453L117.22 13.1453C117.424 13.1453 117.577 13.2218 117.654 13.4514L121.378 25.3375L125.076 13.4514C125.153 13.2218 125.331 13.1453 125.535 13.1453L129.336 13.1453C129.616 13.1453 129.769 13.3239 129.667 13.5789L123.801 30.6939C123.724 30.898 123.495 31 123.291 31L119.439 31ZM132.073 31C131.844 31 131.691 30.8215 131.691 30.5919L131.691 13.5534C131.691 13.3239 131.844 13.1453 132.073 13.1453L141.409 13.1453C141.638 13.1453 141.791 13.3239 141.791 13.5534L141.791 16.6652C141.791 16.8948 141.638 17.0733 141.409 17.0733L136.129 17.0733L136.129 20.0576L141.077 20.0576C141.307 20.0576 141.485 20.2362 141.485 20.4657L141.485 23.6031C141.485 23.8326 141.307 23.9857 141.077 23.9857L136.129 23.9857V27.072L141.383 27.072C141.613 27.072 141.791 27.2505 141.791 27.4801L141.791 30.5919C141.791 30.8215 141.613 31 141.383 31L132.073 31Z" fill="white"/>
<line x1="159" y1="2" x2="159" y2="40" stroke="white" stroke-width="2"/>
<g clip-path="url(#clip0_1998_755)">
<mask id="mask0_1998_755" style="mask-type:luminance" maskUnits="userSpaceOnUse" x="176" y="10" width="24" height="19">
<path d="M200 28.9177L200 10L176.01 10L176.01 28.9177L200 28.9177Z" fill="white"/>
</mask>
<g mask="url(#mask0_1998_755)">
<path d="M198.179 9.97852L177.823 9.97852C177.324 9.97852 176.897 10.1577 176.539 10.5175C176.179 10.876 176 11.303 176 11.8L176 27.1042C176 27.6012 176.179 28.0282 176.539 28.388C176.897 28.7465 177.324 28.9257 177.823 28.9257L198.179 28.9257C198.676 28.9257 199.103 28.7465 199.461 28.388C199.821 28.0282 200 27.6012 200 27.1042L200 11.8C200 11.303 199.821 10.876 199.461 10.5175C199.103 10.1577 198.676 9.97852 198.179 9.97852ZM188 19.4668C187.903 19.4668 187.815 19.4514 187.738 19.4192C187.66 19.3884 187.583 19.3506 187.507 19.3086L177.749 12.8837C177.665 12.8207 177.602 12.7311 177.558 12.6163C177.516 12.5 177.506 12.3866 177.53 12.276C177.555 12.0926 177.66 11.954 177.849 11.8644C177.929 11.8252 178.011 11.8056 178.089 11.8056C178.194 11.8056 178.298 11.8392 178.4 11.9078L188 18.1381L197.62 11.9078C197.715 11.8434 197.812 11.8112 197.908 11.8112C197.994 11.8112 198.081 11.8364 198.167 11.8854C198.352 11.9904 198.453 12.136 198.47 12.3208C198.494 12.43 198.488 12.5364 198.452 12.6372C198.415 12.7381 198.348 12.8207 198.251 12.8837L188.505 19.3086C188.421 19.3506 188.34 19.3884 188.262 19.4192C188.185 19.4514 188.097 19.4668 188 19.4668Z" fill="white"/>
</g>
</g>
<defs>
<clipPath id="clip0_1998_755">
<rect width="18.9471" height="24" fill="white" transform="translate(200 10) rotate(90)"/>
</clipPath>
</defs>
</svg>
