<svg width="1177" height="1174" viewBox="0 0 1177 1174" fill="none" xmlns="http://www.w3.org/2000/svg">
<g clip-path="url(#clip0_2070_1756)" filter="url(#filter0_i_2070_1756)">
<path d="M219.931 793.592C219.757 793.592 219.574 793.592 219.4 793.592C174.486 793.717 136.404 809.454 105.173 840.813C79.7396 866.11 58.7418 904.921 42.1696 957.255C25.6071 1009.59 11.5474 1081.64 0 1173.4C92.1857 1162.26 164.562 1148.29 217.119 1131.5C269.687 1114.71 308.464 1093.81 333.453 1068.81C364.8 1037.45 380.474 999.392 380.474 954.626C380.474 909.861 364.964 871.794 333.936 840.445C302.618 809.203 264.613 793.592 219.931 793.592ZM934.428 687.076C872.063 741.132 813.707 785.259 759.343 819.459C704.979 853.659 641.222 885.907 568.053 916.192L646.247 1098.14C652.276 1112.75 663.553 1121.66 680.096 1124.88C683.739 1125.59 687.257 1125.95 690.648 1125.95C702.66 1125.95 713.105 1121.5 721.976 1112.63L924.649 909.88C938.429 896.095 948.121 879.778 953.725 860.929C959.34 842.069 960.2 822.949 956.325 803.558L934.428 687.076ZM347.938 216.211C336.603 216.211 325.365 217.874 314.214 221.189C295.361 226.796 279.263 236.491 265.899 250.276L63.2254 454.007C51.8423 465.501 47.6582 479.333 50.6635 495.496C53.6783 511.658 62.6843 522.746 77.7007 528.778L258.97 607.995C289.66 534.8 322.099 471.02 356.287 416.636C390.475 362.262 434.587 303.877 488.623 241.489L371.574 218.589C363.641 217.004 355.765 216.211 347.938 216.211ZM812.983 463.287C784.651 463.287 760.783 453.591 741.399 434.2C722.015 414.809 712.323 390.943 712.323 362.591C712.323 334.249 722.015 310.382 741.399 290.991C760.783 271.6 784.651 261.905 812.983 261.905C841.315 261.905 865.173 271.6 884.557 290.991C903.951 310.382 913.633 334.249 913.633 362.591C913.633 390.933 903.951 414.809 884.557 434.2C865.173 453.591 841.315 463.287 812.983 463.287ZM1104.01 0H1103.41C1009.96 0.0483326 917.518 20.058 826.096 60.029C727.397 103.18 637.714 165.317 557.037 246.438C503.919 299.169 458.86 353.253 421.89 408.71C384.909 464.157 353.417 524.234 327.394 588.923C322.031 599.904 319.954 610.914 321.152 621.972C322.35 633.031 326.37 641.779 333.212 648.217L528.087 842.543C534.522 849.396 543.161 853.418 554.013 854.616C556.129 854.848 558.235 854.964 560.352 854.964C569.106 854.964 577.9 852.963 586.741 848.981C651.407 823.481 711.192 792.064 766.088 754.723C820.984 717.381 875.319 672.026 929.104 618.628C1009.78 537.516 1071.95 447.589 1115.63 348.864C1156.14 257.303 1176.4 164.911 1176.44 71.6869V71.1745C1176.44 64.0407 1176.31 56.8971 1176.08 49.7535C1175.42 43.3156 1173.85 37.3514 1171.38 31.8705C1168.9 26.3799 1165.19 21.16 1160.24 16.2107C1155.29 11.2615 1149.81 7.54955 1143.78 5.07492C1137.76 2.60029 1131.74 1.03432 1125.72 0.367332C1118.47 0.125669 1111.24 0 1104.01 0Z" fill="#4D4D4D"/>
</g>
<defs>
<filter id="filter0_i_2070_1756" x="0" y="0" width="1176.44" height="1176.4" filterUnits="userSpaceOnUse" color-interpolation-filters="sRGB">
<feFlood flood-opacity="0" result="BackgroundImageFix"/>
<feBlend mode="normal" in="SourceGraphic" in2="BackgroundImageFix" result="shape"/>
<feColorMatrix in="SourceAlpha" type="matrix" values="0 0 0 0 0 0 0 0 0 0 0 0 0 0 0 0 0 0 127 0" result="hardAlpha"/>
<feOffset dy="3"/>
<feGaussianBlur stdDeviation="1.5"/>
<feComposite in2="hardAlpha" operator="arithmetic" k2="-1" k3="1"/>
<feColorMatrix type="matrix" values="0 0 0 0 0 0 0 0 0 0 0 0 0 0 0 0 0 0 0.25 0"/>
<feBlend mode="normal" in2="shape" result="effect1_innerShadow_2070_1756"/>
</filter>
<clipPath id="clip0_2070_1756">
<rect width="1176.44" height="1173.4" fill="white"/>
</clipPath>
</defs>
</svg>
