<svg width="1177" height="1174" viewBox="0 0 1177 1174" fill="none" xmlns="http://www.w3.org/2000/svg">
<g clip-path="url(#clip0_2072_1761)" filter="url(#filter0_i_2072_1761)">
<g clip-path="url(#clip1_2072_1761)" filter="url(#filter1_i_2072_1761)">
<mask id="mask0_2072_1761" style="mask-type:alpha" maskUnits="userSpaceOnUse" x="0" y="0" width="1301" height="1301">
<path d="M1301 0H0V1301H1301V0Z" fill="#D9D9D9"/>
</mask>
<g mask="url(#mask0_2072_1761)">
<path d="M673.722 1165.48L753.538 1092.16C854.473 999.843 922.65 928.625 958.071 878.504C993.492 828.385 1011.2 777.229 1011.2 725.036C1011.2 706.388 1008.66 688.851 1003.58 672.427C998.49 656.003 991.189 639.66 981.667 623.397H1080.62C1104.05 623.397 1124.05 631.706 1140.63 648.327C1157.2 664.944 1165.49 684.898 1165.49 708.184V1123.05C1165.49 1135.33 1161.46 1145.47 1153.42 1153.47C1145.37 1161.47 1135.26 1165.48 1123.09 1165.48H673.722ZM135.532 1123.08V708.359C135.532 684.867 143.637 664.835 159.848 648.259C176.059 631.685 196.215 623.397 220.319 623.397H319.074C310.064 638.895 302.934 655.145 297.688 672.146C292.441 689.148 289.816 706.779 289.816 725.036C289.816 778.271 306.421 828.836 339.63 876.733C372.838 924.627 442.377 996.958 548.246 1093.72L627.297 1165.48H177.925C165.757 1165.48 155.65 1161.45 147.603 1153.41C139.555 1145.36 135.532 1135.25 135.532 1123.08ZM1029.93 542.083C991.524 542.083 959.341 529.107 933.386 503.156C907.427 477.205 894.449 445.05 894.449 406.688C894.449 369.078 907.423 337.068 933.376 310.658C959.327 284.249 991.482 271.045 1029.84 271.045C1067.46 271.045 1099.47 284.225 1125.87 310.582C1152.28 336.94 1165.49 368.946 1165.49 406.601C1165.49 445.008 1152.31 477.191 1125.95 503.148C1099.59 529.105 1067.59 542.083 1029.93 542.083ZM650.54 487.875C604.861 487.875 566.332 472.21 534.954 440.878C503.575 409.548 487.886 371.063 487.886 325.42C487.886 280.552 503.551 242.203 534.881 210.373C566.213 178.544 604.698 162.628 650.341 162.628C695.209 162.628 733.558 178.5 765.388 210.245C797.217 241.989 813.133 280.314 813.133 325.219C813.133 370.901 797.261 409.429 765.516 440.809C733.772 472.186 695.447 487.875 650.54 487.875ZM357.923 725.036C357.923 765.786 376.248 809.9 412.896 857.378C449.544 904.857 522.053 977.974 630.423 1076.73L650.754 1094.45L671.083 1075.17C773.661 980.882 844.641 909.189 884.023 860.088C923.405 810.989 943.096 765.971 943.096 725.036C943.096 682.689 929.012 647.053 900.841 618.131C872.672 589.208 838.016 574.746 796.872 574.746C772.757 574.746 750.709 580.069 730.727 590.713C710.748 601.358 692.787 614.557 676.849 630.31L650.232 656.859L622.814 630.241C606.83 615.275 588.918 602.286 569.075 591.269C549.234 580.254 527.591 574.746 504.147 574.746C461.963 574.746 427.046 589.208 399.396 618.131C371.747 647.053 357.923 682.689 357.923 725.036ZM271.014 542.083C232.608 542.083 200.425 529.107 174.469 503.156C148.511 477.205 135.532 445.05 135.532 406.688C135.532 369.078 148.508 337.068 174.459 310.658C200.41 284.249 232.567 271.045 270.929 271.045C308.539 271.045 340.549 284.225 366.956 310.582C393.366 336.94 406.571 368.946 406.571 406.601C406.571 445.008 393.392 477.191 367.033 503.148C340.674 529.105 308.669 542.083 271.014 542.083Z" fill="#4D4D4D"/>
</g>
</g>
</g>
<defs>
<filter id="filter0_i_2072_1761" x="0" y="0" width="1176.44" height="1176.4" filterUnits="userSpaceOnUse" color-interpolation-filters="sRGB">
<feFlood flood-opacity="0" result="BackgroundImageFix"/>
<feBlend mode="normal" in="SourceGraphic" in2="BackgroundImageFix" result="shape"/>
<feColorMatrix in="SourceAlpha" type="matrix" values="0 0 0 0 0 0 0 0 0 0 0 0 0 0 0 0 0 0 127 0" result="hardAlpha"/>
<feOffset dy="3"/>
<feGaussianBlur stdDeviation="1.5"/>
<feComposite in2="hardAlpha" operator="arithmetic" k2="-1" k3="1"/>
<feColorMatrix type="matrix" values="0 0 0 0 0 0 0 0 0 0 0 0 0 0 0 0 0 0 0.25 0"/>
<feBlend mode="normal" in2="shape" result="effect1_innerShadow_2072_1761"/>
</filter>
<filter id="filter1_i_2072_1761" x="0" y="0" width="1301" height="1304" filterUnits="userSpaceOnUse" color-interpolation-filters="sRGB">
<feFlood flood-opacity="0" result="BackgroundImageFix"/>
<feBlend mode="normal" in="SourceGraphic" in2="BackgroundImageFix" result="shape"/>
<feColorMatrix in="SourceAlpha" type="matrix" values="0 0 0 0 0 0 0 0 0 0 0 0 0 0 0 0 0 0 127 0" result="hardAlpha"/>
<feOffset dy="3"/>
<feGaussianBlur stdDeviation="1.5"/>
<feComposite in2="hardAlpha" operator="arithmetic" k2="-1" k3="1"/>
<feColorMatrix type="matrix" values="0 0 0 0 0 0 0 0 0 0 0 0 0 0 0 0 0 0 0.25 0"/>
<feBlend mode="normal" in2="shape" result="effect1_innerShadow_2072_1761"/>
</filter>
<clipPath id="clip0_2072_1761">
<rect width="1176.44" height="1173.4" fill="white"/>
</clipPath>
<clipPath id="clip1_2072_1761">
<rect width="1301" height="1301" fill="white"/>
</clipPath>
</defs>
</svg>
