<svg width="518" height="134" viewBox="0 0 518 134" fill="none" xmlns="http://www.w3.org/2000/svg">
<path d="M38.9618 116.847C38.4046 119.291 37.0028 121.455 35.0077 122.951C32.7433 124.497 30.0452 125.265 27.3142 125.14C26.5247 125.137 25.7363 125.08 24.9544 124.97C24.1834 124.871 23.4194 124.723 22.667 124.526C22.0653 124.382 21.486 124.155 20.945 123.852C20.4901 123.585 20.2704 123.282 20.286 122.943V122.728L20.9854 119.911C21.0063 119.722 21.0977 119.548 21.241 119.424C21.3843 119.301 21.5688 119.237 21.7571 119.246C22.0183 119.262 22.2669 119.365 22.465 119.537C22.7943 119.78 23.1427 119.996 23.5067 120.181C24.062 120.459 24.6459 120.675 25.2478 120.825C26.1529 121.041 27.0816 121.14 28.0114 121.119C29.4899 121.223 30.9563 120.787 32.142 119.889C32.5973 119.501 32.9655 119.02 33.2221 118.477C33.4787 117.935 33.6178 117.343 33.6301 116.742C33.6472 116.255 33.5325 115.773 33.2985 115.347C32.9762 114.795 32.5414 114.318 32.0229 113.948L27.9221 110.74C27.1022 110.113 26.4154 109.325 25.9026 108.425C25.4427 107.534 25.2374 106.531 25.3095 105.528C25.3232 105.221 25.3573 104.915 25.4115 104.612C25.4668 104.308 25.5284 103.988 25.5986 103.653C26.1237 101.293 27.5449 99.2344 29.5569 97.9199C31.7708 96.5925 34.3155 95.9342 36.8891 96.0232C37.6009 96.0265 38.3115 96.0831 39.0149 96.1927C39.7054 96.2948 40.3869 96.4504 41.0536 96.6583C41.5952 96.8169 42.1119 97.0516 42.5885 97.3556C42.9882 97.6195 43.1816 97.8963 43.1689 98.1753V98.3019L42.4185 101.327C42.3601 101.483 42.2776 101.627 42.174 101.756C42.1129 101.823 42.0378 101.874 41.9542 101.907C41.8706 101.939 41.7808 101.953 41.6914 101.945C41.4103 101.933 41.1405 101.83 40.9218 101.651C40.6561 101.458 40.3245 101.235 39.9227 100.984C39.429 100.693 38.8993 100.468 38.3474 100.317C37.5365 100.109 36.7007 100.016 35.8644 100.042C34.9616 100.005 34.0617 100.168 33.2283 100.52C32.6537 100.777 32.1394 101.154 31.719 101.625C31.3938 101.996 31.1554 102.436 31.0217 102.913C30.9244 103.253 30.861 103.601 30.8325 103.954C30.8096 104.487 30.9588 105.014 31.2576 105.455C31.7269 106.081 32.3028 106.617 32.9583 107.039L36.1131 109.292C37.1058 109.946 37.9641 110.788 38.6408 111.77C39.1485 112.633 39.3808 113.632 39.3062 114.632C39.2668 115.379 39.1514 116.12 38.9618 116.842" fill="white"/>
<path d="M63.7642 113.991C63.3828 115.558 62.783 117.062 61.9828 118.458C61.2209 119.79 60.2503 120.989 59.1086 122.007C57.9628 123.019 56.6437 123.812 55.2161 124.346C53.6402 124.92 51.9744 125.203 50.299 125.18C49.1446 125.28 47.9821 125.145 46.8806 124.782C45.7792 124.42 44.7612 123.837 43.8874 123.069C43.1842 122.296 42.6522 121.381 42.3267 120.384C42.0012 119.387 41.8897 118.332 41.9996 117.289C42.0575 116.216 42.2278 115.152 42.5077 114.115C42.8903 112.549 43.4908 111.045 44.2913 109.648C45.0489 108.321 46.0194 107.13 47.1633 106.123C48.3119 105.12 49.6296 104.335 51.0537 103.803C52.6295 103.228 54.2953 102.945 55.9708 102.969C57.1239 102.869 58.285 103.002 59.3866 103.36C60.4881 103.718 61.508 104.294 62.3867 105.054C63.0901 105.824 63.6225 106.736 63.9481 107.73C64.2736 108.724 64.3849 109.777 64.2745 110.817C64.2199 111.89 64.0488 112.954 63.7642 113.989M58.4134 113.907C58.6861 112.897 58.8556 111.862 58.9194 110.817C59.0048 110.244 58.968 109.659 58.8115 109.101C58.6549 108.543 58.3823 108.025 58.0117 107.582C57.1695 106.868 56.0832 106.516 54.9865 106.601C54.1802 106.581 53.3782 106.726 52.6288 107.028C51.8795 107.329 51.1983 107.78 50.6264 108.354C49.1985 110.02 48.23 112.036 47.8181 114.199C47.5512 115.21 47.3818 116.245 47.3121 117.289C47.2293 117.864 47.2652 118.45 47.4178 119.01C47.5704 119.57 47.8362 120.092 48.1986 120.544C48.6144 120.908 49.0981 121.184 49.6214 121.356C50.1446 121.528 50.6966 121.593 51.245 121.546C52.0475 121.562 52.8451 121.415 53.5904 121.114C54.3357 120.814 55.0136 120.365 55.5839 119.795C57.0293 118.121 58.0074 116.089 58.4177 113.907" fill="white"/>
<path d="M69.9676 124.052C69.9497 124.264 69.8511 124.46 69.6925 124.6C69.5339 124.741 69.3278 124.813 69.1173 124.803H65.4501C65.0377 124.803 64.84 124.608 64.857 124.221V124.052L72.1254 95.4953C72.152 95.2703 72.2658 95.0651 72.4418 94.9244C72.6179 94.7837 72.8419 94.719 73.065 94.7444H76.73C77.1127 94.7444 77.2998 94.9267 77.2827 95.2872V95.4117L69.9676 124.052Z" fill="white"/>
<path d="M93.552 124.052C93.5289 124.27 93.4222 124.471 93.2546 124.611C93.087 124.752 92.8719 124.82 92.6549 124.803H89.1132C88.7829 124.803 88.6242 124.665 88.637 124.389V124.174C88.637 124.035 88.5371 123.96 88.3181 123.96C87.9635 123.963 87.6121 124.027 87.2785 124.148C86.9171 124.273 86.4984 124.404 86.0264 124.543C85.5545 124.683 85.0124 124.814 84.4022 124.94C82.8683 125.209 81.2982 125.187 79.7721 124.876C79.0796 124.733 78.4207 124.456 77.8312 124.063C77.2926 123.696 76.8599 123.192 76.5769 122.601C76.2745 121.93 76.1443 121.192 76.1985 120.456C76.2339 119.817 76.3171 119.183 76.4472 118.557C76.589 117.842 76.7753 117.042 77.0063 116.158L80.091 104.05C80.1141 103.832 80.2208 103.631 80.3884 103.491C80.5559 103.35 80.7711 103.282 80.9881 103.299H84.736C85.0932 103.299 85.2632 103.466 85.2483 103.797V103.923L81.9617 116.866C81.8145 117.428 81.7198 118.003 81.679 118.583C81.6272 118.964 81.6665 119.353 81.7937 119.716C81.9209 120.079 82.1323 120.406 82.4103 120.67C83.2219 121.194 84.1833 121.428 85.142 121.338C86.1542 121.349 87.1578 121.151 88.0906 120.754C88.5106 120.59 88.8848 120.326 89.181 119.984C89.4773 119.642 89.6868 119.233 89.7913 118.791L93.5286 104.054C93.5465 103.842 93.6451 103.646 93.8037 103.506C93.9623 103.366 94.1685 103.293 94.379 103.303H98.1269C98.5095 103.303 98.6945 103.484 98.6796 103.844V103.971L93.552 124.052Z" fill="white"/>
<path d="M110.976 123.595C110.927 123.763 110.842 123.918 110.725 124.048C110.609 124.178 110.465 124.28 110.304 124.346C109.879 124.556 109.43 124.71 108.967 124.805C108.433 124.919 107.892 125.003 107.349 125.056C106.782 125.112 106.294 125.14 105.884 125.14C105.17 125.141 104.456 125.093 103.748 124.994C103.113 124.912 102.501 124.707 101.943 124.391C101.407 124.069 100.982 123.588 100.727 123.013C100.412 122.25 100.286 121.421 100.359 120.597C100.426 119.624 100.593 118.661 100.857 117.722L103.503 107.311V107.228C103.503 107.033 103.405 106.936 103.186 106.936H101.209C100.769 106.936 100.557 106.751 100.572 106.389C100.571 106.345 100.579 106.301 100.597 106.26C100.615 106.22 100.623 106.177 100.623 106.134L101.126 104.063C101.168 103.837 101.291 103.634 101.472 103.494C101.653 103.354 101.879 103.287 102.107 103.306H104.084C104.358 103.306 104.545 103.138 104.643 102.803L105.691 98.5851C105.721 98.358 105.835 98.1507 106.009 98.0038C106.183 97.8569 106.406 97.7811 106.632 97.7912H110.215C110.653 97.7912 110.867 97.9586 110.852 98.2933V98.5079L109.758 102.799V102.967C109.748 103.011 109.75 103.057 109.762 103.1C109.775 103.144 109.797 103.184 109.828 103.217C109.859 103.25 109.897 103.275 109.94 103.289C109.982 103.304 110.028 103.308 110.072 103.301H115.387C115.799 103.301 115.997 103.456 115.984 103.765V103.934L115.436 106.131C115.407 106.36 115.294 106.569 115.119 106.717C114.945 106.866 114.722 106.943 114.494 106.934H109.179C109.036 106.931 108.897 106.98 108.787 107.072C108.677 107.164 108.603 107.293 108.58 107.436L105.842 118.218C105.806 118.385 105.778 118.548 105.759 118.716C105.736 118.881 105.722 119.047 105.716 119.213C105.669 119.75 105.805 120.287 106.101 120.735C106.324 120.966 106.598 121.142 106.901 121.246C107.204 121.351 107.527 121.382 107.844 121.338C108.282 121.347 108.719 121.305 109.147 121.213C109.455 121.143 109.756 121.045 110.047 120.921C110.299 120.81 110.516 120.712 110.697 120.627C110.846 120.553 111.009 120.51 111.175 120.503C111.505 120.503 111.662 120.655 111.65 120.962V121.132L110.976 123.595Z" fill="white"/>
<path d="M119.398 124.052C119.38 124.264 119.282 124.46 119.123 124.6C118.965 124.741 118.758 124.813 118.548 124.803H114.87C114.458 124.803 114.26 124.608 114.277 124.221V124.052L119.356 104.054C119.382 103.83 119.496 103.625 119.672 103.484C119.847 103.344 120.071 103.279 120.293 103.303H123.958C124.343 103.303 124.528 103.484 124.511 103.844V103.971L119.398 124.052ZM126.582 97.3749C126.4 98.1794 125.931 98.8881 125.264 99.3655C124.598 99.8429 123.78 100.056 122.968 99.9626C121.293 99.9626 120.484 99.3082 120.542 97.9993C120.537 97.5332 120.639 97.0723 120.839 96.6522C121.04 96.2322 121.333 95.8642 121.696 95.5769C122.463 95.0066 123.397 94.7126 124.349 94.7422C125.969 94.7422 126.749 95.3688 126.688 96.6218C126.684 96.7469 126.672 96.8716 126.652 96.9952C126.633 97.1089 126.607 97.2333 126.573 97.3728" fill="white"/>
<path d="M146.828 113.991C146.447 115.558 145.847 117.062 145.047 118.458C144.285 119.79 143.315 120.989 142.173 122.007C141.027 123.019 139.708 123.812 138.28 124.346C136.704 124.92 135.039 125.203 133.363 125.18C132.209 125.28 131.046 125.145 129.945 124.782C128.843 124.42 127.825 123.837 126.952 123.069C126.248 122.296 125.716 121.381 125.391 120.384C125.065 119.387 124.954 118.332 125.064 117.289C125.122 116.216 125.292 115.152 125.572 114.115C125.955 112.549 126.555 111.045 127.356 109.648C128.113 108.321 129.084 107.129 130.228 106.123C131.376 105.12 132.694 104.335 134.118 103.803C135.694 103.228 137.36 102.945 139.035 102.969C140.188 102.869 141.349 103.002 142.451 103.36C143.552 103.718 144.572 104.294 145.451 105.054C146.154 105.824 146.687 106.736 147.012 107.73C147.338 108.724 147.449 109.777 147.339 110.817C147.284 111.89 147.113 112.954 146.828 113.989M141.478 113.907C141.75 112.897 141.92 111.862 141.984 110.817C142.069 110.244 142.032 109.659 141.876 109.101C141.719 108.543 141.447 108.025 141.076 107.582C140.234 106.868 139.147 106.516 138.051 106.601C137.244 106.581 136.442 106.726 135.693 107.028C134.944 107.329 134.263 107.78 133.691 108.354C132.263 110.02 131.294 112.036 130.882 114.199C130.615 115.21 130.446 116.245 130.376 117.289C130.293 117.864 130.329 118.45 130.482 119.01C130.635 119.57 130.9 120.092 131.263 120.544C131.678 120.907 132.162 121.183 132.685 121.355C133.207 121.528 133.759 121.592 134.307 121.546C135.11 121.562 135.907 121.415 136.652 121.114C137.398 120.814 138.076 120.365 138.646 119.795C140.091 118.121 141.07 116.089 141.48 113.907" fill="white"/>
<path d="M166.476 124.054C166.453 124.272 166.346 124.473 166.178 124.613C166.011 124.754 165.796 124.822 165.579 124.805H161.914C161.529 124.805 161.344 124.623 161.361 124.264V124.05L164.507 111.659C164.698 110.992 164.811 110.305 164.845 109.612C164.906 109.207 164.864 108.793 164.722 108.41C164.58 108.027 164.344 107.686 164.035 107.421C163.309 106.951 162.454 106.725 161.593 106.777C161.087 106.777 160.582 106.819 160.083 106.902C159.594 106.983 159.118 107.127 158.665 107.331C158.242 107.518 157.855 107.78 157.522 108.103C157.194 108.417 156.956 108.813 156.831 109.251L153.051 124.071C153.032 124.283 152.934 124.479 152.775 124.619C152.617 124.759 152.411 124.832 152.2 124.822H148.533C148.123 124.822 147.923 124.64 147.938 124.281V124.067L153.019 104.069C153.055 103.849 153.171 103.649 153.345 103.51C153.519 103.372 153.737 103.303 153.959 103.318H157.5C157.828 103.318 157.987 103.445 157.976 103.694C157.977 103.737 157.969 103.779 157.951 103.818C157.933 103.858 157.924 103.901 157.923 103.945C157.923 104.084 158.051 104.159 158.327 104.159C158.681 104.155 159.032 104.09 159.365 103.969C159.726 103.845 160.151 103.713 160.64 103.572C161.129 103.43 161.671 103.298 162.264 103.177C162.951 103.043 163.65 102.98 164.35 102.988C165.928 102.893 167.495 103.302 168.829 104.157C169.372 104.586 169.796 105.15 170.057 105.794C170.318 106.439 170.407 107.141 170.317 107.831C170.245 108.988 170.057 110.134 169.756 111.253L166.476 124.054Z" fill="white"/>
<path d="M185.891 116.956C185.853 118.096 185.577 119.215 185.081 120.24C184.586 121.265 183.882 122.174 183.015 122.906C182.14 123.636 181.138 124.196 180.06 124.556C178.877 124.954 177.636 125.151 176.389 125.14C174.932 125.173 173.478 125.004 172.067 124.638C170.915 124.306 170.351 123.846 170.377 123.258V123.091L170.976 120.713C170.995 120.512 171.09 120.326 171.241 120.194C171.393 120.062 171.588 119.993 171.788 120.003C171.996 120.02 172.194 120.1 172.356 120.233C172.637 120.428 172.932 120.603 173.238 120.756C173.698 120.982 174.18 121.157 174.677 121.278C175.41 121.446 176.16 121.522 176.912 121.505C177.89 121.577 178.864 121.313 179.675 120.756C179.971 120.521 180.211 120.224 180.379 119.884C180.547 119.545 180.638 119.172 180.647 118.793C180.666 118.439 180.557 118.091 180.341 117.812C180.014 117.421 179.635 117.077 179.214 116.791L176.45 114.785C175.724 114.276 175.102 113.631 174.618 112.884C174.213 112.199 174.025 111.405 174.08 110.609C174.113 109.51 174.393 108.433 174.898 107.459C175.388 106.53 176.062 105.712 176.878 105.056C177.752 104.365 178.745 103.842 179.807 103.514C180.981 103.147 182.205 102.964 183.434 102.973C184.113 102.97 184.792 103.012 185.466 103.097C186.044 103.166 186.614 103.292 187.167 103.475C187.579 103.603 187.968 103.8 188.315 104.059C188.434 104.135 188.533 104.24 188.603 104.363C188.673 104.487 188.712 104.626 188.717 104.769V104.936L188.079 107.397C188.027 107.568 187.95 107.73 187.851 107.878C187.781 107.949 187.696 108.003 187.601 108.035C187.507 108.068 187.406 108.077 187.307 108.062C187.086 108.052 186.873 107.973 186.699 107.835C186.441 107.654 186.173 107.486 185.898 107.333C185.517 107.127 185.118 106.958 184.705 106.831C184.113 106.662 183.499 106.584 182.883 106.601C181.947 106.539 181.014 106.757 180.2 107.228C179.917 107.405 179.68 107.65 179.513 107.942C179.346 108.234 179.253 108.562 179.242 108.899C179.22 109.24 179.315 109.579 179.509 109.858C179.769 110.201 180.083 110.497 180.438 110.736L183.515 112.944C184.25 113.464 184.879 114.123 185.364 114.886C185.739 115.506 185.923 116.226 185.891 116.952" fill="white"/>
<path d="M214.512 106.144C214.475 106.376 214.354 106.586 214.173 106.732C213.991 106.878 213.762 106.951 213.53 106.936H210.324C210.181 106.933 210.042 106.982 209.932 107.074C209.821 107.167 209.748 107.296 209.724 107.438L205.496 124.054C205.478 124.266 205.379 124.462 205.22 124.602C205.062 124.742 204.856 124.815 204.646 124.805H200.898C200.826 124.817 200.752 124.81 200.683 124.787C200.614 124.763 200.552 124.723 200.501 124.67C200.451 124.617 200.414 124.552 200.394 124.482C200.374 124.411 200.371 124.336 200.385 124.264V124.05L204.614 107.434C204.61 107.397 204.619 107.36 204.639 107.329C204.647 107.32 204.653 107.311 204.657 107.3C204.661 107.289 204.663 107.278 204.663 107.266C204.663 107.052 204.539 106.932 204.265 106.932H202.288C201.904 106.932 201.719 106.765 201.733 106.432V106.305L202.286 104.05C202.322 103.83 202.439 103.631 202.612 103.492C202.786 103.353 203.005 103.284 203.226 103.299H205.203C205.346 103.302 205.485 103.253 205.594 103.161C205.704 103.068 205.777 102.939 205.8 102.797L206.349 100.623C206.722 98.8588 207.66 97.2671 209.019 96.094C210.417 95.0107 212.147 94.4564 213.908 94.5277C214.788 94.4804 215.668 94.5938 216.508 94.8624C217.034 95.087 217.289 95.3802 217.273 95.7421V95.8666L216.682 98.038C216.553 98.4828 216.31 98.7052 215.953 98.7052C215.711 98.7071 215.475 98.6262 215.284 98.4757C214.954 98.2915 214.577 98.2115 214.202 98.2461C212.745 98.2461 211.8 99.1222 211.368 100.875L210.913 102.806V103.02C210.913 103.218 211.023 103.314 211.27 103.314H214.482C214.892 103.314 215.092 103.466 215.08 103.773V103.896L214.512 106.144Z" fill="white"/>
<path d="M235.039 113.991C234.658 115.558 234.058 117.062 233.258 118.458C232.496 119.79 231.526 120.989 230.384 122.007C229.238 123.019 227.919 123.812 226.491 124.346C224.915 124.92 223.25 125.203 221.574 125.18C220.419 125.281 219.256 125.145 218.155 124.783C217.053 124.42 216.034 123.837 215.16 123.069C214.457 122.296 213.925 121.381 213.6 120.384C213.274 119.387 213.163 118.332 213.273 117.289C213.33 116.216 213.501 115.152 213.781 114.115C214.163 112.549 214.764 111.045 215.564 109.648C216.322 108.321 217.292 107.13 218.436 106.123C219.585 105.12 220.903 104.335 222.327 103.803C223.902 103.228 225.568 102.945 227.244 102.969C228.397 102.869 229.558 103.002 230.66 103.36C231.761 103.718 232.781 104.294 233.66 105.054C234.363 105.824 234.895 106.736 235.221 107.73C235.547 108.724 235.658 109.777 235.547 110.817C235.493 111.89 235.322 112.954 235.037 113.989M229.686 113.907C229.959 112.897 230.129 111.862 230.192 110.817C230.278 110.244 230.241 109.659 230.084 109.101C229.928 108.543 229.655 108.025 229.285 107.582C228.442 106.868 227.356 106.516 226.259 106.601C225.453 106.581 224.651 106.726 223.902 107.028C223.152 107.329 222.471 107.78 221.899 108.354C220.472 110.02 219.503 112.036 219.091 114.199C218.824 115.21 218.655 116.245 218.585 117.289C218.502 117.864 218.538 118.45 218.691 119.01C218.843 119.57 219.109 120.092 219.472 120.544C219.887 120.907 220.37 121.183 220.893 121.355C221.416 121.528 221.968 121.592 222.516 121.546C223.318 121.562 224.116 121.415 224.861 121.114C225.606 120.814 226.284 120.365 226.855 119.795C228.3 118.121 229.278 116.089 229.689 113.907" fill="white"/>
<path d="M253.037 107.02C253.016 107.197 252.929 107.361 252.794 107.477C252.659 107.593 252.485 107.653 252.308 107.646C252.165 107.649 252.022 107.634 251.883 107.603L251.392 107.5C251.179 107.46 250.922 107.417 250.594 107.376C250.157 107.327 249.718 107.306 249.278 107.311C248.249 107.28 247.232 107.54 246.343 108.062C245.492 108.632 244.899 109.517 244.691 110.526L241.255 124.043C241.242 124.25 241.149 124.444 240.998 124.584C240.846 124.724 240.647 124.799 240.441 124.794H236.689C236.611 124.807 236.532 124.8 236.458 124.775C236.383 124.749 236.316 124.706 236.262 124.648C236.208 124.591 236.168 124.521 236.147 124.445C236.125 124.369 236.122 124.288 236.138 124.211V124.043L241.217 104.046C241.248 103.83 241.356 103.634 241.522 103.496C241.688 103.357 241.899 103.285 242.114 103.295H245.696C245.998 103.295 246.143 103.406 246.134 103.627C246.127 103.713 246.109 103.797 246.081 103.878C246.044 104.019 246.024 104.163 246.022 104.308C246.022 104.503 246.119 104.599 246.338 104.599C246.685 104.588 247.026 104.503 247.337 104.348L248.577 103.784C249.087 103.559 249.612 103.372 250.148 103.222C250.782 103.048 251.436 102.964 252.093 102.971C252.564 102.925 253.038 103.012 253.462 103.222C253.565 103.289 253.649 103.382 253.706 103.492C253.762 103.602 253.789 103.725 253.783 103.848V104.063L253.037 107.02Z" fill="white"/>
<path d="M283.316 103.681C283.241 104.012 283.101 104.324 282.905 104.599L268.08 128.94C267.261 130.41 266.169 131.707 264.865 132.761C263.686 133.601 262.269 134.033 260.826 133.991C259.399 133.991 258.695 133.768 258.715 133.323V133.197L259.313 130.815C259.335 130.65 259.417 130.498 259.543 130.391C259.67 130.283 259.832 130.227 259.997 130.234C260.135 130.234 260.28 130.234 260.422 130.253C260.565 130.272 260.799 130.274 261.1 130.274C261.621 130.284 262.135 130.154 262.588 129.897C263.118 129.548 263.555 129.076 263.864 128.519L264.795 127.017C264.97 126.783 265.119 126.531 265.239 126.264C265.296 126.118 265.331 125.964 265.341 125.807C265.341 125.723 265.341 125.605 265.341 125.451C265.335 125.307 265.32 125.164 265.299 125.022L263.075 104.438V104.224C263.074 103.984 263.149 103.749 263.288 103.554C263.378 103.464 263.486 103.395 263.606 103.352C263.725 103.309 263.853 103.294 263.979 103.308H267.931C268.004 103.291 268.079 103.291 268.152 103.309C268.225 103.326 268.293 103.36 268.35 103.408C268.408 103.456 268.454 103.517 268.484 103.586C268.515 103.655 268.529 103.73 268.526 103.805L269.561 118.668C269.561 119.033 269.646 119.211 269.785 119.211C269.923 119.211 270.135 119.031 270.344 118.668L278.698 103.805C278.8 103.642 278.945 103.51 279.115 103.422C279.286 103.334 279.477 103.295 279.668 103.308H282.757C283.141 103.308 283.326 103.434 283.318 103.681" fill="white"/>
<path d="M345.062 107.02C345.04 107.197 344.954 107.361 344.818 107.477C344.683 107.593 344.51 107.653 344.332 107.646C344.19 107.649 344.047 107.634 343.907 107.603L343.416 107.5C343.204 107.46 342.946 107.417 342.619 107.376C342.182 107.327 341.743 107.306 341.303 107.311C340.274 107.28 339.257 107.54 338.367 108.062C337.517 108.632 336.923 109.517 336.715 110.526L333.28 124.043C333.266 124.25 333.174 124.444 333.022 124.584C332.871 124.724 332.671 124.799 332.466 124.794H328.718C328.64 124.807 328.561 124.8 328.486 124.775C328.412 124.749 328.345 124.706 328.291 124.648C328.236 124.591 328.197 124.521 328.175 124.445C328.154 124.369 328.151 124.288 328.167 124.211V124.043L333.246 104.046C333.277 103.831 333.386 103.635 333.551 103.496C333.717 103.357 333.928 103.286 334.143 103.295H337.723C338.025 103.295 338.17 103.406 338.161 103.627C338.153 103.713 338.135 103.797 338.108 103.878C338.071 104.019 338.051 104.163 338.048 104.308C338.048 104.503 338.146 104.599 338.365 104.599C338.712 104.588 339.053 104.503 339.364 104.348L340.604 103.784C341.113 103.559 341.638 103.372 342.175 103.222C342.808 103.048 343.463 102.963 344.12 102.971C344.59 102.925 345.064 103.012 345.489 103.222C345.592 103.289 345.676 103.382 345.732 103.492C345.789 103.602 345.815 103.725 345.81 103.848V104.063L345.062 107.02Z" fill="white"/>
<path d="M427.892 107.02C427.871 107.197 427.784 107.361 427.649 107.477C427.514 107.593 427.34 107.653 427.163 107.646C427.02 107.649 426.877 107.634 426.738 107.603L426.247 107.5C426.034 107.46 425.777 107.417 425.449 107.376C425.012 107.327 424.573 107.306 424.133 107.311C423.104 107.28 422.087 107.54 421.198 108.062C420.347 108.632 419.754 109.517 419.546 110.526L416.11 124.043C416.097 124.25 416.004 124.444 415.853 124.584C415.701 124.724 415.502 124.799 415.296 124.794H411.548C411.471 124.807 411.391 124.8 411.317 124.775C411.242 124.749 411.175 124.706 411.121 124.648C411.067 124.591 411.027 124.521 411.006 124.445C410.984 124.369 410.981 124.288 410.998 124.211V124.043L416.076 104.046C416.107 103.83 416.215 103.634 416.381 103.496C416.547 103.357 416.758 103.285 416.973 103.295H420.556C420.857 103.295 421.004 103.406 420.993 103.627C420.986 103.713 420.968 103.797 420.94 103.878C420.904 104.019 420.884 104.163 420.881 104.308C420.881 104.503 420.979 104.599 421.198 104.599C421.545 104.589 421.885 104.503 422.197 104.348L423.436 103.784C423.946 103.559 424.471 103.372 425.007 103.222C425.641 103.048 426.296 102.963 426.952 102.971C427.423 102.925 427.897 103.012 428.321 103.222C428.425 103.289 428.509 103.382 428.565 103.492C428.621 103.602 428.648 103.725 428.642 103.848V104.063L427.892 107.02Z" fill="white"/>
<path d="M358 127.517C357.625 129.469 356.569 131.22 355.024 132.452C353.479 133.519 351.637 134.059 349.766 133.995C348.339 133.995 347.635 133.759 347.655 133.287V133.162L348.248 130.864C348.281 130.667 348.384 130.488 348.538 130.362C348.654 130.282 348.792 130.239 348.933 130.238C349.064 130.235 349.194 130.243 349.324 130.259C349.454 130.274 349.585 130.28 349.715 130.279C350.102 130.305 350.489 130.252 350.854 130.123C351.22 129.994 351.555 129.791 351.841 129.528C352.424 128.835 352.816 127.999 352.976 127.105L358.808 104.059C358.831 103.84 358.938 103.64 359.106 103.5C359.273 103.36 359.488 103.291 359.705 103.308H363.37C363.782 103.308 363.98 103.488 363.963 103.848V103.975L358 127.517ZM366.038 97.3771C365.856 98.1814 365.387 98.8898 364.72 99.3671C364.053 99.8444 363.236 100.057 362.424 99.9647C360.749 99.9647 359.94 99.3103 359.998 98.0015C359.994 97.5352 360.096 97.0741 360.296 96.654C360.497 96.2339 360.79 95.8661 361.155 95.579C361.921 95.0092 362.854 94.7153 363.806 94.7444C365.425 94.7444 366.205 95.3709 366.144 96.624C366.139 96.7491 366.126 96.8738 366.106 96.9973C366.087 97.111 366.061 97.2355 366.029 97.3749" fill="white"/>
<path d="M445.679 124.054C445.656 124.272 445.549 124.473 445.382 124.613C445.214 124.754 444.999 124.822 444.782 124.805H441.117C440.732 124.805 440.547 124.623 440.564 124.264V124.05L443.704 111.652C443.895 110.985 444.008 110.298 444.042 109.605C444.104 109.201 444.062 108.787 443.92 108.403C443.778 108.02 443.541 107.679 443.232 107.414C442.507 106.944 441.652 106.719 440.792 106.771C440.286 106.771 439.781 106.813 439.282 106.895C438.793 106.976 438.317 107.121 437.864 107.324C437.44 107.512 437.053 107.773 436.719 108.097C436.391 108.411 436.153 108.807 436.028 109.245L432.248 124.065C432.23 124.277 432.131 124.473 431.973 124.613C431.814 124.753 431.608 124.826 431.397 124.816H427.743C427.331 124.816 427.133 124.633 427.148 124.275V124.06L432.227 104.063C432.263 103.842 432.379 103.643 432.553 103.505C432.727 103.366 432.945 103.297 433.166 103.312H436.708C437.037 103.312 437.195 103.439 437.184 103.687C437.185 103.73 437.176 103.773 437.159 103.812C437.141 103.852 437.133 103.895 437.133 103.938C437.133 104.078 437.261 104.153 437.537 104.153C437.891 104.148 438.242 104.084 438.574 103.962C438.936 103.839 439.361 103.707 439.85 103.565C440.335 103.428 440.875 103.295 441.472 103.17C442.16 103.037 442.859 102.973 443.56 102.982C445.137 102.886 446.703 103.296 448.037 104.151C448.58 104.579 449.004 105.144 449.265 105.788C449.526 106.432 449.615 107.134 449.525 107.824C449.453 108.981 449.265 110.128 448.964 111.247L445.679 124.054Z" fill="white"/>
<path d="M471.651 114.158C471.607 114.375 471.489 114.57 471.317 114.707C471.145 114.845 470.931 114.917 470.711 114.911H457.656C457.491 114.906 457.328 114.956 457.193 115.054C457.059 115.152 456.96 115.292 456.912 115.452C456.741 116.008 456.654 116.587 456.653 117.169C456.593 117.762 456.669 118.361 456.877 118.92C457.085 119.478 457.418 119.98 457.85 120.387C459.009 121.262 460.446 121.677 461.889 121.554C462.736 121.563 463.582 121.48 464.412 121.308C465.067 121.166 465.714 120.991 466.351 120.784C466.803 120.641 467.244 120.466 467.671 120.26C467.89 120.132 468.132 120.046 468.383 120.009C468.738 120.009 468.913 120.149 468.9 120.439V120.522L468.262 122.861C468.196 123.09 468.085 123.303 467.935 123.488C467.785 123.672 467.6 123.824 467.391 123.934C466.832 124.258 466.233 124.503 465.609 124.663C464.82 124.872 464.015 125.012 463.203 125.082C462.307 125.165 461.365 125.207 460.377 125.208C457.884 125.42 455.398 124.715 453.379 123.224C452.622 122.5 452.042 121.608 451.685 120.619C451.329 119.63 451.206 118.57 451.325 117.525C451.382 116.437 451.553 115.358 451.836 114.306C452.271 112.56 452.956 110.887 453.868 109.339C454.659 107.998 455.672 106.804 456.863 105.81C457.983 104.888 459.256 104.174 460.622 103.7C461.997 103.227 463.441 102.988 464.895 102.992C465.949 102.891 467.013 103.007 468.022 103.333C469.03 103.66 469.963 104.19 470.762 104.891C471.372 105.574 471.833 106.378 472.117 107.252C472.401 108.125 472.502 109.049 472.412 109.963C472.366 110.623 472.276 111.28 472.14 111.927C471.98 112.759 471.817 113.512 471.651 114.18M466.627 111.528C466.761 111.536 466.893 111.5 467.005 111.425C467.116 111.349 467.199 111.239 467.242 111.111C467.378 110.679 467.45 110.228 467.454 109.775C467.502 109.324 467.452 108.869 467.308 108.44C467.163 108.011 466.927 107.619 466.617 107.292C465.808 106.623 464.773 106.301 463.732 106.393C462.904 106.382 462.084 106.568 461.34 106.936C460.672 107.262 460.062 107.697 459.533 108.223C459.073 108.688 458.688 109.223 458.394 109.809C458.153 110.262 458.005 110.76 457.958 111.272C457.958 111.44 458.086 111.523 458.36 111.523L466.627 111.528Z" fill="white"/>
<path d="M495.907 103.681C495.832 104.012 495.693 104.324 495.497 104.599L480.671 128.94C479.851 130.41 478.759 131.707 477.454 132.761C476.275 133.601 474.858 134.033 473.415 133.991C471.988 133.991 471.285 133.768 471.304 133.323V133.197L471.902 130.815C471.924 130.65 472.006 130.498 472.133 130.391C472.259 130.283 472.421 130.227 472.586 130.234C472.724 130.234 472.869 130.234 473.011 130.253C473.154 130.272 473.388 130.274 473.69 130.274C474.21 130.284 474.724 130.154 475.178 129.897C475.707 129.548 476.145 129.076 476.453 128.519L477.384 127.017C477.56 126.783 477.709 126.531 477.829 126.264C477.885 126.118 477.92 125.964 477.931 125.807C477.931 125.723 477.931 125.605 477.931 125.451C477.924 125.307 477.909 125.164 477.888 125.022L475.665 104.438V104.224C475.664 103.984 475.738 103.749 475.877 103.554C475.967 103.464 476.075 103.395 476.195 103.352C476.314 103.309 476.442 103.294 476.568 103.308H480.52C480.593 103.291 480.669 103.291 480.741 103.309C480.814 103.326 480.882 103.36 480.939 103.408C480.997 103.456 481.043 103.517 481.073 103.586C481.104 103.655 481.118 103.73 481.115 103.805L482.153 118.668C482.153 119.033 482.238 119.211 482.376 119.211C482.514 119.211 482.727 119.031 482.935 118.668L491.29 103.805C491.392 103.642 491.536 103.51 491.706 103.422C491.877 103.334 492.068 103.295 492.259 103.308H495.348C495.733 103.308 495.918 103.434 495.909 103.681" fill="white"/>
<path d="M405.97 124.052C405.947 124.27 405.84 124.471 405.673 124.611C405.505 124.752 405.29 124.82 405.073 124.803H401.531C401.201 124.803 401.042 124.665 401.055 124.389V124.174C401.055 124.035 400.955 123.96 400.736 123.96C400.381 123.963 400.03 124.027 399.696 124.148C399.335 124.273 398.916 124.404 398.444 124.543C397.972 124.683 397.43 124.814 396.82 124.94C395.286 125.209 393.716 125.187 392.19 124.876C391.497 124.733 390.839 124.456 390.249 124.063C389.711 123.696 389.278 123.192 388.995 122.601C388.692 121.93 388.562 121.192 388.616 120.456C388.652 119.817 388.735 119.183 388.865 118.557C389.007 117.842 389.193 117.042 389.424 116.158L392.509 104.05C392.532 103.832 392.639 103.631 392.806 103.491C392.974 103.35 393.189 103.282 393.406 103.299H397.154C397.511 103.299 397.681 103.466 397.666 103.797V103.923L394.38 116.866C394.233 117.428 394.138 118.003 394.097 118.583C394.045 118.964 394.084 119.353 394.212 119.716C394.339 120.079 394.55 120.406 394.828 120.67C395.64 121.194 396.601 121.428 397.56 121.338C398.572 121.349 399.576 121.151 400.509 120.754C400.928 120.59 401.303 120.326 401.599 119.984C401.895 119.642 402.105 119.233 402.209 118.791L405.947 104.054C405.964 103.842 406.063 103.646 406.222 103.506C406.38 103.366 406.586 103.293 406.797 103.303H410.545C410.927 103.303 411.112 103.484 411.097 103.844V103.971L405.97 124.052Z" fill="white"/>
<path d="M386.321 113.991C385.939 115.558 385.339 117.062 384.539 118.458C383.777 119.79 382.807 120.989 381.665 122.007C380.519 123.019 379.2 123.812 377.772 124.346C376.196 124.92 374.531 125.203 372.855 125.18C371.701 125.28 370.538 125.145 369.437 124.782C368.335 124.42 367.317 123.837 366.444 123.069C365.74 122.296 365.208 121.381 364.883 120.384C364.557 119.387 364.446 118.332 364.556 117.289C364.614 116.216 364.785 115.152 365.066 114.115C365.449 112.549 366.049 111.045 366.85 109.648C367.607 108.321 368.577 107.129 369.722 106.123C370.87 105.121 372.188 104.335 373.612 103.803C375.188 103.228 376.854 102.945 378.529 102.969C379.682 102.869 380.843 103.002 381.945 103.36C383.046 103.718 384.066 104.294 384.945 105.054C385.648 105.824 386.181 106.736 386.506 107.73C386.832 108.724 386.943 109.777 386.833 110.817C386.778 111.89 386.607 112.954 386.323 113.989M380.972 113.907C381.244 112.897 381.414 111.862 381.478 110.817C381.563 110.244 381.526 109.659 381.37 109.101C381.213 108.543 380.941 108.025 380.57 107.582C379.728 106.868 378.642 106.516 377.545 106.601C376.738 106.581 375.937 106.726 375.187 107.028C374.438 107.329 373.757 107.78 373.185 108.354C371.757 110.02 370.788 112.036 370.376 114.199C370.11 115.21 369.94 116.245 369.87 117.289C369.788 117.864 369.824 118.45 369.976 119.01C370.129 119.57 370.395 120.092 370.757 120.544C371.172 120.907 371.656 121.183 372.179 121.355C372.702 121.528 373.253 121.592 373.801 121.546C374.604 121.562 375.401 121.415 376.147 121.114C376.892 120.814 377.57 120.365 378.14 119.795C379.586 118.121 380.564 116.089 380.974 113.907" fill="white"/>
<path d="M323.14 124.052C323.116 124.27 323.01 124.471 322.842 124.611C322.675 124.752 322.459 124.82 322.242 124.803H318.701C318.371 124.803 318.212 124.665 318.225 124.389V124.174C318.225 124.035 318.125 123.96 317.906 123.96C317.551 123.963 317.2 124.027 316.866 124.148C316.505 124.273 316.086 124.404 315.614 124.543C315.142 124.683 314.6 124.814 313.99 124.94C312.456 125.209 310.886 125.187 309.36 124.876C308.667 124.733 308.008 124.456 307.419 124.063C306.88 123.696 306.447 123.192 306.165 122.601C305.862 121.93 305.732 121.192 305.786 120.456C305.821 119.817 305.903 119.183 306.033 118.557C306.175 117.849 306.36 117.055 306.592 116.158L309.676 104.05C309.7 103.832 309.806 103.631 309.974 103.491C310.141 103.35 310.357 103.282 310.574 103.299H314.322C314.679 103.299 314.849 103.466 314.834 103.797V103.923L311.547 116.866C311.4 117.428 311.305 118.003 311.264 118.583C311.213 118.964 311.252 119.353 311.379 119.716C311.506 120.079 311.718 120.406 311.996 120.67C312.807 121.194 313.769 121.428 314.727 121.338C315.74 121.349 316.743 121.151 317.676 120.754C318.096 120.59 318.47 120.326 318.767 119.984C319.063 119.642 319.272 119.233 319.377 118.791L323.114 104.054C323.132 103.842 323.231 103.646 323.389 103.506C323.548 103.366 323.754 103.293 323.964 103.303H327.712C328.095 103.303 328.28 103.484 328.265 103.844V103.971L323.14 124.052Z" fill="white"/>
<path d="M303.49 113.991C303.109 115.558 302.509 117.062 301.709 118.458C300.947 119.79 299.976 120.988 298.835 122.007C297.689 123.019 296.37 123.812 294.942 124.346C293.366 124.92 291.7 125.203 290.025 125.18C288.871 125.28 287.708 125.145 286.607 124.782C285.505 124.419 284.487 123.837 283.613 123.069C282.91 122.296 282.378 121.381 282.053 120.384C281.727 119.387 281.616 118.332 281.726 117.289C281.784 116.216 281.955 115.152 282.236 114.115C282.618 112.549 283.219 111.045 284.019 109.648C284.777 108.32 285.749 107.129 286.894 106.123C288.042 105.12 289.36 104.335 290.784 103.803C292.36 103.228 294.026 102.945 295.701 102.969C296.854 102.869 298.015 103.002 299.117 103.36C300.218 103.718 301.238 104.294 302.117 105.054C302.82 105.824 303.353 106.736 303.678 107.73C304.004 108.724 304.115 109.777 304.005 110.817C303.95 111.89 303.779 112.954 303.494 113.989M298.144 113.907C298.416 112.897 298.586 111.862 298.65 110.817C298.735 110.244 298.698 109.659 298.542 109.101C298.385 108.543 298.113 108.025 297.742 107.582C296.9 106.868 295.813 106.516 294.717 106.601C293.91 106.581 293.108 106.726 292.359 107.028C291.61 107.329 290.929 107.78 290.357 108.354C288.929 110.02 287.96 112.036 287.548 114.199C287.281 115.21 287.112 116.245 287.042 117.289C286.959 117.864 286.995 118.45 287.148 119.01C287.301 119.57 287.566 120.092 287.929 120.544C288.344 120.907 288.828 121.183 289.351 121.355C289.873 121.528 290.425 121.592 290.973 121.546C291.776 121.562 292.573 121.415 293.318 121.114C294.064 120.814 294.742 120.365 295.312 119.795C296.757 118.121 297.736 116.089 298.146 113.907" fill="white"/>
<path fill-rule="evenodd" clip-rule="evenodd" d="M228.165 39.6513L223.28 59.0879C221.85 59.2607 220.41 59.3481 218.969 59.3495C209.38 59.3495 210.44 56.237 214.488 39.297C218.694 21.6882 221.138 18.4697 227.115 18.4697C232.876 18.4697 232.922 22.6716 231.456 27.9827H246.064C248.433 18.0492 246.848 9.26797 229.769 9.26797C210.742 9.26797 205.581 13.6122 199.459 39.2904C193.754 63.2037 195.628 69.5347 216.181 69.5347C222.822 69.6689 229.456 69.0188 235.947 67.5976L242.836 39.6513H228.165ZM262.897 59.1541C260.929 59.1541 260.22 58.5151 260.601 56.8065L264.059 42.4128H284.418L286.715 32.966H266.342L268.638 23.3636C268.851 22.039 269.535 20.8379 270.561 19.9848C271.588 19.1317 272.887 18.6849 274.216 18.728H290.533L292.83 9.27459H269.131C259.289 9.27459 256.336 11.1421 252.514 26.8801L245.471 55.6873C243.309 65.3394 246.009 69.5479 253.426 69.5479H273.887C275.647 69.6043 277.376 69.0686 278.801 68.0251C280.227 66.9815 281.268 65.4893 281.761 63.7831L283.431 59.1674L262.897 59.1541ZM488.419 58.4124C486.45 58.4124 485.768 57.7833 486.138 56.0946L489.567 41.9161H509.693L511.96 32.6084H491.83L494.127 23.1484C494.337 21.8422 495.012 20.658 496.024 19.8171C497.037 18.9762 498.318 18.5361 499.628 18.579H515.74L518 9.27128H494.58C484.859 9.27128 481.929 11.1156 478.157 26.6119L471.208 54.9787C469.073 64.4851 471.736 68.6307 479.059 68.6307H499.3C501.035 68.6843 502.738 68.156 504.143 67.1285C505.548 66.1009 506.576 64.6322 507.066 62.952L508.722 58.4058L488.419 58.4124ZM163.596 59.2402H159.426L169.268 18.7346C170.524 18.7346 171.003 18.675 174.136 18.675C182.964 18.675 182.955 21.7809 178.729 39.1381C174.474 56.7105 171.997 59.2402 163.596 59.2402V59.2402ZM176.656 9.27459H156.283L142.091 67.7267C142.012 67.9276 141.984 68.1448 142.007 68.3595C142.031 68.5741 142.106 68.7797 142.226 68.9583C142.347 69.1369 142.508 69.2831 142.697 69.3841C142.887 69.4851 143.097 69.538 143.311 69.538H161.46C184.25 69.538 188.092 64.9023 194.342 39.1414C199.768 16.7711 196.425 9.27459 176.652 9.27459H176.656ZM454.444 9.27459C442.634 9.27459 437.149 9.54942 433.917 9.40042L419.633 67.7334C419.556 67.9349 419.528 68.1526 419.553 68.3674C419.578 68.5823 419.654 68.7877 419.776 68.9657C419.898 69.1437 420.061 69.2889 420.251 69.3887C420.441 69.4884 420.653 69.5397 420.867 69.538H434.56L446.971 18.8439C448.247 18.8439 450.156 18.7214 452.102 18.7214C458.755 18.7214 459.647 21.2279 457.879 28.3933L448.25 67.7334C448.173 67.9347 448.145 68.1521 448.17 68.3666C448.195 68.5812 448.271 68.7864 448.392 68.9643C448.514 69.1422 448.676 69.2875 448.866 69.3875C449.056 69.4875 449.267 69.5392 449.481 69.538H463.174L473.246 28.3966C476.739 14.142 470.808 9.27459 454.444 9.27459V9.27459ZM338.89 9.27459L336.535 19.0624H351.671C351.816 19.0624 351.816 19.271 351.691 19.3935C349.366 21.334 347.749 24.0027 347.098 26.9761L337.171 67.7466C337.093 67.9473 337.065 68.1642 337.089 68.3784C337.113 68.5926 337.188 68.7977 337.308 68.9758C337.429 69.1539 337.59 69.2998 337.779 69.4006C337.968 69.5015 338.178 69.5543 338.391 69.5545H353.026L365.319 19.0823H372.819C374.634 19.2215 376.441 18.7216 377.932 17.6675C379.423 16.6134 380.506 15.0704 380.997 13.301L382.431 9.29115L338.89 9.27459ZM131.724 69.5347L144.171 11.0759C144.381 10.0825 143.902 9.27128 143.101 9.27128H130.487L118.047 67.7267C117.834 68.7201 118.313 69.5347 119.12 69.5347H131.724ZM391.774 59.6806C385.488 59.6806 384.557 57.2204 388.936 38.9328C392.581 23.7014 396.062 18.4234 401.659 18.4234C407.935 18.4234 408.62 22.0657 404.585 38.9328C400.553 55.6509 396.616 59.6806 391.774 59.6806ZM403.834 9.27128C387.375 9.27128 380.229 12.4268 373.767 39.403C368.173 62.7633 372.661 69.5347 389.389 69.5347C406.416 69.5347 413.141 65.7533 419.469 39.403C424.049 20.3273 423.114 9.27128 403.834 9.27128Z" fill="white"/>
<path fill-rule="evenodd" clip-rule="evenodd" d="M8.74593 38.8235L17.4692 6.37401C17.9671 4.6262 18.9874 3.0761 20.3907 1.93532C21.794 0.794534 23.5119 0.118672 25.3099 0H51.9979C52.0956 0.0073042 52.1887 0.0448878 52.2645 0.107605C52.3402 0.170321 52.395 0.255113 52.4212 0.3504C52.4474 0.445687 52.4438 0.546817 52.4109 0.639969C52.378 0.733121 52.3174 0.813751 52.2374 0.870841C36.8241 12.2735 22.5147 25.123 9.50049 39.2474C9.43484 39.3255 9.34438 39.3784 9.24452 39.3969C9.14465 39.4154 9.04151 39.3984 8.95262 39.3489C8.86374 39.2993 8.7946 39.2203 8.75692 39.1251C8.71924 39.03 8.71535 38.9246 8.74593 38.8268" fill="white"/>
<path fill-rule="evenodd" clip-rule="evenodd" d="M29.2401 59.697L37.714 26.9395C37.8452 26.4428 37.3564 26.0786 36.9955 26.4197C23.5633 39.4516 11.2293 53.5895 0.121089 68.6868C-0.118398 69.0179 0.0062544 69.5378 0.416335 69.5378H37.0382C52.4834 69.5378 60.9344 64.2399 64.0083 51.578C66.5016 41.2736 61.6135 34.244 53.8383 32.4261C53.6907 32.3963 53.5693 32.095 53.8383 32.052C57.7007 31.6798 61.3304 30.0205 64.155 27.3357C66.9796 24.651 68.8382 21.0935 69.4378 17.2245C72.0065 5.70825 64.0477 -0.616091 54.9013 0.0494554L40.8962 54.3031C40.5248 55.7449 39.7226 57.0363 38.5986 58.002C37.4746 58.9676 36.0833 59.5605 34.6138 59.7003L29.2401 59.697ZM111.089 45.3629C110.733 43.8667 110.1 42.4522 109.222 41.1941C109.12 41.0451 109.097 40.863 109.284 40.8034C112.443 39.8742 115.286 38.0848 117.503 35.6315C119.719 33.1782 121.223 30.1559 121.849 26.8965C124.231 17.0888 118.424 9.28433 103.766 9.28433H82.0026L67.8073 67.7398C67.7293 67.9405 67.7011 68.1574 67.725 68.3716C67.7489 68.5858 67.8243 68.7908 67.9446 68.969C68.0648 69.1471 68.2263 69.293 68.4151 69.3938C68.6038 69.4947 68.8141 69.5475 69.0277 69.5477H82.6358L94.971 18.751C96.2833 18.751 97.5529 18.6914 100.683 18.6914C105.932 18.6914 107.871 22.1383 106.742 26.7971C106.274 29.4702 104.891 31.8927 102.835 33.6421C100.778 35.3915 98.1788 36.3568 95.4894 36.3697H93.4783L99.1473 65.5312C99.2071 66.1352 99.3875 66.7207 99.6775 67.2524C99.9675 67.7841 100.361 68.251 100.835 68.6251C101.308 68.9991 101.852 69.2725 102.433 69.4288C103.014 69.5851 103.621 69.621 104.216 69.5345H116.354L111.089 45.3629ZM290.366 48.9754C284.671 63.1306 292.105 69.5311 307.245 69.5311C321.047 69.5311 328.723 66.1273 332.004 52.9289C332.624 50.8326 332.742 48.6175 332.348 46.4662C331.954 44.3148 331.059 42.2888 329.737 40.5551C324.56 34.7241 314.646 33.6248 311.146 30.2474C310.401 29.4263 309.892 28.4164 309.673 27.3257C309.453 26.2351 309.531 25.1047 309.899 24.0555C310.189 22.3248 311.106 20.7647 312.472 19.6784C313.838 18.5922 315.555 18.0575 317.29 18.1781C323.524 18.1781 323.697 22.1747 322.152 26.9064H335.554C338.697 17.0192 334.569 9.27108 318.796 9.27108C305.529 9.27108 298.358 14.6882 295.779 25.0455C295.007 28.5448 295.427 32.2049 296.973 35.4327C300.625 41.9193 310.276 42.7173 315.617 46.5814C316.585 47.2978 317.286 48.3211 317.609 49.4876C317.932 50.654 317.858 51.8961 317.399 53.015C316.195 57.8526 313.859 60.1605 309.197 60.1605C304.712 60.1605 302.025 57.4487 304.604 48.982L290.366 48.9754Z" fill="white"/>
</svg>
